%TF.GenerationSoftware,Altium Limited,Altium Designer,22.2.1 (43)*%
G04 Layer_Color=255*
%FSLAX26Y26*%
%MOIN*%
%TF.SameCoordinates,49CA406D-FE3E-4379-A0B2-47437619DC98*%
%TF.FilePolarity,Positive*%
%TF.FileFunction,Pads,Top*%
%TF.Part,Single*%
G01*
G75*
%TA.AperFunction,SMDPad,CuDef*%
%ADD10R,0.037402X0.037402*%
%ADD11R,0.035433X0.023622*%
%ADD12R,0.021654X0.019685*%
%ADD13R,0.023622X0.025591*%
%ADD14R,0.023622X0.031496*%
%ADD15R,0.024016X0.031496*%
%ADD16R,0.039764X0.031496*%
%ADD17R,0.023622X0.035433*%
%ADD18R,0.098425X0.066929*%
%ADD19R,0.029528X0.039370*%
%ADD20R,0.035433X0.039370*%
%ADD21C,0.031496*%
%ADD22R,0.126308X0.045468*%
%ADD23R,0.032000X0.032000*%
%ADD24R,0.031496X0.031496*%
%ADD25R,0.051181X0.129921*%
%ADD26R,0.019685X0.129921*%
%ADD27R,0.031496X0.055118*%
%ADD28R,0.017323X0.015748*%
%ADD29R,0.027559X0.039370*%
G04:AMPARAMS|DCode=30|XSize=23.622mil|YSize=39.37mil|CornerRadius=2.008mil|HoleSize=0mil|Usage=FLASHONLY|Rotation=0.000|XOffset=0mil|YOffset=0mil|HoleType=Round|Shape=RoundedRectangle|*
%AMROUNDEDRECTD30*
21,1,0.023622,0.035354,0,0,0.0*
21,1,0.019606,0.039370,0,0,0.0*
1,1,0.004016,0.009803,-0.017677*
1,1,0.004016,-0.009803,-0.017677*
1,1,0.004016,-0.009803,0.017677*
1,1,0.004016,0.009803,0.017677*
%
%ADD30ROUNDEDRECTD30*%
%ADD31R,0.082677X0.066929*%
%ADD32R,0.023622X0.027559*%
%ADD33R,0.023622X0.019685*%
%ADD34R,0.078740X0.118110*%
%ADD35R,0.031496X0.062992*%
%TA.AperFunction,ConnectorPad*%
%ADD36R,0.057087X0.039370*%
%TA.AperFunction,SMDPad,CuDef*%
%ADD37R,0.078740X0.062992*%
%TA.AperFunction,ComponentPad*%
%ADD47R,0.047244X0.047244*%
%ADD48C,0.047244*%
%ADD49R,0.064961X0.064961*%
%ADD50C,0.051181*%
%ADD51C,0.114173*%
%ADD52C,0.027559*%
%ADD53R,0.060000X0.060000*%
%ADD54C,0.060000*%
%ADD55C,0.049213*%
%ADD56R,0.049213X0.049213*%
%ADD57C,0.061024*%
%ADD58R,0.061024X0.061024*%
D10*
X1068543Y955000D02*
D03*
X1011457D02*
D03*
X1218543Y955000D02*
D03*
X1161457D02*
D03*
D11*
X1115005Y955590D02*
D03*
X1115005Y904409D02*
D03*
D12*
X2630236Y880000D02*
D03*
X2659764D02*
D03*
D13*
X2575000Y843268D02*
D03*
X2575000Y876732D02*
D03*
D14*
X2185591Y430001D02*
D03*
X2134410Y430001D02*
D03*
X2134409Y385000D02*
D03*
X2185591Y385000D02*
D03*
D15*
X1335394Y655000D02*
D03*
D16*
X1292481Y655000D02*
D03*
D17*
X3424410Y295004D02*
D03*
X3475591Y295005D02*
D03*
D18*
X3613742Y385000D02*
D03*
X3456259Y385001D02*
D03*
D19*
X3830001Y1070040D02*
D03*
X3780001Y1070038D02*
D03*
X3729999Y1070039D02*
D03*
X3679999Y1070039D02*
D03*
X3755001Y959999D02*
D03*
D20*
X3576496Y1069999D02*
D03*
X3513505Y1070000D02*
D03*
D21*
X2112224Y1140000D02*
D03*
X1960085D02*
D03*
X1725000D02*
D03*
X1568853D02*
D03*
D22*
X3359999Y508754D02*
D03*
X3360000Y731246D02*
D03*
D23*
X3719643Y259501D02*
D03*
X3719642Y319500D02*
D03*
D24*
X3777235Y357638D02*
D03*
Y416693D02*
D03*
X3720835Y358622D02*
D03*
X3720836Y417677D02*
D03*
D25*
X3690000Y610000D02*
D03*
D26*
X3634882Y610000D02*
D03*
X3745118Y610000D02*
D03*
D27*
X2713385Y699897D02*
D03*
X2776378Y699898D02*
D03*
D28*
X2652247Y710567D02*
D03*
X2652246Y740488D02*
D03*
X2619701Y740525D02*
D03*
Y710604D02*
D03*
X2651898Y790568D02*
D03*
X2651897Y820488D02*
D03*
D29*
X2773291Y627697D02*
D03*
X2718171Y627697D02*
D03*
X2721709Y943247D02*
D03*
X2776829Y943247D02*
D03*
D30*
X2776693Y772685D02*
D03*
X2701890Y772685D02*
D03*
X2701890Y880953D02*
D03*
X2739291Y880953D02*
D03*
X2776693Y880953D02*
D03*
D31*
X3385197Y861102D02*
D03*
X3534803D02*
D03*
X3385197Y998898D02*
D03*
D32*
X3472087Y125945D02*
D03*
Y185000D02*
D03*
Y244056D02*
D03*
X3357914D02*
D03*
Y185000D02*
D03*
Y125945D02*
D03*
D33*
X3415000D02*
D03*
D34*
X2269544Y109551D02*
D03*
X1806394Y109551D02*
D03*
D35*
X2160457Y220205D02*
D03*
X2111245Y220204D02*
D03*
X2062032Y220205D02*
D03*
X2012820Y220204D02*
D03*
X1963607Y220205D02*
D03*
X1914395Y220205D02*
D03*
D36*
X175000Y883504D02*
D03*
X175000Y946496D02*
D03*
D37*
X325000Y965118D02*
D03*
Y854882D02*
D03*
D47*
X3220000Y1050000D02*
D03*
D48*
X3141260Y1050000D02*
D03*
X2983779Y1050000D02*
D03*
X2905040D02*
D03*
X2826299Y1050000D02*
D03*
X2747559Y1050000D02*
D03*
X2668819Y1050000D02*
D03*
X2590078Y1050001D02*
D03*
X2511338Y1050000D02*
D03*
X2432599Y1050000D02*
D03*
X2353858Y1050000D02*
D03*
X2275118Y1050000D02*
D03*
X2196377D02*
D03*
X2117637D02*
D03*
X2038898Y1050001D02*
D03*
X1960157Y1050000D02*
D03*
X1881417Y1050001D02*
D03*
X1802677Y1050000D02*
D03*
X1723936Y1049999D02*
D03*
X1645196D02*
D03*
X1566456Y1050000D02*
D03*
X1487716Y1050000D02*
D03*
X1408976Y1050000D02*
D03*
X1330235Y1050000D02*
D03*
X1251495Y1050000D02*
D03*
X1172756Y1050000D02*
D03*
X1094015Y1050001D02*
D03*
X1015275Y1050000D02*
D03*
X936534D02*
D03*
X857795Y1050000D02*
D03*
X779054Y1049999D02*
D03*
X621574Y1050000D02*
D03*
X542834Y1050001D02*
D03*
D49*
X1288150Y580000D02*
D03*
D50*
X1681851Y579999D02*
D03*
D51*
X460000Y100000D02*
D03*
D52*
X3763544Y291693D02*
D03*
X3763543Y128307D02*
D03*
D53*
X1690000Y915000D02*
D03*
D54*
X1790000D02*
D03*
X1890000Y914999D02*
D03*
X1990000Y915000D02*
D03*
X2090000Y915000D02*
D03*
X2190000Y915000D02*
D03*
D55*
X1355394Y97008D02*
D03*
X1442008Y97008D02*
D03*
X1528622Y97008D02*
D03*
X1355393Y222992D02*
D03*
X1442008D02*
D03*
X1528622Y222992D02*
D03*
X1654606Y97008D02*
D03*
D56*
X1654607Y222992D02*
D03*
D57*
X161417Y467047D02*
D03*
Y722953D02*
D03*
X338583Y467047D02*
D03*
X161417Y77047D02*
D03*
Y332953D02*
D03*
X338583Y77047D02*
D03*
D58*
Y722953D02*
D03*
Y332953D02*
D03*
%TF.MD5,ce9ed28d1a4535fada9c7b7a2504bd75*%
M02*
