%TF.GenerationSoftware,Altium Limited,Altium Designer,22.2.1 (43)*%
G04 Layer_Color=16711935*
%FSLAX26Y26*%
%MOIN*%
%TF.SameCoordinates,49CA406D-FE3E-4379-A0B2-47437619DC98*%
%TF.FilePolarity,Positive*%
%TF.FileFunction,Other,Mechanical_1*%
%TF.Part,Single*%
G01*
G75*
%TA.AperFunction,NonConductor*%
%ADD67C,0.020000*%
%ADD130C,0.003937*%
%ADD216C,0.002362*%
G36*
X3942678Y262579D02*
X3934853D01*
Y257674D01*
X3934824Y256944D01*
X3934794Y256272D01*
X3934707Y255659D01*
X3934590Y255075D01*
X3934473Y254578D01*
X3934327Y254111D01*
X3934181Y253702D01*
X3934006Y253352D01*
X3933860Y253031D01*
X3933714Y252768D01*
X3933568Y252564D01*
X3933451Y252359D01*
X3933334Y252243D01*
X3933247Y252155D01*
X3933218Y252096D01*
X3933188Y252067D01*
X3932867Y251775D01*
X3932517Y251542D01*
X3932166Y251337D01*
X3931816Y251162D01*
X3931144Y250870D01*
X3930473Y250695D01*
X3930181Y250607D01*
X3929918Y250578D01*
X3929655Y250549D01*
X3929451Y250520D01*
X3929276Y250490D01*
X3929159D01*
X3929071D01*
X3929042D01*
X3928516Y250520D01*
X3928020Y250578D01*
X3927582Y250666D01*
X3927202Y250782D01*
X3926881Y250899D01*
X3926648Y250987D01*
X3926502Y251045D01*
X3926443Y251075D01*
X3926005Y251308D01*
X3925655Y251571D01*
X3925334Y251834D01*
X3925071Y252067D01*
X3924866Y252272D01*
X3924720Y252447D01*
X3924633Y252593D01*
X3924604Y252622D01*
X3924370Y253002D01*
X3924166Y253411D01*
X3924020Y253790D01*
X3923903Y254170D01*
X3923815Y254491D01*
X3923757Y254754D01*
X3923698Y254929D01*
Y254987D01*
X3923640Y255396D01*
X3923582Y255863D01*
X3923552Y256360D01*
X3923523Y256827D01*
X3923494Y257265D01*
Y265120D01*
X3942678D01*
Y262579D01*
D02*
G37*
G36*
X3933977Y247950D02*
X3934911Y247833D01*
X3935787Y247658D01*
X3936196Y247571D01*
X3936546Y247483D01*
X3936897Y247395D01*
X3937189Y247308D01*
X3937452Y247220D01*
X3937685Y247132D01*
X3937860Y247074D01*
X3937977Y247016D01*
X3938065Y246987D01*
X3938094D01*
X3938941Y246578D01*
X3939671Y246081D01*
X3940313Y245614D01*
X3940810Y245118D01*
X3941218Y244709D01*
X3941510Y244358D01*
X3941598Y244213D01*
X3941686Y244125D01*
X3941715Y244066D01*
X3941744Y244037D01*
X3941978Y243658D01*
X3942153Y243249D01*
X3942474Y242431D01*
X3942678Y241584D01*
X3942854Y240767D01*
X3942883Y240417D01*
X3942941Y240066D01*
X3942970Y239774D01*
Y239511D01*
X3943000Y239278D01*
Y238986D01*
X3942970Y238431D01*
X3942941Y237905D01*
X3942737Y236942D01*
X3942620Y236504D01*
X3942474Y236066D01*
X3942328Y235686D01*
X3942182Y235336D01*
X3942036Y235014D01*
X3941890Y234752D01*
X3941744Y234518D01*
X3941627Y234314D01*
X3941510Y234138D01*
X3941423Y234022D01*
X3941394Y233963D01*
X3941364Y233934D01*
X3941043Y233554D01*
X3940693Y233204D01*
X3939934Y232620D01*
X3939145Y232095D01*
X3938357Y231715D01*
X3938006Y231540D01*
X3937685Y231423D01*
X3937364Y231306D01*
X3937130Y231189D01*
X3936897Y231131D01*
X3936751Y231072D01*
X3936634Y231043D01*
X3936605D01*
X3935962Y233584D01*
X3936809Y233817D01*
X3937568Y234109D01*
X3938182Y234460D01*
X3938707Y234781D01*
X3939087Y235102D01*
X3939379Y235365D01*
X3939554Y235540D01*
X3939583Y235569D01*
X3939612Y235599D01*
X3940021Y236183D01*
X3940313Y236767D01*
X3940547Y237380D01*
X3940693Y237935D01*
X3940780Y238431D01*
X3940810Y238665D01*
Y238840D01*
X3940839Y238986D01*
Y239190D01*
X3940810Y239833D01*
X3940693Y240446D01*
X3940547Y241000D01*
X3940401Y241468D01*
X3940226Y241876D01*
X3940109Y242198D01*
X3940050Y242315D01*
X3939992Y242402D01*
X3939963Y242431D01*
Y242460D01*
X3939583Y242986D01*
X3939145Y243424D01*
X3938707Y243804D01*
X3938240Y244125D01*
X3937860Y244358D01*
X3937510Y244505D01*
X3937393Y244563D01*
X3937306Y244621D01*
X3937247Y244650D01*
X3937218D01*
X3936517Y244884D01*
X3935787Y245059D01*
X3935057Y245176D01*
X3934386Y245264D01*
X3934094Y245293D01*
X3933831Y245322D01*
X3933568D01*
X3933364Y245351D01*
X3933188D01*
X3933072D01*
X3932984D01*
X3932955D01*
X3932254Y245322D01*
X3931582Y245264D01*
X3930969Y245176D01*
X3930414Y245059D01*
X3929947Y244942D01*
X3929743Y244913D01*
X3929597Y244855D01*
X3929451Y244826D01*
X3929363Y244797D01*
X3929305Y244767D01*
X3929276D01*
X3928633Y244505D01*
X3928049Y244183D01*
X3927582Y243833D01*
X3927173Y243512D01*
X3926852Y243190D01*
X3926618Y242928D01*
X3926472Y242752D01*
X3926414Y242723D01*
Y242694D01*
X3926064Y242110D01*
X3925801Y241497D01*
X3925596Y240884D01*
X3925480Y240300D01*
X3925392Y239774D01*
X3925363Y239570D01*
Y239365D01*
X3925334Y239219D01*
Y239015D01*
X3925363Y238314D01*
X3925480Y237701D01*
X3925626Y237146D01*
X3925801Y236708D01*
X3926005Y236328D01*
X3926151Y236066D01*
X3926268Y235891D01*
X3926297Y235832D01*
X3926706Y235365D01*
X3927173Y234985D01*
X3927699Y234635D01*
X3928195Y234372D01*
X3928633Y234168D01*
X3928838Y234080D01*
X3929013Y233993D01*
X3929159Y233934D01*
X3929276Y233905D01*
X3929334Y233876D01*
X3929363D01*
X3928779Y231364D01*
X3927845Y231715D01*
X3927407Y231919D01*
X3927027Y232124D01*
X3926648Y232357D01*
X3926297Y232591D01*
X3926005Y232795D01*
X3925713Y233029D01*
X3925480Y233233D01*
X3925275Y233438D01*
X3925071Y233642D01*
X3924925Y233788D01*
X3924808Y233934D01*
X3924720Y234022D01*
X3924691Y234080D01*
X3924662Y234109D01*
X3924399Y234489D01*
X3924166Y234869D01*
X3923961Y235277D01*
X3923786Y235686D01*
X3923523Y236504D01*
X3923348Y237263D01*
X3923290Y237613D01*
X3923260Y237935D01*
X3923231Y238226D01*
X3923202Y238460D01*
X3923173Y238665D01*
Y238957D01*
X3923231Y239891D01*
X3923348Y240767D01*
X3923552Y241555D01*
X3923640Y241906D01*
X3923757Y242227D01*
X3923874Y242519D01*
X3923961Y242811D01*
X3924078Y243044D01*
X3924166Y243220D01*
X3924224Y243395D01*
X3924282Y243512D01*
X3924341Y243570D01*
Y243599D01*
X3924808Y244329D01*
X3925363Y245001D01*
X3925918Y245556D01*
X3926472Y245994D01*
X3926969Y246373D01*
X3927173Y246519D01*
X3927348Y246636D01*
X3927524Y246724D01*
X3927640Y246782D01*
X3927699Y246840D01*
X3927728D01*
X3928575Y247220D01*
X3929480Y247512D01*
X3930356Y247687D01*
X3931174Y247833D01*
X3931553Y247892D01*
X3931874Y247921D01*
X3932196Y247950D01*
X3932458D01*
X3932663Y247979D01*
X3932809D01*
X3932926D01*
X3932955D01*
X3933977Y247950D01*
D02*
G37*
G36*
X3942678Y220064D02*
X3942620Y219480D01*
X3942591Y218954D01*
X3942532Y218487D01*
X3942474Y218137D01*
X3942445Y217874D01*
X3942386Y217699D01*
Y217641D01*
X3942240Y217202D01*
X3942094Y216794D01*
X3941948Y216414D01*
X3941802Y216122D01*
X3941656Y215859D01*
X3941540Y215684D01*
X3941481Y215567D01*
X3941452Y215538D01*
X3941189Y215246D01*
X3940897Y214954D01*
X3940605Y214720D01*
X3940313Y214516D01*
X3940050Y214370D01*
X3939846Y214224D01*
X3939700Y214166D01*
X3939642Y214137D01*
X3939204Y213932D01*
X3938766Y213786D01*
X3938328Y213698D01*
X3937948Y213611D01*
X3937627Y213582D01*
X3937364Y213553D01*
X3937189D01*
X3937130D01*
X3936517Y213582D01*
X3935962Y213698D01*
X3935495Y213845D01*
X3935057Y214020D01*
X3934707Y214224D01*
X3934444Y214370D01*
X3934298Y214487D01*
X3934240Y214516D01*
X3933802Y214896D01*
X3933451Y215334D01*
X3933159Y215772D01*
X3932896Y216210D01*
X3932721Y216589D01*
X3932575Y216911D01*
X3932546Y217027D01*
X3932517Y217115D01*
X3932488Y217173D01*
Y217202D01*
X3932225Y216706D01*
X3931933Y216297D01*
X3931670Y215947D01*
X3931378Y215655D01*
X3931144Y215451D01*
X3930940Y215275D01*
X3930823Y215188D01*
X3930765Y215159D01*
X3930356Y214925D01*
X3929918Y214779D01*
X3929538Y214662D01*
X3929188Y214575D01*
X3928867Y214516D01*
X3928633Y214487D01*
X3928487D01*
X3928429D01*
X3927932Y214516D01*
X3927465Y214604D01*
X3927056Y214720D01*
X3926677Y214867D01*
X3926356Y215012D01*
X3926093Y215129D01*
X3925947Y215217D01*
X3925888Y215246D01*
X3925450Y215567D01*
X3925100Y215888D01*
X3924779Y216239D01*
X3924516Y216589D01*
X3924341Y216881D01*
X3924195Y217115D01*
X3924107Y217290D01*
X3924078Y217319D01*
Y217349D01*
X3923874Y217874D01*
X3923728Y218458D01*
X3923640Y219042D01*
X3923552Y219597D01*
X3923523Y220093D01*
Y220298D01*
X3923494Y220502D01*
Y228036D01*
X3942678D01*
Y220064D01*
D02*
G37*
G36*
Y188236D02*
X3940430D01*
Y200004D01*
X3933889D01*
Y189404D01*
X3931641D01*
Y200004D01*
X3925742D01*
Y188674D01*
X3923494D01*
Y202544D01*
X3942678D01*
Y188236D01*
D02*
G37*
G36*
X3936546Y185871D02*
X3937247Y185783D01*
X3937890Y185667D01*
X3938444Y185520D01*
X3938912Y185375D01*
X3939116Y185316D01*
X3939262Y185258D01*
X3939379Y185199D01*
X3939466Y185170D01*
X3939525Y185141D01*
X3939554D01*
X3940138Y184820D01*
X3940634Y184499D01*
X3941072Y184119D01*
X3941423Y183798D01*
X3941715Y183476D01*
X3941919Y183243D01*
X3942065Y183068D01*
X3942094Y183038D01*
Y183009D01*
X3942386Y182484D01*
X3942620Y181929D01*
X3942766Y181433D01*
X3942883Y180936D01*
X3942941Y180556D01*
X3942970Y180235D01*
X3943000Y180119D01*
Y179943D01*
X3942970Y179476D01*
X3942912Y179038D01*
X3942824Y178629D01*
X3942678Y178250D01*
X3942532Y177929D01*
X3942357Y177607D01*
X3942153Y177315D01*
X3941978Y177053D01*
X3941773Y176819D01*
X3941598Y176614D01*
X3941423Y176439D01*
X3941277Y176322D01*
X3941131Y176206D01*
X3941043Y176118D01*
X3940985Y176089D01*
X3940956Y176060D01*
X3942678D01*
Y173870D01*
X3923494D01*
Y176235D01*
X3930385D01*
X3930093Y176469D01*
X3929801Y176731D01*
X3929568Y177023D01*
X3929392Y177257D01*
X3929217Y177490D01*
X3929100Y177666D01*
X3929042Y177782D01*
X3929013Y177841D01*
X3928838Y178220D01*
X3928692Y178600D01*
X3928604Y178980D01*
X3928516Y179301D01*
X3928487Y179622D01*
X3928458Y179856D01*
Y180060D01*
X3928487Y180673D01*
X3928604Y181257D01*
X3928750Y181783D01*
X3928896Y182250D01*
X3929071Y182630D01*
X3929217Y182922D01*
X3929334Y183097D01*
X3929363Y183126D01*
Y183155D01*
X3929743Y183652D01*
X3930152Y184060D01*
X3930590Y184411D01*
X3931028Y184703D01*
X3931407Y184936D01*
X3931699Y185083D01*
X3931816Y185141D01*
X3931904Y185199D01*
X3931962Y185228D01*
X3931991D01*
X3932634Y185462D01*
X3933305Y185608D01*
X3933918Y185725D01*
X3934502Y185812D01*
X3934999Y185871D01*
X3935232D01*
X3935408Y185900D01*
X3935554D01*
X3935670D01*
X3935729D01*
X3935758D01*
X3936546Y185871D01*
D02*
G37*
G36*
X3936196Y171037D02*
X3936722Y171008D01*
X3937656Y170833D01*
X3938094Y170687D01*
X3938503Y170570D01*
X3938882Y170424D01*
X3939233Y170278D01*
X3939554Y170132D01*
X3939817Y169986D01*
X3940050Y169840D01*
X3940255Y169723D01*
X3940430Y169636D01*
X3940547Y169548D01*
X3940605Y169519D01*
X3940634Y169490D01*
X3940985Y169168D01*
X3941306Y168847D01*
X3941569Y168497D01*
X3941802Y168117D01*
X3942007Y167767D01*
X3942182Y167387D01*
X3942328Y167037D01*
X3942416Y166686D01*
X3942503Y166336D01*
X3942562Y166044D01*
X3942620Y165752D01*
X3942649Y165518D01*
X3942678Y165314D01*
Y165051D01*
X3942649Y164643D01*
X3942591Y164234D01*
X3942503Y163854D01*
X3942386Y163504D01*
X3942094Y162832D01*
X3941773Y162277D01*
X3941452Y161839D01*
X3941277Y161664D01*
X3941160Y161489D01*
X3941043Y161372D01*
X3940956Y161285D01*
X3940897Y161255D01*
X3940868Y161226D01*
X3941277D01*
X3941656D01*
X3941978D01*
X3942299D01*
X3942562Y161255D01*
X3942824D01*
X3943233Y161314D01*
X3943525Y161343D01*
X3943730Y161372D01*
X3943846Y161401D01*
X3943876D01*
X3944284Y161547D01*
X3944664Y161722D01*
X3944956Y161898D01*
X3945219Y162102D01*
X3945423Y162306D01*
X3945569Y162452D01*
X3945657Y162569D01*
X3945686Y162599D01*
X3945920Y162949D01*
X3946066Y163358D01*
X3946182Y163767D01*
X3946270Y164175D01*
X3946328Y164555D01*
X3946358Y164847D01*
Y165110D01*
X3946328Y165635D01*
X3946241Y166132D01*
X3946153Y166541D01*
X3946007Y166862D01*
X3945890Y167154D01*
X3945803Y167329D01*
X3945715Y167475D01*
X3945686Y167504D01*
X3945482Y167738D01*
X3945248Y167913D01*
X3944985Y168059D01*
X3944722Y168176D01*
X3944489Y168234D01*
X3944314Y168292D01*
X3944197Y168322D01*
X3944138D01*
X3943817Y170599D01*
X3944226D01*
X3944606Y170541D01*
X3945277Y170395D01*
X3945861Y170161D01*
X3946328Y169899D01*
X3946708Y169607D01*
X3946971Y169373D01*
X3947117Y169198D01*
X3947175Y169168D01*
Y169139D01*
X3947555Y168526D01*
X3947847Y167855D01*
X3948022Y167183D01*
X3948168Y166541D01*
X3948256Y165986D01*
X3948285Y165723D01*
Y165518D01*
X3948314Y165343D01*
Y165110D01*
X3948285Y164351D01*
X3948197Y163679D01*
X3948051Y163066D01*
X3947905Y162540D01*
X3947788Y162131D01*
X3947642Y161839D01*
X3947584Y161722D01*
X3947555Y161635D01*
X3947526Y161606D01*
Y161577D01*
X3947204Y161080D01*
X3946854Y160642D01*
X3946504Y160292D01*
X3946153Y160000D01*
X3945832Y159795D01*
X3945598Y159620D01*
X3945423Y159532D01*
X3945394Y159503D01*
X3945365D01*
X3945102Y159387D01*
X3944781Y159270D01*
X3944080Y159124D01*
X3943321Y159007D01*
X3942591Y158919D01*
X3942240Y158890D01*
X3941890Y158861D01*
X3941598D01*
X3941335Y158832D01*
X3941102D01*
X3940956D01*
X3940839D01*
X3940810D01*
X3928779D01*
Y160993D01*
X3930473D01*
X3930122Y161285D01*
X3929801Y161606D01*
X3929538Y161956D01*
X3929305Y162277D01*
X3929100Y162628D01*
X3928954Y162978D01*
X3928808Y163299D01*
X3928721Y163620D01*
X3928575Y164175D01*
X3928516Y164438D01*
X3928487Y164643D01*
X3928458Y164818D01*
Y165051D01*
X3928487Y165723D01*
X3928604Y166336D01*
X3928750Y166862D01*
X3928925Y167358D01*
X3929100Y167738D01*
X3929246Y168030D01*
X3929305Y168117D01*
X3929363Y168205D01*
X3929392Y168234D01*
Y168263D01*
X3929772Y168760D01*
X3930181Y169168D01*
X3930619Y169519D01*
X3931028Y169840D01*
X3931407Y170074D01*
X3931699Y170220D01*
X3931816Y170278D01*
X3931904Y170337D01*
X3931962Y170366D01*
X3931991D01*
X3932634Y170599D01*
X3933276Y170774D01*
X3933889Y170891D01*
X3934473Y170979D01*
X3934940Y171037D01*
X3935145D01*
X3935320Y171066D01*
X3935466D01*
X3935583D01*
X3935641D01*
X3935670D01*
X3936196Y171037D01*
D02*
G37*
G36*
X3936488Y155999D02*
X3937072Y155941D01*
X3937627Y155853D01*
X3938123Y155737D01*
X3938590Y155620D01*
X3939028Y155474D01*
X3939408Y155298D01*
X3939758Y155123D01*
X3940080Y154977D01*
X3940372Y154802D01*
X3940605Y154656D01*
X3940780Y154510D01*
X3940926Y154423D01*
X3941043Y154335D01*
X3941102Y154276D01*
X3941131Y154247D01*
X3941452Y153897D01*
X3941744Y153517D01*
X3942007Y153138D01*
X3942211Y152729D01*
X3942386Y152349D01*
X3942532Y151940D01*
X3942766Y151181D01*
X3942854Y150802D01*
X3942912Y150481D01*
X3942941Y150189D01*
X3942970Y149926D01*
X3943000Y149721D01*
Y149429D01*
X3942941Y148553D01*
X3942824Y147794D01*
X3942620Y147093D01*
X3942416Y146538D01*
X3942299Y146276D01*
X3942211Y146071D01*
X3942094Y145896D01*
X3942007Y145750D01*
X3941948Y145604D01*
X3941890Y145517D01*
X3941832Y145487D01*
Y145458D01*
X3941364Y144933D01*
X3940810Y144465D01*
X3940255Y144115D01*
X3939729Y143823D01*
X3939233Y143589D01*
X3939028Y143502D01*
X3938853Y143443D01*
X3938707Y143385D01*
X3938590Y143356D01*
X3938532Y143327D01*
X3938503D01*
X3938182Y145750D01*
X3938707Y145984D01*
X3939174Y146217D01*
X3939554Y146451D01*
X3939846Y146685D01*
X3940109Y146889D01*
X3940255Y147064D01*
X3940372Y147181D01*
X3940401Y147210D01*
X3940634Y147560D01*
X3940780Y147940D01*
X3940897Y148320D01*
X3940985Y148670D01*
X3941043Y148962D01*
X3941072Y149196D01*
Y149429D01*
X3941014Y150042D01*
X3940897Y150597D01*
X3940693Y151094D01*
X3940459Y151532D01*
X3940255Y151853D01*
X3940050Y152116D01*
X3939934Y152262D01*
X3939875Y152320D01*
X3939379Y152700D01*
X3938795Y153021D01*
X3938211Y153225D01*
X3937656Y153400D01*
X3937130Y153517D01*
X3936926Y153547D01*
X3936722Y153576D01*
X3936576D01*
X3936430Y153605D01*
X3936371D01*
X3936342D01*
Y143268D01*
X3936079Y143239D01*
X3935875D01*
X3935758D01*
X3935729D01*
X3935086Y143268D01*
X3934502Y143327D01*
X3933948Y143414D01*
X3933451Y143502D01*
X3932955Y143648D01*
X3932517Y143794D01*
X3932137Y143969D01*
X3931758Y144115D01*
X3931436Y144290D01*
X3931174Y144465D01*
X3930940Y144611D01*
X3930736Y144728D01*
X3930590Y144845D01*
X3930473Y144933D01*
X3930414Y144991D01*
X3930385Y145020D01*
X3930035Y145370D01*
X3929743Y145721D01*
X3929480Y146101D01*
X3929276Y146480D01*
X3929071Y146860D01*
X3928925Y147239D01*
X3928692Y147940D01*
X3928604Y148291D01*
X3928546Y148583D01*
X3928516Y148875D01*
X3928487Y149108D01*
X3928458Y149312D01*
Y149575D01*
X3928487Y150101D01*
X3928546Y150597D01*
X3928633Y151065D01*
X3928750Y151502D01*
X3928925Y151940D01*
X3929071Y152320D01*
X3929246Y152671D01*
X3929422Y152992D01*
X3929626Y153284D01*
X3929801Y153517D01*
X3929947Y153751D01*
X3930093Y153926D01*
X3930239Y154072D01*
X3930327Y154160D01*
X3930385Y154218D01*
X3930414Y154247D01*
X3930794Y154569D01*
X3931203Y154831D01*
X3931641Y155065D01*
X3932079Y155269D01*
X3932546Y155445D01*
X3932984Y155590D01*
X3933860Y155795D01*
X3934269Y155882D01*
X3934648Y155941D01*
X3934999Y155970D01*
X3935291Y155999D01*
X3935524Y156029D01*
X3935729D01*
X3935846D01*
X3935875D01*
X3936488Y155999D01*
D02*
G37*
%LPC*%
G36*
X3932604Y262579D02*
X3925742D01*
Y257119D01*
X3925772Y256593D01*
X3925801Y256185D01*
X3925830Y255863D01*
X3925859Y255630D01*
X3925888Y255454D01*
X3925918Y255367D01*
Y255338D01*
X3926064Y254987D01*
X3926210Y254666D01*
X3926414Y254403D01*
X3926589Y254170D01*
X3926764Y253965D01*
X3926910Y253849D01*
X3927027Y253761D01*
X3927056Y253732D01*
X3927378Y253527D01*
X3927728Y253381D01*
X3928078Y253264D01*
X3928400Y253206D01*
X3928692Y253148D01*
X3928925Y253119D01*
X3929071D01*
X3929130D01*
X3929714Y253177D01*
X3930239Y253294D01*
X3930677Y253440D01*
X3931028Y253644D01*
X3931320Y253849D01*
X3931524Y253994D01*
X3931670Y254111D01*
X3931699Y254170D01*
X3931845Y254374D01*
X3931991Y254608D01*
X3932225Y255133D01*
X3932371Y255717D01*
X3932488Y256301D01*
X3932546Y256827D01*
X3932575Y257031D01*
Y257236D01*
X3932604Y257411D01*
Y262579D01*
D02*
G37*
G36*
X3931582Y225495D02*
X3925742D01*
Y220969D01*
X3925801Y220356D01*
X3925830Y219860D01*
X3925888Y219451D01*
X3925947Y219159D01*
X3925976Y218954D01*
X3926034Y218809D01*
Y218779D01*
X3926151Y218487D01*
X3926297Y218225D01*
X3926472Y217991D01*
X3926618Y217816D01*
X3926794Y217670D01*
X3926910Y217553D01*
X3926998Y217494D01*
X3927027Y217465D01*
X3927319Y217319D01*
X3927611Y217202D01*
X3927874Y217115D01*
X3928137Y217056D01*
X3928370Y217027D01*
X3928546Y216998D01*
X3928692D01*
X3928721D01*
X3929100Y217027D01*
X3929422Y217086D01*
X3929714Y217144D01*
X3929947Y217232D01*
X3930152Y217349D01*
X3930298Y217407D01*
X3930385Y217465D01*
X3930414Y217494D01*
X3930648Y217699D01*
X3930852Y217933D01*
X3931028Y218166D01*
X3931144Y218400D01*
X3931261Y218633D01*
X3931320Y218809D01*
X3931349Y218925D01*
X3931378Y218954D01*
X3931436Y219276D01*
X3931495Y219626D01*
X3931524Y220035D01*
X3931553Y220444D01*
X3931582Y220794D01*
Y225495D01*
D02*
G37*
G36*
X3940430D02*
X3933831D01*
Y220444D01*
X3933889Y219860D01*
X3933918Y219393D01*
X3933977Y218984D01*
X3934035Y218692D01*
X3934094Y218458D01*
X3934123Y218341D01*
X3934152Y218283D01*
X3934298Y217933D01*
X3934473Y217641D01*
X3934648Y217378D01*
X3934853Y217173D01*
X3935028Y216998D01*
X3935145Y216852D01*
X3935262Y216794D01*
X3935291Y216764D01*
X3935583Y216560D01*
X3935904Y216414D01*
X3936225Y216327D01*
X3936517Y216239D01*
X3936751Y216210D01*
X3936955Y216180D01*
X3937072D01*
X3937130D01*
X3937481Y216210D01*
X3937773Y216239D01*
X3938065Y216297D01*
X3938298Y216356D01*
X3938503Y216443D01*
X3938649Y216502D01*
X3938736Y216531D01*
X3938766Y216560D01*
X3938999Y216706D01*
X3939233Y216881D01*
X3939408Y217027D01*
X3939554Y217202D01*
X3939700Y217349D01*
X3939788Y217436D01*
X3939817Y217524D01*
X3939846Y217553D01*
X3940080Y218020D01*
X3940226Y218487D01*
X3940284Y218692D01*
X3940313Y218867D01*
X3940342Y218984D01*
Y219013D01*
X3940372Y219217D01*
X3940401Y219480D01*
X3940430Y220064D01*
Y225495D01*
D02*
G37*
G36*
X3936021Y183476D02*
X3935875D01*
X3935787D01*
X3935758D01*
X3935262D01*
X3934794Y183418D01*
X3934356Y183389D01*
X3933948Y183301D01*
X3933597Y183243D01*
X3933247Y183155D01*
X3932955Y183038D01*
X3932692Y182951D01*
X3932458Y182863D01*
X3932254Y182746D01*
X3932079Y182659D01*
X3931933Y182601D01*
X3931845Y182513D01*
X3931758Y182484D01*
X3931699Y182425D01*
X3931466Y182221D01*
X3931261Y182017D01*
X3930969Y181578D01*
X3930736Y181141D01*
X3930560Y180732D01*
X3930473Y180381D01*
X3930444Y180089D01*
X3930414Y179972D01*
Y179535D01*
X3930473Y179243D01*
X3930619Y178717D01*
X3930852Y178250D01*
X3931086Y177870D01*
X3931320Y177549D01*
X3931553Y177315D01*
X3931699Y177169D01*
X3931728Y177111D01*
X3931758D01*
X3932020Y176906D01*
X3932312Y176731D01*
X3932984Y176469D01*
X3933685Y176264D01*
X3934356Y176147D01*
X3934999Y176060D01*
X3935262Y176030D01*
X3935495D01*
X3935700Y176001D01*
X3935846D01*
X3935933D01*
X3935962D01*
X3936430D01*
X3936868Y176060D01*
X3937276Y176089D01*
X3937656Y176177D01*
X3938006Y176264D01*
X3938328Y176352D01*
X3938620Y176439D01*
X3938853Y176527D01*
X3939087Y176644D01*
X3939291Y176731D01*
X3939437Y176819D01*
X3939583Y176906D01*
X3939671Y176994D01*
X3939758Y177023D01*
X3939788Y177082D01*
X3939817D01*
X3940050Y177286D01*
X3940226Y177490D01*
X3940547Y177958D01*
X3940751Y178396D01*
X3940926Y178804D01*
X3941014Y179155D01*
X3941043Y179447D01*
X3941072Y179564D01*
Y179710D01*
X3941043Y180002D01*
X3941014Y180264D01*
X3940868Y180790D01*
X3940664Y181228D01*
X3940401Y181608D01*
X3940167Y181929D01*
X3939963Y182162D01*
X3939817Y182309D01*
X3939758Y182367D01*
X3939496Y182571D01*
X3939204Y182746D01*
X3938590Y183009D01*
X3937919Y183214D01*
X3937276Y183331D01*
X3936663Y183418D01*
X3936430Y183447D01*
X3936196D01*
X3936021Y183476D01*
D02*
G37*
G36*
X3935758Y168643D02*
X3935612D01*
X3935524D01*
X3935495D01*
X3934619Y168584D01*
X3933831Y168468D01*
X3933510Y168380D01*
X3933188Y168292D01*
X3932896Y168205D01*
X3932663Y168088D01*
X3932429Y168000D01*
X3932225Y167913D01*
X3932079Y167825D01*
X3931933Y167738D01*
X3931845Y167650D01*
X3931758Y167621D01*
X3931699Y167562D01*
X3931466Y167358D01*
X3931261Y167125D01*
X3930969Y166686D01*
X3930736Y166219D01*
X3930560Y165810D01*
X3930473Y165431D01*
X3930444Y165139D01*
X3930414Y165022D01*
Y164584D01*
X3930473Y164292D01*
X3930619Y163767D01*
X3930823Y163299D01*
X3931057Y162920D01*
X3931320Y162599D01*
X3931524Y162365D01*
X3931670Y162219D01*
X3931699Y162161D01*
X3931728D01*
X3931991Y161956D01*
X3932254Y161781D01*
X3932867Y161489D01*
X3933510Y161285D01*
X3934123Y161168D01*
X3934707Y161080D01*
X3934940Y161051D01*
X3935174D01*
X3935349Y161022D01*
X3935466D01*
X3935554D01*
X3935583D01*
X3936050D01*
X3936517Y161080D01*
X3936926Y161109D01*
X3937306Y161197D01*
X3937656Y161285D01*
X3937977Y161372D01*
X3938269Y161460D01*
X3938532Y161577D01*
X3938766Y161693D01*
X3938970Y161781D01*
X3939116Y161869D01*
X3939262Y161956D01*
X3939350Y162014D01*
X3939437Y162073D01*
X3939466Y162131D01*
X3939496D01*
X3939904Y162569D01*
X3940196Y163007D01*
X3940430Y163475D01*
X3940576Y163883D01*
X3940664Y164263D01*
X3940693Y164584D01*
X3940722Y164701D01*
Y164847D01*
X3940693Y165139D01*
X3940664Y165431D01*
X3940518Y165957D01*
X3940313Y166424D01*
X3940080Y166803D01*
X3939875Y167125D01*
X3939671Y167358D01*
X3939525Y167504D01*
X3939466Y167562D01*
X3939204Y167738D01*
X3938941Y167913D01*
X3938328Y168176D01*
X3937656Y168380D01*
X3937014Y168497D01*
X3936430Y168584D01*
X3936167Y168614D01*
X3935933D01*
X3935758Y168643D01*
D02*
G37*
G36*
X3934415Y153488D02*
X3933772Y153400D01*
X3933188Y153255D01*
X3932692Y153050D01*
X3932283Y152846D01*
X3931933Y152641D01*
X3931699Y152466D01*
X3931553Y152349D01*
X3931495Y152291D01*
X3931115Y151853D01*
X3930852Y151386D01*
X3930648Y150948D01*
X3930531Y150510D01*
X3930444Y150130D01*
X3930414Y149809D01*
X3930385Y149692D01*
Y149546D01*
X3930414Y149225D01*
X3930444Y148904D01*
X3930590Y148349D01*
X3930823Y147852D01*
X3931086Y147415D01*
X3931349Y147093D01*
X3931553Y146831D01*
X3931728Y146685D01*
X3931758Y146626D01*
X3931787D01*
X3932137Y146363D01*
X3932575Y146188D01*
X3933013Y146013D01*
X3933422Y145896D01*
X3933802Y145809D01*
X3934123Y145750D01*
X3934240D01*
X3934327Y145721D01*
X3934386D01*
X3934415D01*
Y153488D01*
D02*
G37*
%LPD*%
D67*
X0Y0D02*
Y1230000D01*
X3920000D01*
Y0D02*
Y1230000D01*
X0Y0D02*
X3920000D01*
D130*
X3064646Y407087D02*
X3064646Y422835D01*
X3056772Y414961D02*
X3072520Y414960D01*
X3917086Y355669D02*
X3917086Y64330D01*
D216*
X2745034Y851818D02*
X2731915D01*
X2729291Y849195D01*
Y843947D01*
X2731915Y841323D01*
X2745034D01*
Y836076D02*
Y825580D01*
X2742410D01*
X2731915Y836076D01*
X2729291D01*
X2699967Y373182D02*
X2713086D01*
X2715710Y370558D01*
Y365310D01*
X2713086Y362687D01*
X2699967D01*
X2715710Y349567D02*
X2699967D01*
X2707838Y357439D01*
Y346944D01*
%TF.MD5,9f355aabb65d973ec26a01641b872d16*%
M02*
