%TF.GenerationSoftware,Altium Limited,Altium Designer,22.2.1 (43)*%
G04 Layer_Color=16711935*
%FSLAX26Y26*%
%MOIN*%
%TF.SameCoordinates,49CA406D-FE3E-4379-A0B2-47437619DC98*%
%TF.FilePolarity,Negative*%
%TF.FileFunction,Soldermask,Bot*%
%TF.Part,Single*%
G01*
G75*
%TA.AperFunction,ComponentPad*%
%ADD55C,0.049213*%
%ADD56R,0.049213X0.049213*%
%ADD57C,0.061024*%
%ADD58R,0.061024X0.061024*%
%TA.AperFunction,SMDPad,CuDef*%
%ADD112R,0.039592X0.015452*%
G04:AMPARAMS|DCode=113|XSize=39.592mil|YSize=15.452mil|CornerRadius=7.726mil|HoleSize=0mil|Usage=FLASHONLY|Rotation=0.000|XOffset=0mil|YOffset=0mil|HoleType=Round|Shape=RoundedRectangle|*
%AMROUNDEDRECTD113*
21,1,0.039592,0.000000,0,0,0.0*
21,1,0.024140,0.015452,0,0,0.0*
1,1,0.015452,0.012070,0.000000*
1,1,0.015452,-0.012070,0.000000*
1,1,0.015452,-0.012070,0.000000*
1,1,0.015452,0.012070,0.000000*
%
%ADD113ROUNDEDRECTD113*%
G04:AMPARAMS|DCode=142|XSize=40.157mil|YSize=28.346mil|CornerRadius=0mil|HoleSize=0mil|Usage=FLASHONLY|Rotation=45.000|XOffset=0mil|YOffset=0mil|HoleType=Round|Shape=Rectangle|*
%AMROTATEDRECTD142*
4,1,4,-0.004176,-0.024220,-0.024220,-0.004176,0.004176,0.024220,0.024220,0.004176,-0.004176,-0.024220,0.0*
%
%ADD142ROTATEDRECTD142*%

%ADD143R,0.028346X0.040157*%
%ADD144R,0.037496X0.068992*%
%ADD145R,0.088677X0.124110*%
%ADD146R,0.038000X0.038000*%
%ADD147R,0.053240X0.057180*%
%ADD148R,0.023323X0.021748*%
%ADD149R,0.021748X0.023323*%
%TA.AperFunction,BGAPad,CuDef*%
%ADD150C,0.015000*%
%TA.AperFunction,SMDPad,CuDef*%
%ADD151R,0.038000X0.038000*%
%ADD152R,0.037496X0.025685*%
%ADD153O,0.084740X0.029622*%
%ADD154R,0.040157X0.028346*%
%ADD155P,0.164383X4X90.0*%
G04:AMPARAMS|DCode=156|XSize=37.496mil|YSize=17.811mil|CornerRadius=0mil|HoleSize=0mil|Usage=FLASHONLY|Rotation=45.000|XOffset=0mil|YOffset=0mil|HoleType=Round|Shape=Rectangle|*
%AMROTATEDRECTD156*
4,1,4,-0.006960,-0.019554,-0.019554,-0.006960,0.006960,0.019554,0.019554,0.006960,-0.006960,-0.019554,0.0*
%
%ADD156ROTATEDRECTD156*%

G04:AMPARAMS|DCode=157|XSize=37.496mil|YSize=17.811mil|CornerRadius=0mil|HoleSize=0mil|Usage=FLASHONLY|Rotation=135.000|XOffset=0mil|YOffset=0mil|HoleType=Round|Shape=Rectangle|*
%AMROTATEDRECTD157*
4,1,4,0.019554,-0.006960,0.006960,-0.019554,-0.019554,0.006960,-0.006960,0.019554,0.019554,-0.006960,0.0*
%
%ADD157ROTATEDRECTD157*%

%ADD158R,0.045370X0.041433*%
%ADD159R,0.096000X0.096000*%
%ADD160R,0.092614X0.053244*%
%ADD161R,0.124110X0.088677*%
%ADD162R,0.068992X0.037496*%
%ADD163R,0.096551X0.096551*%
%ADD164R,0.039465X0.017811*%
%ADD165R,0.017811X0.039465*%
%ADD166R,0.068992X0.068992*%
%ADD167R,0.076000X0.056000*%
%ADD168R,0.056000X0.076000*%
%ADD169R,0.056000X0.106000*%
%ADD170R,0.092614X0.228441*%
%ADD171R,0.021748X0.084740*%
G04:AMPARAMS|DCode=172|XSize=57.575mil|YSize=30.409mil|CornerRadius=6.051mil|HoleSize=0mil|Usage=FLASHONLY|Rotation=270.000|XOffset=0mil|YOffset=0mil|HoleType=Round|Shape=RoundedRectangle|*
%AMROUNDEDRECTD172*
21,1,0.057575,0.018307,0,0,270.0*
21,1,0.045472,0.030409,0,0,270.0*
1,1,0.012102,-0.009153,-0.022736*
1,1,0.012102,-0.009153,0.022736*
1,1,0.012102,0.009153,0.022736*
1,1,0.012102,0.009153,-0.022736*
%
%ADD172ROUNDEDRECTD172*%
%ADD173R,0.080803X0.080803*%
%TA.AperFunction,ConnectorPad*%
%ADD174R,0.080803X0.076866*%
%ADD175R,0.059150X0.021748*%
%TA.AperFunction,SMDPad,CuDef*%
%ADD176C,0.037496*%
%ADD177R,0.037496X0.037496*%
%ADD178R,0.041433X0.037496*%
%ADD179R,0.036221X0.028740*%
%ADD180R,0.036221X0.044488*%
%ADD181R,0.028346X0.028346*%
G04:AMPARAMS|DCode=182|XSize=29.622mil|YSize=45.37mil|CornerRadius=5.008mil|HoleSize=0mil|Usage=FLASHONLY|Rotation=180.000|XOffset=0mil|YOffset=0mil|HoleType=Round|Shape=RoundedRectangle|*
%AMROUNDEDRECTD182*
21,1,0.029622,0.035354,0,0,180.0*
21,1,0.019606,0.045370,0,0,180.0*
1,1,0.010016,-0.009803,0.017677*
1,1,0.010016,0.009803,0.017677*
1,1,0.010016,0.009803,-0.017677*
1,1,0.010016,-0.009803,-0.017677*
%
%ADD182ROUNDEDRECTD182*%
%ADD183R,0.051968X0.154331*%
%ADD184R,0.028346X0.028346*%
%TA.AperFunction,ComponentPad*%
%ADD185R,0.053244X0.053244*%
%ADD186C,0.053244*%
%ADD187R,0.070961X0.070961*%
%ADD188C,0.057181*%
%ADD189C,0.120173*%
%ADD190C,0.033559*%
%ADD191R,0.066000X0.066000*%
%ADD192C,0.066000*%
%TA.AperFunction,ViaPad*%
%ADD193C,0.025685*%
D55*
X1355394Y97008D02*
D03*
X1442008Y97008D02*
D03*
X1528622Y97008D02*
D03*
X1355393Y222992D02*
D03*
X1442008D02*
D03*
X1528622Y222992D02*
D03*
X1654606Y97008D02*
D03*
D56*
X1654607Y222992D02*
D03*
D57*
X161417Y467047D02*
D03*
Y722953D02*
D03*
X338583Y467047D02*
D03*
X161417Y77047D02*
D03*
Y332953D02*
D03*
X338583Y77047D02*
D03*
D58*
Y722953D02*
D03*
Y332953D02*
D03*
D112*
X585619Y965000D02*
D03*
D113*
X664381Y965000D02*
D03*
D142*
X2196901Y700163D02*
D03*
X2233092Y663972D02*
D03*
X1974830Y462234D02*
D03*
X2011020Y426043D02*
D03*
X2153365Y656627D02*
D03*
X2189557Y620437D02*
D03*
D143*
X1174409Y979995D02*
D03*
X1225591D02*
D03*
X780591Y964995D02*
D03*
X729409D02*
D03*
X1822529Y348686D02*
D03*
X1771348Y348685D02*
D03*
X2349380Y345078D02*
D03*
X2298199Y345078D02*
D03*
X3170590Y39995D02*
D03*
X3119410Y39996D02*
D03*
D144*
X2590394Y60197D02*
D03*
X2639606Y60197D02*
D03*
X2050393Y75197D02*
D03*
X2099606Y75197D02*
D03*
D145*
X2490000Y174370D02*
D03*
X2740000Y174370D02*
D03*
X1949999Y189370D02*
D03*
X2200000Y189370D02*
D03*
D146*
X1871265Y284107D02*
D03*
X1871265Y344107D02*
D03*
X2406470Y245500D02*
D03*
X2406469Y305500D02*
D03*
D147*
X1736415Y288167D02*
D03*
X1816415Y288166D02*
D03*
X2266620Y284560D02*
D03*
X2346621Y284560D02*
D03*
D148*
X1751457Y114235D02*
D03*
X1751457Y144155D02*
D03*
X1845514Y114481D02*
D03*
X1845514Y144402D02*
D03*
X2375557Y110874D02*
D03*
X2375555Y140795D02*
D03*
X2279429Y110873D02*
D03*
X2279430Y140794D02*
D03*
D149*
X1783754Y146946D02*
D03*
X1813675Y146945D02*
D03*
X1797093Y236944D02*
D03*
X1827014Y236945D02*
D03*
X2325650Y233339D02*
D03*
X2355572Y233338D02*
D03*
X2312071Y143760D02*
D03*
X2341992Y143759D02*
D03*
D150*
X1820111Y206953D02*
D03*
X1804364Y206953D02*
D03*
X1788616Y206953D02*
D03*
X1820111Y191205D02*
D03*
X1804364Y191205D02*
D03*
X1788616Y191205D02*
D03*
X1820112Y175456D02*
D03*
X1804363Y175458D02*
D03*
X1788615Y175457D02*
D03*
X2350317Y203347D02*
D03*
X2334569Y203346D02*
D03*
X2318821Y203347D02*
D03*
X2350316Y187599D02*
D03*
X2334569Y187598D02*
D03*
X2318821D02*
D03*
X2350317Y171850D02*
D03*
X2334569Y171851D02*
D03*
X2318821D02*
D03*
D151*
X1090001Y550000D02*
D03*
X1150001D02*
D03*
X1090000Y600000D02*
D03*
X1150000D02*
D03*
X3260500Y994357D02*
D03*
X3200500Y994357D02*
D03*
D152*
X863622Y661850D02*
D03*
X863621Y697283D02*
D03*
X863622Y732716D02*
D03*
X863621Y768149D02*
D03*
X816379Y768149D02*
D03*
X816376Y732716D02*
D03*
X816378Y697283D02*
D03*
X816378Y661850D02*
D03*
D153*
X1017165Y900000D02*
D03*
X1017166Y849999D02*
D03*
X1017165Y800001D02*
D03*
X1017166Y750000D02*
D03*
X1017165Y700000D02*
D03*
X1017166Y650001D02*
D03*
X1017166Y600000D02*
D03*
Y550000D02*
D03*
X662835Y900000D02*
D03*
X662835Y850000D02*
D03*
X662834Y800000D02*
D03*
X662835Y750000D02*
D03*
X662834Y700001D02*
D03*
X662835Y650000D02*
D03*
X662835Y600000D02*
D03*
Y550000D02*
D03*
D154*
X585004Y599410D02*
D03*
X585005Y650591D02*
D03*
X1095005Y649409D02*
D03*
Y700591D02*
D03*
X1180005Y229409D02*
D03*
X1180005Y280591D02*
D03*
X3270004Y460591D02*
D03*
X3270005Y409409D02*
D03*
X2494922Y436472D02*
D03*
X2494921Y487653D02*
D03*
D155*
X2013786Y612929D02*
D03*
D156*
X2104262Y633809D02*
D03*
X2090343Y647728D02*
D03*
X2076423Y661648D02*
D03*
X2062504Y675567D02*
D03*
X2048584Y689486D02*
D03*
X2034665Y703406D02*
D03*
X1923310Y592050D02*
D03*
X1937229Y578131D02*
D03*
X1951149Y564212D02*
D03*
X1965068Y550292D02*
D03*
X1978987Y536373D02*
D03*
X1992907Y522453D02*
D03*
D157*
X1992907Y703406D02*
D03*
X1978987Y689486D02*
D03*
X1965068Y675567D02*
D03*
X1951149Y661648D02*
D03*
X1937229Y647728D02*
D03*
X1923310Y633809D02*
D03*
X2034665Y522453D02*
D03*
X2048585Y536373D02*
D03*
X2062504Y550292D02*
D03*
X2076424Y564212D02*
D03*
X2090343Y578131D02*
D03*
X2104262Y592050D02*
D03*
D158*
X1180000Y176496D02*
D03*
X1180000Y113504D02*
D03*
D159*
X1185001Y880002D02*
D03*
X1415000Y880000D02*
D03*
D160*
X1074409Y422481D02*
D03*
X1074409Y343740D02*
D03*
X1074410Y265000D02*
D03*
X1074409Y186260D02*
D03*
X1074409Y107519D02*
D03*
X625591Y107519D02*
D03*
X625590Y186259D02*
D03*
X625591Y265001D02*
D03*
X625591Y343740D02*
D03*
X625591Y422481D02*
D03*
D161*
X2760630Y945000D02*
D03*
X2760630Y695000D02*
D03*
D162*
X2874803Y844606D02*
D03*
X2874803Y795393D02*
D03*
D163*
X3153229Y414961D02*
D03*
X2976063Y414961D02*
D03*
D164*
X3150717Y772575D02*
D03*
X3150717Y792260D02*
D03*
X3150717Y811945D02*
D03*
Y831630D02*
D03*
X3262922Y831630D02*
D03*
X3262922Y811945D02*
D03*
X3262922Y792260D02*
D03*
X3262922Y772575D02*
D03*
D165*
X3196977Y746000D02*
D03*
X3236347Y746000D02*
D03*
X3216662Y746000D02*
D03*
X3177292Y746000D02*
D03*
X3196977Y858205D02*
D03*
X3216662Y858206D02*
D03*
X3236347Y858205D02*
D03*
X3177292Y858205D02*
D03*
D166*
X3206819Y802102D02*
D03*
D167*
X2908579Y512501D02*
D03*
X2908579Y632500D02*
D03*
X3008579Y802500D02*
D03*
X3008579Y922500D02*
D03*
D168*
X3252500Y926421D02*
D03*
X3132500Y926421D02*
D03*
D169*
X3242500Y658579D02*
D03*
X3362500Y658579D02*
D03*
D170*
X3154772Y604221D02*
D03*
X3011229D02*
D03*
D171*
X3417756Y435000D02*
D03*
X3465000Y435000D02*
D03*
X3512245D02*
D03*
D172*
X3120000Y101732D02*
D03*
X3170000Y101732D02*
D03*
X3470000Y318267D02*
D03*
X3419999Y101732D02*
D03*
X3420000Y318268D02*
D03*
X3320001Y318269D02*
D03*
X3470000Y101732D02*
D03*
X3370000Y318267D02*
D03*
X3370000Y101732D02*
D03*
X3319999Y101733D02*
D03*
X3220000Y101733D02*
D03*
X3270000Y318267D02*
D03*
X3219999Y318267D02*
D03*
X3120000Y318268D02*
D03*
X3270000Y101732D02*
D03*
X3170000Y318268D02*
D03*
D173*
X3860000Y257245D02*
D03*
X3860001Y162756D02*
D03*
D174*
X3860000Y367480D02*
D03*
X3860000Y52519D02*
D03*
D175*
X3754685Y261182D02*
D03*
X3754685Y158819D02*
D03*
X3754685Y235591D02*
D03*
X3754685Y210000D02*
D03*
X3754685Y184410D02*
D03*
D176*
X3315000Y970000D02*
D03*
D177*
X3390000Y945042D02*
D03*
Y885042D02*
D03*
D178*
X3524370Y920000D02*
D03*
X3445630Y957402D02*
D03*
Y882598D02*
D03*
D179*
X2499444Y607910D02*
D03*
X2541748Y489370D02*
D03*
X2585812Y545629D02*
D03*
D180*
X2499443Y564997D02*
D03*
X2541747Y532283D02*
D03*
X2585810Y502716D02*
D03*
D181*
X2545038Y441653D02*
D03*
X2584409Y441654D02*
D03*
X2819000Y290827D02*
D03*
X2779630Y290827D02*
D03*
X2585827Y608346D02*
D03*
X2546457Y608346D02*
D03*
D182*
X2668307Y402315D02*
D03*
X2705709Y402315D02*
D03*
X2743111Y402315D02*
D03*
X2743110Y294047D02*
D03*
X2668307Y294047D02*
D03*
D183*
X2765118Y536258D02*
D03*
X2654883Y536258D02*
D03*
D184*
X2582164Y386221D02*
D03*
X2582165Y346851D02*
D03*
X2499111Y346889D02*
D03*
X2499111Y386260D02*
D03*
X2540472Y346851D02*
D03*
X2540471Y386221D02*
D03*
D185*
X3220000Y1050000D02*
D03*
D186*
X3141260Y1050000D02*
D03*
X2983779Y1050000D02*
D03*
X2905040D02*
D03*
X2826299Y1050000D02*
D03*
X2747559Y1050000D02*
D03*
X2668819Y1050000D02*
D03*
X2590078Y1050001D02*
D03*
X2511338Y1050000D02*
D03*
X2432599Y1050000D02*
D03*
X2353858Y1050000D02*
D03*
X2275118Y1050000D02*
D03*
X2196377D02*
D03*
X2117637D02*
D03*
X2038898Y1050001D02*
D03*
X1960157Y1050000D02*
D03*
X1881417Y1050001D02*
D03*
X1802677Y1050000D02*
D03*
X1723936Y1049999D02*
D03*
X1645196D02*
D03*
X1566456Y1050000D02*
D03*
X1487716Y1050000D02*
D03*
X1408976Y1050000D02*
D03*
X1330235Y1050000D02*
D03*
X1251495Y1050000D02*
D03*
X1172756Y1050000D02*
D03*
X1094015Y1050001D02*
D03*
X1015275Y1050000D02*
D03*
X936534D02*
D03*
X857795Y1050000D02*
D03*
X779054Y1049999D02*
D03*
X621574Y1050000D02*
D03*
X542834Y1050001D02*
D03*
D187*
X1288150Y580000D02*
D03*
D188*
X1681851Y579999D02*
D03*
D189*
X460000Y100000D02*
D03*
D190*
X3763544Y291693D02*
D03*
X3763543Y128307D02*
D03*
D191*
X1690000Y915000D02*
D03*
D192*
X1790000D02*
D03*
X1890000Y914999D02*
D03*
X1990000Y915000D02*
D03*
X2090000Y915000D02*
D03*
X2190000Y915000D02*
D03*
D193*
X3755000Y873485D02*
D03*
X3794370Y873485D02*
D03*
X3833740Y873484D02*
D03*
X3676260Y873485D02*
D03*
X3715629Y873484D02*
D03*
X3755000Y991594D02*
D03*
X3833740Y991594D02*
D03*
X3715630Y991593D02*
D03*
X3676259Y991595D02*
D03*
X3794370Y991595D02*
D03*
X3715631Y912855D02*
D03*
X3676259Y912854D02*
D03*
X3833740Y912854D02*
D03*
X3794370D02*
D03*
X3755001Y912854D02*
D03*
X3794370Y952225D02*
D03*
X3676260Y952225D02*
D03*
X3715630Y952224D02*
D03*
X3833740Y952225D02*
D03*
X3755001Y952224D02*
D03*
%TF.MD5,d4936e0380880b8d60db96ed5b26d709*%
M02*
