%TF.GenerationSoftware,Altium Limited,Altium Designer,22.2.1 (43)*%
G04 Layer_Physical_Order=2*
G04 Layer_Color=32768*
%FSLAX26Y26*%
%MOIN*%
%TF.SameCoordinates,49CA406D-FE3E-4379-A0B2-47437619DC98*%
%TF.FilePolarity,Negative*%
%TF.FileFunction,Copper,L2,Inr,Plane*%
%TF.Part,Single*%
G01*
G75*
%TA.AperFunction,ViaPad*%
%ADD64C,0.028000*%
%TA.AperFunction,NonConductor*%
%ADD67C,0.020000*%
%ADD68C,0.040000*%
%TA.AperFunction,ComponentPad*%
%ADD69C,0.047496*%
%ADD70C,0.061276*%
%ADD71C,0.091000*%
%ADD72C,0.043559*%
%ADD73C,0.051000*%
%ADD74C,0.045528*%
%ADD75C,0.055370*%
%TA.AperFunction,ViaPad*%
%ADD76C,0.134110*%
%ADD77C,0.031000*%
%ADD78C,0.044000*%
%ADD79C,0.023874*%
D64*
X2720000Y595000D02*
D03*
X2695000D02*
D03*
X3270000Y570000D02*
D03*
X3230000D02*
D03*
X1844608Y348686D02*
D03*
X2394922Y345078D02*
D03*
X2805000Y585000D02*
D03*
X1880000Y465000D02*
D03*
X2126924Y711924D02*
D03*
X2805000Y495000D02*
D03*
Y535000D02*
D03*
X3645000Y315000D02*
D03*
X3580000Y315000D02*
D03*
X3645000Y275000D02*
D03*
X3580000D02*
D03*
D67*
X2455000Y15000D02*
Y320000D01*
X2210000D02*
X2455000D01*
X2210000Y180000D02*
Y320000D01*
X1900000Y180000D02*
X2210000D01*
X1900000D02*
Y325000D01*
X1695000D02*
X1900000D01*
X1695000Y175000D02*
Y325000D01*
X1605000Y175000D02*
X1695000D01*
X1605000D02*
Y260000D01*
X1125000D02*
X1605000D01*
X1125000D02*
Y485000D01*
X550000D02*
X1125000D01*
X550000Y195000D02*
Y485000D01*
X385000Y195000D02*
X550000D01*
X385000Y15000D02*
Y195000D01*
D68*
X0Y0D02*
Y1230000D01*
X3920000D01*
Y0D02*
Y1230000D01*
X0Y0D02*
X3920000D01*
D69*
X2983779Y1050000D02*
D03*
X2905040D02*
D03*
X2826299Y1050000D02*
D03*
X2747559Y1050000D02*
D03*
X2668819Y1050000D02*
D03*
X2590078Y1050001D02*
D03*
X2432599Y1050000D02*
D03*
X2353858Y1050000D02*
D03*
X2275118Y1050000D02*
D03*
X2196377D02*
D03*
X2117637D02*
D03*
X2038898Y1050001D02*
D03*
X1960157Y1050000D02*
D03*
X1881417Y1050001D02*
D03*
X1802677Y1050000D02*
D03*
X1723936Y1049999D02*
D03*
X1645196D02*
D03*
X1566456Y1050000D02*
D03*
X1487716Y1050000D02*
D03*
X1408976Y1050000D02*
D03*
X1330235Y1050000D02*
D03*
X1251495Y1050000D02*
D03*
X1172756Y1050000D02*
D03*
X1094015Y1050001D02*
D03*
X1015275Y1050000D02*
D03*
X936534D02*
D03*
X621574Y1050000D02*
D03*
X542834Y1050001D02*
D03*
D70*
X1288150Y580000D02*
D03*
D71*
X460000Y100000D02*
D03*
D72*
X3763544Y291693D02*
D03*
X3763543Y128307D02*
D03*
D73*
X1690000Y915000D02*
D03*
X1790000D02*
D03*
X1890000Y914999D02*
D03*
X1990000Y915000D02*
D03*
X2190000Y915000D02*
D03*
D74*
X1355394Y97008D02*
D03*
X1442008Y97008D02*
D03*
X1528622Y97008D02*
D03*
X1355393Y222992D02*
D03*
X1442008D02*
D03*
X1528622Y222992D02*
D03*
X1654606Y97008D02*
D03*
D75*
X161417Y722953D02*
D03*
X338583Y467047D02*
D03*
Y722953D02*
D03*
X161417Y332953D02*
D03*
X338583Y77047D02*
D03*
Y332953D02*
D03*
D76*
X137795Y1102362D02*
D03*
X3602362Y110236D02*
D03*
D77*
X755000Y670000D02*
D03*
X777716Y732716D02*
D03*
X1125000Y475000D02*
D03*
X1873358Y103358D02*
D03*
X1871265Y241265D02*
D03*
X2405000Y205000D02*
D03*
X2341992Y113008D02*
D03*
X2230000Y735000D02*
D03*
X3270000Y510000D02*
D03*
X3236246Y508754D02*
D03*
X2111245Y328755D02*
D03*
X2260000Y205000D02*
D03*
X1890000Y60000D02*
D03*
X2625000Y295000D02*
D03*
X2645000Y1005000D02*
D03*
X2590000Y950000D02*
D03*
X2084756Y499756D02*
D03*
X3075004Y39996D02*
D03*
X3310000Y850000D02*
D03*
X1160000Y365000D02*
D03*
X718741Y186259D02*
D03*
X720000Y265000D02*
D03*
X2450000Y595000D02*
D03*
X3315000Y905000D02*
D03*
X1880000Y500000D02*
D03*
X1935000Y492385D02*
D03*
X1960834Y489451D02*
D03*
X2250000Y430000D02*
D03*
X2045000Y390445D02*
D03*
X2073920Y391080D02*
D03*
X2933247Y943247D02*
D03*
X745000Y905000D02*
D03*
X1775000Y780000D02*
D03*
X400000Y940000D02*
D03*
X1160000Y445000D02*
D03*
X2110000Y750902D02*
D03*
X2085000Y775000D02*
D03*
X238504Y883504D02*
D03*
X920000Y630000D02*
D03*
X2250000Y385000D02*
D03*
X1935000Y345000D02*
D03*
X2000000D02*
D03*
X950000Y650000D02*
D03*
X863622Y598622D02*
D03*
X1335000Y700000D02*
D03*
X1224409Y229409D02*
D03*
X585005Y565005D02*
D03*
X1150000Y500000D02*
D03*
X863358Y496642D02*
D03*
X3780000Y480000D02*
D03*
X3720000D02*
D03*
D78*
X3525000Y975000D02*
D03*
D79*
X3755000Y873485D02*
D03*
X3794370Y873485D02*
D03*
X3833740Y873484D02*
D03*
X3676260Y873485D02*
D03*
X3715629Y873484D02*
D03*
X3755000Y991594D02*
D03*
X3833740Y991594D02*
D03*
X3715630Y991593D02*
D03*
X3676259Y991595D02*
D03*
X3794370Y991595D02*
D03*
X3715631Y912855D02*
D03*
X3676259Y912854D02*
D03*
X3833740Y912854D02*
D03*
X3794370D02*
D03*
X3755001Y912854D02*
D03*
X3794370Y952225D02*
D03*
X3676260Y952225D02*
D03*
X3715630Y952224D02*
D03*
X3833740Y952225D02*
D03*
X3755001Y952224D02*
D03*
%TF.MD5,3e930f941b65af101dcbd469f4e44319*%
M02*
