%TF.GenerationSoftware,Altium Limited,Altium Designer,22.2.1 (43)*%
G04 Layer_Color=255*
%FSLAX26Y26*%
%MOIN*%
%TF.SameCoordinates,49CA406D-FE3E-4379-A0B2-47437619DC98*%
%TF.FilePolarity,Positive*%
%TF.FileFunction,Pads,Bot*%
%TF.Part,Single*%
G01*
G75*
%TA.AperFunction,SMDPad,CuDef*%
%ADD11R,0.035433X0.023622*%
%ADD17R,0.023622X0.035433*%
%ADD21C,0.031496*%
%ADD23R,0.032000X0.032000*%
%ADD28R,0.017323X0.015748*%
G04:AMPARAMS|DCode=30|XSize=23.622mil|YSize=39.37mil|CornerRadius=2.008mil|HoleSize=0mil|Usage=FLASHONLY|Rotation=0.000|XOffset=0mil|YOffset=0mil|HoleType=Round|Shape=RoundedRectangle|*
%AMROUNDEDRECTD30*
21,1,0.023622,0.035354,0,0,0.0*
21,1,0.019606,0.039370,0,0,0.0*
1,1,0.004016,0.009803,-0.017677*
1,1,0.004016,-0.009803,-0.017677*
1,1,0.004016,-0.009803,0.017677*
1,1,0.004016,0.009803,0.017677*
%
%ADD30ROUNDEDRECTD30*%
%TA.AperFunction,ComponentPad*%
%ADD47R,0.047244X0.047244*%
%ADD48C,0.047244*%
%ADD49R,0.064961X0.064961*%
%ADD50C,0.051181*%
%ADD51C,0.114173*%
%ADD52C,0.027559*%
%ADD53R,0.060000X0.060000*%
%ADD54C,0.060000*%
%ADD55C,0.049213*%
%ADD56R,0.049213X0.049213*%
%ADD57C,0.061024*%
%ADD58R,0.061024X0.061024*%
%TA.AperFunction,SMDPad,CuDef*%
G04:AMPARAMS|DCode=80|XSize=35.433mil|YSize=23.622mil|CornerRadius=0mil|HoleSize=0mil|Usage=FLASHONLY|Rotation=45.000|XOffset=0mil|YOffset=0mil|HoleType=Round|Shape=Rectangle|*
%AMROTATEDRECTD80*
4,1,4,-0.004176,-0.020879,-0.020879,-0.004176,0.004176,0.020879,0.020879,0.004176,-0.004176,-0.020879,0.0*
%
%ADD80ROTATEDRECTD80*%

%ADD81R,0.031496X0.062992*%
%ADD82R,0.082677X0.118110*%
%ADD83R,0.047240X0.051180*%
%ADD84R,0.015748X0.017323*%
%TA.AperFunction,BGAPad,CuDef*%
%ADD85C,0.009000*%
%TA.AperFunction,SMDPad,CuDef*%
%ADD86R,0.032000X0.032000*%
%ADD87R,0.031496X0.019685*%
%ADD88O,0.078740X0.023622*%
%ADD89P,0.155898X4X90.0*%
G04:AMPARAMS|DCode=90|XSize=31.496mil|YSize=11.811mil|CornerRadius=0mil|HoleSize=0mil|Usage=FLASHONLY|Rotation=45.000|XOffset=0mil|YOffset=0mil|HoleType=Round|Shape=Rectangle|*
%AMROTATEDRECTD90*
4,1,4,-0.006960,-0.015311,-0.015311,-0.006960,0.006960,0.015311,0.015311,0.006960,-0.006960,-0.015311,0.0*
%
%ADD90ROTATEDRECTD90*%

G04:AMPARAMS|DCode=91|XSize=31.496mil|YSize=11.811mil|CornerRadius=0mil|HoleSize=0mil|Usage=FLASHONLY|Rotation=135.000|XOffset=0mil|YOffset=0mil|HoleType=Round|Shape=Rectangle|*
%AMROTATEDRECTD91*
4,1,4,0.015311,-0.006960,0.006960,-0.015311,-0.015311,0.006960,-0.006960,0.015311,0.015311,-0.006960,0.0*
%
%ADD91ROTATEDRECTD91*%

%ADD92R,0.039370X0.035433*%
%ADD93R,0.090000X0.090000*%
%ADD94R,0.086614X0.047244*%
%ADD95R,0.118110X0.082677*%
%ADD96R,0.062992X0.031496*%
%ADD97R,0.090551X0.090551*%
%ADD98R,0.033465X0.011811*%
%ADD99R,0.011811X0.033465*%
%ADD100R,0.062992X0.062992*%
%ADD101R,0.070000X0.050000*%
%ADD102R,0.050000X0.070000*%
%ADD103R,0.050000X0.100000*%
%ADD104R,0.086614X0.222441*%
%ADD105R,0.015748X0.078740*%
G04:AMPARAMS|DCode=106|XSize=51.575mil|YSize=24.409mil|CornerRadius=3.051mil|HoleSize=0mil|Usage=FLASHONLY|Rotation=270.000|XOffset=0mil|YOffset=0mil|HoleType=Round|Shape=RoundedRectangle|*
%AMROUNDEDRECTD106*
21,1,0.051575,0.018307,0,0,270.0*
21,1,0.045472,0.024409,0,0,270.0*
1,1,0.006102,-0.009153,-0.022736*
1,1,0.006102,-0.009153,0.022736*
1,1,0.006102,0.009153,0.022736*
1,1,0.006102,0.009153,-0.022736*
%
%ADD106ROUNDEDRECTD106*%
%ADD107R,0.074803X0.074803*%
%TA.AperFunction,ConnectorPad*%
%ADD108R,0.074803X0.070866*%
%ADD109R,0.053150X0.015748*%
%TA.AperFunction,SMDPad,CuDef*%
%ADD110R,0.031496X0.031496*%
%ADD111R,0.035433X0.031496*%
%ADD112R,0.039592X0.015452*%
G04:AMPARAMS|DCode=113|XSize=39.592mil|YSize=15.452mil|CornerRadius=7.726mil|HoleSize=0mil|Usage=FLASHONLY|Rotation=0.000|XOffset=0mil|YOffset=0mil|HoleType=Round|Shape=RoundedRectangle|*
%AMROUNDEDRECTD113*
21,1,0.039592,0.000000,0,0,0.0*
21,1,0.024140,0.015452,0,0,0.0*
1,1,0.015452,0.012070,0.000000*
1,1,0.015452,-0.012070,0.000000*
1,1,0.015452,-0.012070,0.000000*
1,1,0.015452,0.012070,0.000000*
%
%ADD113ROUNDEDRECTD113*%
%ADD114R,0.031496X0.024016*%
%ADD115R,0.031496X0.039764*%
%ADD116R,0.023622X0.023622*%
%ADD117R,0.047244X0.149606*%
%ADD118R,0.023622X0.023622*%
D11*
X585004Y599410D02*
D03*
X585005Y650591D02*
D03*
X1095005Y649409D02*
D03*
Y700591D02*
D03*
X1180005Y229409D02*
D03*
X1180005Y280591D02*
D03*
X3270004Y460591D02*
D03*
X3270005Y409409D02*
D03*
X2494922Y436472D02*
D03*
X2494921Y487653D02*
D03*
D17*
X1174409Y979995D02*
D03*
X1225591D02*
D03*
X780591Y964995D02*
D03*
X729409D02*
D03*
X1822529Y348686D02*
D03*
X1771348Y348685D02*
D03*
X2349380Y345078D02*
D03*
X2298199Y345078D02*
D03*
X3170590Y39995D02*
D03*
X3119410Y39996D02*
D03*
D21*
X3315000Y970000D02*
D03*
D23*
X1871265Y284107D02*
D03*
X1871265Y344107D02*
D03*
X2406470Y245500D02*
D03*
X2406469Y305500D02*
D03*
D28*
X1751457Y114235D02*
D03*
X1751457Y144155D02*
D03*
X1845514Y114481D02*
D03*
X1845514Y144402D02*
D03*
X2375557Y110874D02*
D03*
X2375555Y140795D02*
D03*
X2279429Y110873D02*
D03*
X2279430Y140794D02*
D03*
D30*
X2668307Y402315D02*
D03*
X2705709Y402315D02*
D03*
X2743111Y402315D02*
D03*
X2743110Y294047D02*
D03*
X2668307Y294047D02*
D03*
D47*
X3220000Y1050000D02*
D03*
D48*
X3141260Y1050000D02*
D03*
X2983779Y1050000D02*
D03*
X2905040D02*
D03*
X2826299Y1050000D02*
D03*
X2747559Y1050000D02*
D03*
X2668819Y1050000D02*
D03*
X2590078Y1050001D02*
D03*
X2511338Y1050000D02*
D03*
X2432599Y1050000D02*
D03*
X2353858Y1050000D02*
D03*
X2275118Y1050000D02*
D03*
X2196377D02*
D03*
X2117637D02*
D03*
X2038898Y1050001D02*
D03*
X1960157Y1050000D02*
D03*
X1881417Y1050001D02*
D03*
X1802677Y1050000D02*
D03*
X1723936Y1049999D02*
D03*
X1645196D02*
D03*
X1566456Y1050000D02*
D03*
X1487716Y1050000D02*
D03*
X1408976Y1050000D02*
D03*
X1330235Y1050000D02*
D03*
X1251495Y1050000D02*
D03*
X1172756Y1050000D02*
D03*
X1094015Y1050001D02*
D03*
X1015275Y1050000D02*
D03*
X936534D02*
D03*
X857795Y1050000D02*
D03*
X779054Y1049999D02*
D03*
X621574Y1050000D02*
D03*
X542834Y1050001D02*
D03*
D49*
X1288150Y580000D02*
D03*
D50*
X1681851Y579999D02*
D03*
D51*
X460000Y100000D02*
D03*
D52*
X3763544Y291693D02*
D03*
X3763543Y128307D02*
D03*
D53*
X1690000Y915000D02*
D03*
D54*
X1790000D02*
D03*
X1890000Y914999D02*
D03*
X1990000Y915000D02*
D03*
X2090000Y915000D02*
D03*
X2190000Y915000D02*
D03*
D55*
X1355394Y97008D02*
D03*
X1442008Y97008D02*
D03*
X1528622Y97008D02*
D03*
X1355393Y222992D02*
D03*
X1442008D02*
D03*
X1528622Y222992D02*
D03*
X1654606Y97008D02*
D03*
D56*
X1654607Y222992D02*
D03*
D57*
X161417Y467047D02*
D03*
Y722953D02*
D03*
X338583Y467047D02*
D03*
X161417Y77047D02*
D03*
Y332953D02*
D03*
X338583Y77047D02*
D03*
D58*
Y722953D02*
D03*
Y332953D02*
D03*
D80*
X2196901Y700163D02*
D03*
X2233092Y663972D02*
D03*
X1974830Y462234D02*
D03*
X2011020Y426043D02*
D03*
X2153365Y656627D02*
D03*
X2189557Y620437D02*
D03*
D81*
X2590394Y60197D02*
D03*
X2639606Y60197D02*
D03*
X2050393Y75197D02*
D03*
X2099606Y75197D02*
D03*
D82*
X2490000Y174370D02*
D03*
X2740000Y174370D02*
D03*
X1949999Y189370D02*
D03*
X2200000Y189370D02*
D03*
D83*
X1736415Y288167D02*
D03*
X1816415Y288166D02*
D03*
X2266620Y284560D02*
D03*
X2346621Y284560D02*
D03*
D84*
X1783754Y146946D02*
D03*
X1813675Y146945D02*
D03*
X1797093Y236944D02*
D03*
X1827014Y236945D02*
D03*
X2325650Y233339D02*
D03*
X2355572Y233338D02*
D03*
X2312071Y143760D02*
D03*
X2341992Y143759D02*
D03*
D85*
X1820111Y206953D02*
D03*
X1804364Y206953D02*
D03*
X1788616Y206953D02*
D03*
X1820111Y191205D02*
D03*
X1804364Y191205D02*
D03*
X1788616Y191205D02*
D03*
X1820112Y175456D02*
D03*
X1804363Y175458D02*
D03*
X1788615Y175457D02*
D03*
X2350317Y203347D02*
D03*
X2334569Y203346D02*
D03*
X2318821Y203347D02*
D03*
X2350316Y187599D02*
D03*
X2334569Y187598D02*
D03*
X2318821D02*
D03*
X2350317Y171850D02*
D03*
X2334569Y171851D02*
D03*
X2318821D02*
D03*
D86*
X1090001Y550000D02*
D03*
X1150001D02*
D03*
X1090000Y600000D02*
D03*
X1150000D02*
D03*
X3260500Y994357D02*
D03*
X3200500Y994357D02*
D03*
D87*
X863622Y661850D02*
D03*
X863621Y697283D02*
D03*
X863622Y732716D02*
D03*
X863621Y768149D02*
D03*
X816379Y768149D02*
D03*
X816376Y732716D02*
D03*
X816378Y697283D02*
D03*
X816378Y661850D02*
D03*
D88*
X1017165Y900000D02*
D03*
X1017166Y849999D02*
D03*
X1017165Y800001D02*
D03*
X1017166Y750000D02*
D03*
X1017165Y700000D02*
D03*
X1017166Y650001D02*
D03*
X1017166Y600000D02*
D03*
Y550000D02*
D03*
X662835Y900000D02*
D03*
X662835Y850000D02*
D03*
X662834Y800000D02*
D03*
X662835Y750000D02*
D03*
X662834Y700001D02*
D03*
X662835Y650000D02*
D03*
X662835Y600000D02*
D03*
Y550000D02*
D03*
D89*
X2013786Y612929D02*
D03*
D90*
X2104262Y633809D02*
D03*
X2090343Y647728D02*
D03*
X2076423Y661648D02*
D03*
X2062504Y675567D02*
D03*
X2048584Y689486D02*
D03*
X2034665Y703406D02*
D03*
X1923310Y592050D02*
D03*
X1937229Y578131D02*
D03*
X1951149Y564212D02*
D03*
X1965068Y550292D02*
D03*
X1978987Y536373D02*
D03*
X1992907Y522453D02*
D03*
D91*
X1992907Y703406D02*
D03*
X1978987Y689486D02*
D03*
X1965068Y675567D02*
D03*
X1951149Y661648D02*
D03*
X1937229Y647728D02*
D03*
X1923310Y633809D02*
D03*
X2034665Y522453D02*
D03*
X2048585Y536373D02*
D03*
X2062504Y550292D02*
D03*
X2076424Y564212D02*
D03*
X2090343Y578131D02*
D03*
X2104262Y592050D02*
D03*
D92*
X1180000Y176496D02*
D03*
X1180000Y113504D02*
D03*
D93*
X1185001Y880002D02*
D03*
X1415000Y880000D02*
D03*
D94*
X1074409Y422481D02*
D03*
X1074409Y343740D02*
D03*
X1074410Y265000D02*
D03*
X1074409Y186260D02*
D03*
X1074409Y107519D02*
D03*
X625591Y107519D02*
D03*
X625590Y186259D02*
D03*
X625591Y265001D02*
D03*
X625591Y343740D02*
D03*
X625591Y422481D02*
D03*
D95*
X2760630Y945000D02*
D03*
X2760630Y695000D02*
D03*
D96*
X2874803Y844606D02*
D03*
X2874803Y795393D02*
D03*
D97*
X3153229Y414961D02*
D03*
X2976063Y414961D02*
D03*
D98*
X3150717Y772575D02*
D03*
X3150717Y792260D02*
D03*
X3150717Y811945D02*
D03*
Y831630D02*
D03*
X3262922Y831630D02*
D03*
X3262922Y811945D02*
D03*
X3262922Y792260D02*
D03*
X3262922Y772575D02*
D03*
D99*
X3196977Y746000D02*
D03*
X3236347Y746000D02*
D03*
X3216662Y746000D02*
D03*
X3177292Y746000D02*
D03*
X3196977Y858205D02*
D03*
X3216662Y858206D02*
D03*
X3236347Y858205D02*
D03*
X3177292Y858205D02*
D03*
D100*
X3206819Y802102D02*
D03*
D101*
X2908579Y512501D02*
D03*
X2908579Y632500D02*
D03*
X3008579Y802500D02*
D03*
X3008579Y922500D02*
D03*
D102*
X3252500Y926421D02*
D03*
X3132500Y926421D02*
D03*
D103*
X3242500Y658579D02*
D03*
X3362500Y658579D02*
D03*
D104*
X3154772Y604221D02*
D03*
X3011229D02*
D03*
D105*
X3417756Y435000D02*
D03*
X3465000Y435000D02*
D03*
X3512245D02*
D03*
D106*
X3120000Y101732D02*
D03*
X3170000Y101732D02*
D03*
X3470000Y318267D02*
D03*
X3419999Y101732D02*
D03*
X3420000Y318268D02*
D03*
X3320001Y318269D02*
D03*
X3470000Y101732D02*
D03*
X3370000Y318267D02*
D03*
X3370000Y101732D02*
D03*
X3319999Y101733D02*
D03*
X3220000Y101733D02*
D03*
X3270000Y318267D02*
D03*
X3219999Y318267D02*
D03*
X3120000Y318268D02*
D03*
X3270000Y101732D02*
D03*
X3170000Y318268D02*
D03*
D107*
X3860000Y257245D02*
D03*
X3860001Y162756D02*
D03*
D108*
X3860000Y367480D02*
D03*
X3860000Y52519D02*
D03*
D109*
X3754685Y261182D02*
D03*
X3754685Y158819D02*
D03*
X3754685Y235591D02*
D03*
X3754685Y210000D02*
D03*
X3754685Y184410D02*
D03*
D110*
X3390000Y945042D02*
D03*
Y885042D02*
D03*
D111*
X3524370Y920000D02*
D03*
X3445630Y957402D02*
D03*
Y882598D02*
D03*
D112*
X585619Y965000D02*
D03*
D113*
X664381Y965000D02*
D03*
D114*
X2499444Y607910D02*
D03*
X2541748Y489370D02*
D03*
X2585812Y545629D02*
D03*
D115*
X2499443Y564997D02*
D03*
X2541747Y532283D02*
D03*
X2585810Y502716D02*
D03*
D116*
X2545038Y441653D02*
D03*
X2584409Y441654D02*
D03*
X2819000Y290827D02*
D03*
X2779630Y290827D02*
D03*
X2585827Y608346D02*
D03*
X2546457Y608346D02*
D03*
D117*
X2765118Y536258D02*
D03*
X2654883Y536258D02*
D03*
D118*
X2582164Y386221D02*
D03*
X2582165Y346851D02*
D03*
X2499111Y346889D02*
D03*
X2499111Y386260D02*
D03*
X2540472Y346851D02*
D03*
X2540471Y386221D02*
D03*
%TF.MD5,c86d7829b44e1917ccad9515e2d55c77*%
M02*
