%TF.GenerationSoftware,Altium Limited,Altium Designer,22.2.1 (43)*%
G04 Layer_Color=32768*
%FSLAX26Y26*%
%MOIN*%
%TF.SameCoordinates,49CA406D-FE3E-4379-A0B2-47437619DC98*%
%TF.FilePolarity,Positive*%
%TF.FileFunction,Other,Mechanical_15*%
%TF.Part,Single*%
G01*
G75*
%TA.AperFunction,NonConductor*%
%ADD130C,0.003937*%
%ADD137C,0.004000*%
%ADD138C,0.010000*%
%ADD217C,0.001000*%
%ADD218C,0.001968*%
%ADD219C,0.002000*%
D130*
X2168619Y694984D02*
X2201635Y728000D01*
X2168619Y694984D02*
X2228177Y635426D01*
X2201635Y728000D02*
X2261193Y668441D01*
X2228177Y635426D02*
X2261193Y668441D01*
X1158074Y956334D02*
Y1003026D01*
Y956334D02*
X1242301D01*
X1158074Y1003026D02*
X1242301D01*
Y956334D02*
Y1003026D01*
X1021299Y955000D02*
X1058701D01*
X1040000Y936299D02*
Y973701D01*
X1171299Y955000D02*
X1208701D01*
X1190000Y936299D02*
Y973701D01*
X1091974Y971926D02*
X1138666Y971926D01*
X1138666Y887699D01*
X1091974Y971926D02*
X1091974Y887699D01*
X1138666Y887699D01*
X797301Y941334D02*
Y988026D01*
X713074D02*
X797301D01*
X713074Y941334D02*
X797301D01*
X713074D02*
Y988026D01*
X2633189Y880000D02*
X2656811D01*
X2645000Y868189D02*
Y891811D01*
X2575000Y871811D02*
X2575000Y848189D01*
X2563189Y860000D02*
X2586811Y860000D01*
X2409292Y-26418D02*
X2820709Y-26418D01*
X2820708Y296417D02*
X2820709Y-26418D01*
X2409291Y296418D02*
X2820708Y296417D01*
X2409291Y296418D02*
X2409292Y-26418D01*
X1869291Y-11417D02*
X2280708Y-11418D01*
X2280709Y311418D01*
X1869291Y311417D02*
X2280709Y311418D01*
X1869291Y-11417D02*
X1869291Y311417D01*
X1745551Y129195D02*
X1757362Y129195D01*
X1751456Y123290D02*
X1751457Y135101D01*
X1839608Y129442D02*
X1851419Y129442D01*
X1845514Y123536D02*
X1845514Y135348D01*
X1798715Y152851D02*
X1798715Y141040D01*
X1792809Y146945D02*
X1804620Y146946D01*
X1838866Y372346D02*
X1838866Y325655D01*
X1754638Y372346D02*
X1838866Y372346D01*
X1754639Y325656D02*
X1838866Y325655D01*
X1754638Y372346D02*
X1754639Y325656D01*
X1812053Y231039D02*
X1812054Y242851D01*
X1806147Y236945D02*
X1817959Y236945D01*
X2340612Y239244D02*
X2340612Y227433D01*
X2334707Y233339D02*
X2346517Y233339D01*
X2369652Y125835D02*
X2381462Y125835D01*
X2375557Y131739D02*
X2375557Y119928D01*
X2327031Y137855D02*
X2327032Y149665D01*
X2321126Y143760D02*
X2332937Y143760D01*
X2365715Y368739D02*
X2365716Y322048D01*
X2281488Y368740D02*
X2365715Y368739D01*
X2281488Y322048D02*
X2365716D01*
X2281488Y368740D02*
X2281488Y322048D01*
X2273526Y125834D02*
X2285336Y125834D01*
X2279430Y131739D02*
X2279430Y119928D01*
X1946548Y457055D02*
X1979564Y490070D01*
X1946548Y457055D02*
X2006106Y397497D01*
X1979564Y490070D02*
X2039122Y430513D01*
X2006106Y397497D02*
X2039122Y430513D01*
X2125084Y651448D02*
X2158099Y684463D01*
X2125084Y651448D02*
X2184641Y591891D01*
X2158099Y684463D02*
X2217657Y624906D01*
X2184641Y591891D02*
X2217657Y624906D01*
X2142284Y430000D02*
X2177718D01*
X2160000Y412284D02*
X2160000Y447717D01*
X761260Y612637D02*
X918740Y612638D01*
X761259Y817362D02*
X761260Y612637D01*
X761259Y817362D02*
X918740Y817362D01*
X918740Y612638D02*
X918740Y817362D01*
X840000Y744685D02*
X840001Y705315D01*
X820315Y725000D02*
X859684Y725000D01*
X561974Y583074D02*
X608666Y583073D01*
X608666Y667301D02*
X608666Y583073D01*
X561974Y583074D02*
X561974Y667300D01*
X608666Y667301D01*
X1071974Y633074D02*
X1118665Y633073D01*
X1118666Y717301D01*
X1071974Y633074D02*
X1071975Y717301D01*
X1118666Y717301D01*
X1465314Y580000D02*
X1504685Y580001D01*
X1485000Y599684D02*
X1485000Y560315D01*
X1156975Y213074D02*
X1203666Y213074D01*
X1203666Y297301D02*
X1203666Y213074D01*
X1156974Y297301D02*
X1156975Y213074D01*
X1156974Y297301D02*
X1203666Y297301D01*
X3408073Y318665D02*
X3408074Y271975D01*
X3408073Y318665D02*
X3492300Y318665D01*
X3408074Y271975D02*
X3492300Y271974D01*
X3492300Y318665D02*
X3492300Y271974D01*
X830315Y265000D02*
X869686Y265000D01*
X850000Y284685D02*
X850000Y245315D01*
X2638582Y614291D02*
X2961418Y614291D01*
X2638582Y1025708D02*
X2638582Y614291D01*
X2638582Y1025708D02*
X2961417Y1025709D01*
X2961418Y614291D01*
X3083000Y623906D02*
X3083000Y584536D01*
X3063315Y604221D02*
X3102686Y604221D01*
X3187301Y63025D02*
X3187301Y16334D01*
X3103074Y63026D02*
X3187301Y63025D01*
X3103073Y16335D02*
X3187301Y16334D01*
X3103073Y16335D02*
X3103074Y63026D01*
X3246975Y477301D02*
X3293666Y477301D01*
X3246974Y393074D02*
X3246975Y477301D01*
X3293666Y393074D02*
X3293666Y477301D01*
X3246974Y393074D02*
X3293666Y393074D01*
X3465000Y415315D02*
X3465000Y454685D01*
X3445315Y435000D02*
X3484685Y435000D01*
X3735315Y960000D02*
X3774683Y960000D01*
X3754999Y940314D02*
X3755000Y979686D01*
X3485000Y900315D02*
X3485000Y939685D01*
X3465315Y920000D02*
X3504685Y920000D01*
X3777235Y377323D02*
Y397008D01*
X3767393Y387166D02*
X3787078D01*
X2652246Y719622D02*
X2652247Y731433D01*
X2646341Y725528D02*
X2658152Y725528D01*
X2619701Y731470D02*
X2619701Y719659D01*
X2613795Y725564D02*
X2625607Y725564D01*
X2651898Y799622D02*
X2651898Y811433D01*
X2645992Y805529D02*
X2657803Y805528D01*
X2719606Y826819D02*
X2758977Y826819D01*
X2739291Y807134D02*
X2739291Y846504D01*
X2471261Y419762D02*
X2517952Y419762D01*
X2517952Y503990D02*
X2517952Y419762D01*
X2471261Y419762D02*
X2471261Y503989D01*
X2517952Y503990D01*
X2600660Y423144D02*
X2600660Y460297D01*
X2528759Y423145D02*
X2600660Y423144D01*
X2528759Y460297D02*
X2528759Y423145D01*
X2528759Y460297D02*
X2600660Y460297D01*
X2705708Y328496D02*
X2705709Y367866D01*
X2686023Y348181D02*
X2725394Y348181D01*
X2763379Y309336D02*
X2763379Y272184D01*
X2763379Y309336D02*
X2835280Y309336D01*
X2835280Y272183D02*
X2835280Y309336D01*
X2763379Y272184D02*
X2835280Y272183D01*
X2530205Y589703D02*
X2530206Y626855D01*
X2602107Y626856D01*
X2602107Y589703D01*
X2530205Y589703D02*
X2602107Y589703D01*
X2563508Y330562D02*
X2563509Y402463D01*
X2563508Y330562D02*
X2600660Y330562D01*
X2600660Y402464D01*
X2563509Y402463D02*
X2600660Y402464D01*
X2480468Y402511D02*
X2517620Y402511D01*
X2517620Y330610D01*
X2480467Y330610D02*
X2517620Y330610D01*
X2480467Y330610D02*
X2480468Y402511D01*
X2559128Y402510D02*
X2559128Y330610D01*
X2521975Y402511D02*
X2559128Y402510D01*
X2521975Y402511D02*
X2521976Y330610D01*
X2559128Y330610D01*
X3304488Y1071732D02*
X3615512D01*
Y770551D02*
Y1071732D01*
X3304488Y770551D02*
X3615512D01*
X3304488D02*
Y1071732D01*
X2160000Y367284D02*
X2160001Y402717D01*
X2142283Y384999D02*
X2177717Y385000D01*
D137*
X1267321Y633468D02*
X1267322Y676370D01*
X1355000Y676370D01*
X1267321Y633468D02*
X1354999Y633467D01*
X1355000Y676370D01*
X2477910Y539838D02*
X2520813Y539838D01*
X2520813Y627516D02*
X2520813Y539838D01*
X2477910Y627516D02*
X2477910Y539838D01*
X2477910Y627516D02*
X2520813D01*
X2520379Y557442D02*
X2563281Y557442D01*
X2520378Y469764D02*
X2520379Y557442D01*
X2563280Y469764D02*
X2563281Y557442D01*
X2520378Y469764D02*
X2563280D01*
X2564278Y477557D02*
X2607182Y477558D01*
X2607182Y565237D01*
X2564278Y565236D02*
X2564278Y477557D01*
X2564278Y565236D02*
X2607182Y565237D01*
D138*
X2810000Y621258D02*
X2810000Y451259D01*
X2610000Y621259D02*
X2810000Y621258D01*
X2610000Y621259D02*
X2610000Y451258D01*
X2810000Y451259D01*
D217*
X2219997Y682067D02*
G03*
X2219997Y682067I-5000J0D01*
G01*
X1205000Y979995D02*
G03*
X1205000Y979995I-5000J0D01*
G01*
X1120005Y930000D02*
G03*
X1120005Y930000I-5000J0D01*
G01*
X760000Y964995D02*
G03*
X760000Y964995I-5000J0D01*
G01*
X1801940Y348686D02*
G03*
X1801940Y348686I-5000J0D01*
G01*
X2328789Y345079D02*
G03*
X2328789Y345079I-5000J0D01*
G01*
X1997926Y444138D02*
G03*
X1997926Y444138I-5000J0D01*
G01*
X2176461Y638532D02*
G03*
X2176461Y638532I-5000J0D01*
G01*
X1315000Y655000D02*
G03*
X1315000Y655000I-5000J0D01*
G01*
X590005Y625000D02*
G03*
X590005Y625000I-5000J0D01*
G01*
X1100005Y675000D02*
G03*
X1100005Y675000I-5000J0D01*
G01*
X1185005Y255000D02*
G03*
X1185005Y255000I-5000J0D01*
G01*
X3455001Y295005D02*
G03*
X3455001Y295005I-5000J0D01*
G01*
X3150000Y39995D02*
G03*
X3150000Y39995I-5000J0D01*
G01*
X3275005Y435000D02*
G03*
X3275005Y435000I-5000J0D01*
G01*
X2499922Y462063D02*
G03*
X2499922Y462063I-5000J0D01*
G01*
X2504443Y582516D02*
G03*
X2504443Y582516I-5000J0D01*
G01*
X2569724Y441653D02*
G03*
X2569724Y441653I-5000J0D01*
G01*
X2804315Y290827D02*
G03*
X2804315Y290827I-5000J0D01*
G01*
X2714998Y536252D02*
G03*
X2714998Y536252I-5000J0D01*
G01*
X2571142Y608346D02*
G03*
X2571142Y608346I-5000J0D01*
G01*
X2587164Y366536D02*
G03*
X2587164Y366536I-5000J0D01*
G01*
X2504111Y366575D02*
G03*
X2504111Y366575I-5000J0D01*
G01*
X2545472Y366536D02*
G03*
X2545472Y366536I-5000J0D01*
G01*
X2546748Y514764D02*
G03*
X2546748Y514764I-5000J0D01*
G01*
X2590811Y520236D02*
G03*
X2590811Y520236I-5000J0D01*
G01*
X2204393Y692678D02*
X2225607Y671464D01*
X2204390Y671461D02*
X2225602Y692674D01*
X1185000Y980000D02*
X1215000D01*
X1200000Y964995D02*
Y994995D01*
X1115000Y915000D02*
X1115000Y945000D01*
X1100005Y930000D02*
X1130005Y930000D01*
X755000Y949995D02*
Y979995D01*
X740000Y965000D02*
X770000D01*
X1781939Y348681D02*
X1811939Y348680D01*
X1796939Y363685D02*
X1796939Y333685D01*
X2308790Y345073D02*
X2338790Y345074D01*
X2323789Y360079D02*
X2323790Y330079D01*
X1982323Y454749D02*
X2003535Y433536D01*
X1982319Y433531D02*
X2003532Y454745D01*
X2160858Y649143D02*
X2182071Y627929D01*
X2160855Y627926D02*
X2182068Y649139D01*
X1310000Y670000D02*
X1310000Y640000D01*
X1295000Y655005D02*
X1325000Y655006D01*
X585000Y610000D02*
X585000Y640000D01*
X570005Y625000D02*
X600005D01*
X1095000Y660000D02*
X1095000Y690000D01*
X1080005Y675000D02*
X1110005Y675000D01*
X1180000Y270000D02*
X1180000Y240000D01*
X1165005Y255000D02*
X1195005Y255000D01*
X3435000Y295001D02*
X3465000Y295000D01*
X3450000Y310004D02*
X3450001Y280006D01*
X3144999Y24995D02*
X3145000Y54995D01*
X3130000Y40000D02*
X3160000Y39999D01*
X3255005Y435000D02*
X3285005Y435000D01*
X3270000Y450000D02*
X3270000Y420001D01*
X2479921Y462062D02*
X2509921Y462063D01*
X2494926Y447063D02*
X2494927Y477063D01*
X2484443Y582517D02*
X2514443Y582517D01*
X2499448Y597516D02*
X2499448Y567516D01*
X2549724Y441649D02*
X2579724Y441649D01*
X2564724Y456653D02*
X2564724Y426654D01*
X2784315Y290831D02*
X2814315Y290832D01*
X2799315Y305827D02*
X2799315Y275826D01*
X2709998Y551252D02*
X2709998Y521252D01*
X2694997Y536256D02*
X2724998Y536256D01*
X2551142Y608351D02*
X2581142D01*
X2566142Y623347D02*
X2566142Y593346D01*
X2582169Y351536D02*
X2582169Y381536D01*
X2567164Y366536D02*
X2597163Y366536D01*
X2499115Y351575D02*
X2499116Y381574D01*
X2484112Y366575D02*
X2514110Y366574D01*
X2540466Y351537D02*
X2540467Y381536D01*
X2525471Y366536D02*
X2555470Y366537D01*
X2526748Y514764D02*
X2556748Y514764D01*
X2541742Y499764D02*
X2541743Y529764D01*
X2570812Y520236D02*
X2600813D01*
X2585816Y505236D02*
X2585816Y535236D01*
D218*
X1721220Y579999D02*
G03*
X1721220Y579999I-236220J0D01*
G01*
X2051748Y109551D02*
G03*
X2051748Y109551I-13780J0D01*
G01*
X1097086Y925472D02*
Y984528D01*
X982913Y925472D02*
Y984528D01*
Y925472D02*
X1097086D01*
X982913Y984528D02*
X1097086D01*
X1247087Y925472D02*
Y984528D01*
X1132913Y925472D02*
Y984528D01*
Y925472D02*
X1247087D01*
X1132913Y984528D02*
X1247087D01*
X2615472Y864252D02*
Y895748D01*
X2674528Y864252D02*
Y895748D01*
X2615472D02*
X2674528D01*
X2615472Y864252D02*
X2674528D01*
X2557283Y824567D02*
X2592717Y824567D01*
X2557283Y895433D02*
X2592717Y895433D01*
X2557283Y895433D02*
X2557283Y824567D01*
X2592717Y895433D02*
X2592717Y824567D01*
X1767204Y158722D02*
X1767205Y99668D01*
X1735708Y158722D02*
X1735709Y99668D01*
X1767205Y99668D01*
X1735708Y158722D02*
X1767204D01*
X1861261Y99913D02*
X1861262Y158968D01*
X1829766Y158969D02*
X1829766Y99914D01*
X1861261Y99913D01*
X1829766Y158969D02*
X1861262Y158968D01*
X1769187Y131197D02*
X1828242Y131197D01*
X1769187Y162694D02*
X1828242Y162694D01*
X1769187Y131197D02*
X1769187Y162694D01*
X1828242Y162694D02*
X1828242Y131197D01*
X1782525Y221197D02*
X1841580Y221197D01*
X1782525Y252694D02*
X1841581Y252693D01*
X1782525Y221197D02*
Y252694D01*
X1841580Y221197D02*
X1841581Y252693D01*
X2311084Y217590D02*
X2370140Y217591D01*
X2311084Y249087D02*
X2370140Y249087D01*
X2311084Y217590D02*
Y249087D01*
X2370140Y217591D02*
X2370140Y249087D01*
X2391305Y96307D02*
X2391305Y155362D01*
X2359809Y155363D02*
X2359809Y96307D01*
X2391305Y96307D01*
X2359809Y155363D02*
X2391305Y155362D01*
X2297503Y128012D02*
X2356559Y128012D01*
X2297504Y159508D02*
X2356559Y159508D01*
X2297503Y128012D02*
X2297504Y159508D01*
X2356559Y159508D02*
X2356559Y128012D01*
X2295178Y96305D02*
X2295178Y155360D01*
X2263682Y155360D02*
X2263683Y96306D01*
X2295178Y96305D01*
X2263682Y155360D02*
X2295178Y155360D01*
X2201338Y408346D02*
X2201339Y451654D01*
X2118661Y451654D02*
X2118662Y408347D01*
X2201338Y408346D01*
X2118661Y451654D02*
X2201339Y451654D01*
X619528Y935630D02*
X1060473Y935631D01*
X619527Y514370D02*
X1060473Y514370D01*
X1060473Y935631D01*
X619527Y514370D02*
X619528Y935630D01*
X2013786Y465384D02*
X2161332Y612930D01*
X1866240Y612929D02*
X2013786Y465384D01*
X1866240Y612929D02*
X2013786Y760475D01*
X2161332Y612930D01*
X1150472Y204055D02*
X1150473Y85945D01*
X1209528Y85945D01*
X1209528Y204055D02*
X1209528Y85945D01*
X1150472Y204055D02*
X1209528Y204055D01*
X1125590Y501221D02*
X1125591Y28780D01*
X574409Y28780D02*
X574409Y501220D01*
X1125590Y501221D01*
X574409Y28780D02*
X1125591Y28780D01*
X2954062Y708551D02*
X3211937Y708551D01*
X2954063Y499890D02*
X3211936Y499890D01*
X3211937Y708551D01*
X2954062Y708551D02*
X2954063Y499890D01*
X3398070Y391693D02*
X3531930Y391693D01*
X3531929Y478307D02*
X3531930Y391693D01*
X3398071Y478307D02*
X3531929Y478307D01*
X3398070Y391693D02*
X3398071Y478307D01*
X3088307Y66102D02*
X3088308Y353897D01*
X3088307Y66102D02*
X3501693Y66102D01*
X3501692Y353898D02*
X3501693Y66102D01*
X3088308Y353897D02*
X3501692Y353898D01*
X3846220Y210001D02*
X3873780Y210001D01*
X3859999Y196220D02*
X3860001Y223780D01*
X3868189Y1093661D02*
X3868189Y830079D01*
X3641811Y1093661D02*
X3868189D01*
X3641811Y830080D02*
X3641811Y1093661D01*
X3641811Y830080D02*
X3868189Y830079D01*
X3544999Y1051299D02*
X3545000Y1088702D01*
X3526299Y1070000D02*
X3563701Y1070000D01*
X3485945Y1040473D02*
X3604055Y1040472D01*
X3485945Y1099528D02*
X3604055Y1099527D01*
Y1040472D02*
Y1099527D01*
X3485945Y1099528D02*
X3485945Y1040473D01*
X3423976Y981417D02*
X3546023D01*
X3423976Y858583D02*
X3546024D01*
X3546023Y981417D02*
X3546024Y858583D01*
X3423976D02*
Y981417D01*
X3757235Y337953D02*
Y436378D01*
X3757550Y337953D02*
X3796920D01*
Y436378D01*
X3757550D02*
X3796920D01*
X2636499Y696001D02*
X2667995Y696000D01*
X2636499Y755055D02*
X2667995Y755056D01*
X2636499Y696001D02*
X2636499Y755055D01*
X2667995Y696000D02*
X2667995Y755056D01*
X2603953Y755092D02*
X2635449Y755092D01*
X2603952Y696037D02*
X2635448Y696037D01*
X2635449Y755092D01*
X2603952Y696037D02*
X2603953Y755092D01*
X2636150Y776001D02*
X2667646Y776000D01*
X2636149Y835055D02*
X2667645Y835056D01*
X2636149Y835055D02*
X2636150Y776001D01*
X2667645Y835056D02*
X2667646Y776000D01*
X2668425Y744141D02*
Y909496D01*
X2810158Y744142D02*
X2810158Y909496D01*
X2668425Y744141D02*
X2810158Y744142D01*
X2668425Y909496D02*
X2810158Y909496D01*
X2634842Y430858D02*
X2776575Y430858D01*
X2634843Y265504D02*
X2776575Y265504D01*
X2634842Y430858D02*
X2634843Y265504D01*
X2776575Y430858D02*
X2776575Y265504D01*
X2118661Y406654D02*
X2201339D01*
X2118661Y363347D02*
X2201338Y363346D01*
X2118661Y363347D02*
X2118661Y406654D01*
X2201338Y363346D02*
X2201339Y406654D01*
X2037969Y129236D02*
X2037970Y89866D01*
X2018285Y109551D02*
X2057654Y109551D01*
X136614Y853977D02*
X213386Y853976D01*
X136614Y976024D02*
X213385Y976024D01*
X213386Y853976D01*
X136614Y853977D02*
Y976024D01*
D219*
X3334685Y970000D02*
G03*
X3334685Y970000I-19685J0D01*
G01*
X2131909Y1140000D02*
G03*
X2131909Y1140000I-19685J0D01*
G01*
X1979770D02*
G03*
X1979770Y1140000I-19685J0D01*
G01*
X1744685D02*
G03*
X1744685Y1140000I-19685J0D01*
G01*
X1588538D02*
G03*
X1588538Y1140000I-19685J0D01*
G01*
%TF.MD5,01f24a3627e8377d9d01868321943394*%
M02*
