%TF.GenerationSoftware,Altium Limited,Altium Designer,22.2.1 (43)*%
G04 Layer_Color=16777215*
%FSLAX26Y26*%
%MOIN*%
%TF.SameCoordinates,49CA406D-FE3E-4379-A0B2-47437619DC98*%
%TF.FilePolarity,Positive*%
%TF.FileFunction,Other,Top_Courtyard*%
%TF.Part,Single*%
G01*
G75*
%TA.AperFunction,NonConductor*%
%ADD129C,0.007874*%
D129*
X3403110Y323582D02*
X3666890Y323582D01*
X3403110Y323582D02*
X3403111Y446418D01*
X3666890Y446418D01*
X3666890Y323582D01*
X3291102Y757918D02*
X3428898Y757917D01*
X3291102Y757918D02*
X3291103Y482082D01*
X3428897Y482082D01*
X3428898Y757917D01*
X3764409Y535591D02*
X3764409Y684410D01*
X3615590Y684410D02*
X3764409Y684410D01*
X3615590Y535590D02*
Y684410D01*
Y535590D02*
X3764409Y535591D01*
X3697213Y437362D02*
X3744457Y437362D01*
X3697213Y437362D02*
X3697214Y338937D01*
X3744457D01*
X3744457Y437362D01*
X2796063Y668402D02*
X2796063Y731394D01*
X2693700Y731394D02*
X2796063Y731394D01*
X2693700Y668401D02*
Y731394D01*
Y668401D02*
X2796063Y668402D01*
X1707362Y37953D02*
Y282048D01*
X1302638Y282047D02*
X1707362Y282048D01*
X1302638Y37953D02*
X1302638Y282047D01*
X1302638Y37953D02*
X1707362Y37953D01*
X124016Y432598D02*
X375984D01*
Y757402D01*
X124016D02*
X375984D01*
X124016Y432598D02*
Y757402D01*
Y42598D02*
X375984D01*
Y367402D01*
X124016D02*
X375984D01*
X124016Y42598D02*
Y367402D01*
%TF.MD5,32b42ecf550dfe6be91c3f9c1358fd68*%
M02*
