%TF.GenerationSoftware,Altium Limited,Altium Designer,22.2.1 (43)*%
G04 Layer_Color=16711935*
%FSLAX26Y26*%
%MOIN*%
%TF.SameCoordinates,49CA406D-FE3E-4379-A0B2-47437619DC98*%
%TF.FilePolarity,Positive*%
%TF.FileFunction,Other,Top_Assembly*%
%TF.Part,Single*%
G01*
G75*
%TA.AperFunction,NonConductor*%
%ADD129C,0.007874*%
G36*
X3503359Y392372D02*
X3503628Y392334D01*
X3503974Y392295D01*
X3504358Y392257D01*
X3504780Y392180D01*
X3505663Y391950D01*
X3506585Y391604D01*
X3507046Y391374D01*
X3507506Y391105D01*
X3507967Y390836D01*
X3508390Y390491D01*
X3508428Y390452D01*
X3508466Y390414D01*
X3508581Y390299D01*
X3508735Y390145D01*
X3508889Y389953D01*
X3509081Y389723D01*
X3509273Y389454D01*
X3509503Y389147D01*
X3509925Y388417D01*
X3510348Y387534D01*
X3510655Y386535D01*
X3510770Y385959D01*
X3510847Y385383D01*
X3507583Y385153D01*
Y385191D01*
Y385268D01*
X3507545Y385383D01*
X3507506Y385537D01*
X3507391Y385959D01*
X3507238Y386497D01*
X3507046Y387073D01*
X3506738Y387649D01*
X3506393Y388225D01*
X3505932Y388724D01*
X3505855Y388763D01*
X3505702Y388916D01*
X3505433Y389070D01*
X3505049Y389300D01*
X3504588Y389492D01*
X3504050Y389684D01*
X3503436Y389838D01*
X3502783Y389876D01*
X3502553D01*
X3502399Y389838D01*
X3501977Y389799D01*
X3501439Y389684D01*
X3500863Y389454D01*
X3500210Y389185D01*
X3499596Y388763D01*
X3499289Y388532D01*
X3498981Y388225D01*
Y388187D01*
X3498905Y388148D01*
X3498751Y387918D01*
X3498482Y387534D01*
X3498213Y387035D01*
X3497945Y386382D01*
X3497676Y385614D01*
X3497522Y384731D01*
X3497445Y383732D01*
Y383694D01*
Y383617D01*
Y383463D01*
X3497484Y383310D01*
Y383079D01*
X3497522Y382811D01*
X3497637Y382196D01*
X3497791Y381543D01*
X3498060Y380852D01*
X3498444Y380161D01*
X3498943Y379547D01*
X3499020Y379470D01*
X3499212Y379316D01*
X3499519Y379047D01*
X3499980Y378779D01*
X3500517Y378510D01*
X3501209Y378241D01*
X3501977Y378087D01*
X3502822Y378011D01*
X3503090D01*
X3503359Y378049D01*
X3503743Y378087D01*
X3504166Y378203D01*
X3504626Y378318D01*
X3505087Y378510D01*
X3505548Y378740D01*
X3505586Y378779D01*
X3505740Y378855D01*
X3505970Y379009D01*
X3506239Y379201D01*
X3506508Y379470D01*
X3506815Y379777D01*
X3507122Y380123D01*
X3507391Y380507D01*
X3510309Y380084D01*
X3507852Y367143D01*
X3495334D01*
Y370100D01*
X3505394D01*
X3506777Y376897D01*
X3506738Y376859D01*
X3506662Y376820D01*
X3506546Y376743D01*
X3506393Y376628D01*
X3506162Y376513D01*
X3505932Y376398D01*
X3505318Y376091D01*
X3504626Y375783D01*
X3503820Y375553D01*
X3502937Y375361D01*
X3502015Y375284D01*
X3501708D01*
X3501477Y375323D01*
X3501170Y375361D01*
X3500863Y375399D01*
X3500479Y375476D01*
X3500095Y375553D01*
X3499212Y375860D01*
X3498751Y376014D01*
X3498290Y376244D01*
X3497791Y376513D01*
X3497330Y376820D01*
X3496869Y377166D01*
X3496447Y377588D01*
X3496409Y377627D01*
X3496332Y377703D01*
X3496217Y377819D01*
X3496102Y378011D01*
X3495910Y378241D01*
X3495718Y378510D01*
X3495526Y378817D01*
X3495295Y379163D01*
X3495065Y379585D01*
X3494873Y380007D01*
X3494681Y380507D01*
X3494489Y381006D01*
X3494374Y381582D01*
X3494258Y382158D01*
X3494182Y382811D01*
X3494143Y383463D01*
Y383502D01*
Y383617D01*
Y383809D01*
X3494182Y384039D01*
X3494220Y384347D01*
X3494258Y384692D01*
X3494297Y385076D01*
X3494374Y385499D01*
X3494642Y386420D01*
X3494988Y387380D01*
X3495218Y387918D01*
X3495487Y388417D01*
X3495794Y388916D01*
X3496140Y389377D01*
X3496178Y389415D01*
X3496255Y389492D01*
X3496409Y389646D01*
X3496601Y389838D01*
X3496831Y390068D01*
X3497138Y390337D01*
X3497484Y390606D01*
X3497906Y390875D01*
X3498329Y391182D01*
X3498828Y391451D01*
X3499404Y391719D01*
X3499980Y391950D01*
X3500633Y392142D01*
X3501285Y392295D01*
X3502015Y392372D01*
X3502783Y392411D01*
X3503129D01*
X3503359Y392372D01*
D02*
G37*
G36*
X3535001Y366759D02*
X3525324D01*
X3524671Y366798D01*
X3523980Y366836D01*
X3523212Y366913D01*
X3522482Y367028D01*
X3521868Y367143D01*
X3521829D01*
X3521753Y367182D01*
X3521676D01*
X3521522Y367259D01*
X3521100Y367374D01*
X3520601Y367566D01*
X3520025Y367796D01*
X3519410Y368103D01*
X3518796Y368487D01*
X3518182Y368948D01*
X3518143D01*
X3518105Y369025D01*
X3517836Y369255D01*
X3517490Y369639D01*
X3517068Y370139D01*
X3516569Y370753D01*
X3516070Y371483D01*
X3515609Y372327D01*
X3515186Y373287D01*
Y373326D01*
X3515148Y373403D01*
X3515110Y373556D01*
X3515033Y373748D01*
X3514956Y373979D01*
X3514879Y374286D01*
X3514764Y374631D01*
X3514687Y375015D01*
X3514610Y375438D01*
X3514495Y375899D01*
X3514341Y376897D01*
X3514226Y378011D01*
X3514188Y379239D01*
Y379278D01*
Y379355D01*
Y379508D01*
Y379739D01*
X3514226Y379969D01*
Y380276D01*
X3514265Y380967D01*
X3514341Y381735D01*
X3514495Y382619D01*
X3514649Y383502D01*
X3514879Y384347D01*
Y384385D01*
X3514918Y384462D01*
X3514956Y384577D01*
X3514994Y384731D01*
X3515148Y385115D01*
X3515340Y385652D01*
X3515570Y386228D01*
X3515878Y386843D01*
X3516223Y387457D01*
X3516607Y388033D01*
X3516646Y388110D01*
X3516799Y388263D01*
X3516991Y388532D01*
X3517298Y388878D01*
X3517606Y389223D01*
X3518028Y389607D01*
X3518450Y389991D01*
X3518911Y390337D01*
X3518950Y390375D01*
X3519142Y390452D01*
X3519410Y390606D01*
X3519756Y390798D01*
X3520178Y390990D01*
X3520677Y391182D01*
X3521253Y391374D01*
X3521906Y391566D01*
X3521983D01*
X3522213Y391643D01*
X3522559Y391681D01*
X3523058Y391758D01*
X3523634Y391835D01*
X3524325Y391911D01*
X3525093Y391950D01*
X3525938Y391988D01*
X3535001D01*
Y366759D01*
D02*
G37*
G36*
X3385651Y608289D02*
X3385612Y607982D01*
Y607675D01*
X3385574Y606907D01*
X3385497Y606100D01*
X3385344Y605255D01*
X3385190Y604449D01*
X3385075Y604065D01*
X3384960Y603719D01*
Y603681D01*
X3384921Y603643D01*
X3384844Y603412D01*
X3384652Y603105D01*
X3384384Y602721D01*
X3384076Y602260D01*
X3383654Y601799D01*
X3383155Y601339D01*
X3382540Y600916D01*
X3382464Y600878D01*
X3382233Y600763D01*
X3381888Y600571D01*
X3381427Y600379D01*
X3380851Y600187D01*
X3380198Y599995D01*
X3379507Y599879D01*
X3378739Y599841D01*
X3378700D01*
X3378624D01*
X3378470D01*
X3378278Y599879D01*
X3378048D01*
X3377779Y599918D01*
X3377164Y600071D01*
X3376435Y600263D01*
X3375705Y600571D01*
X3374937Y601031D01*
X3374553Y601300D01*
X3374208Y601607D01*
X3374131Y601684D01*
X3374054Y601799D01*
X3373900Y601915D01*
X3373785Y602107D01*
X3373593Y602337D01*
X3373440Y602606D01*
X3373248Y602913D01*
X3373056Y603259D01*
X3372864Y603681D01*
X3372672Y604103D01*
X3372480Y604603D01*
X3372288Y605102D01*
X3372134Y605678D01*
X3372019Y606292D01*
X3371904Y606945D01*
X3371865Y606868D01*
X3371788Y606715D01*
X3371673Y606484D01*
X3371520Y606215D01*
X3371097Y605563D01*
X3370867Y605217D01*
X3370636Y604948D01*
X3370560Y604871D01*
X3370406Y604679D01*
X3370099Y604411D01*
X3369715Y604065D01*
X3369216Y603643D01*
X3368640Y603182D01*
X3367987Y602683D01*
X3367257Y602183D01*
X3360422Y597806D01*
Y601991D01*
X3365644Y605332D01*
X3365683D01*
X3365760Y605409D01*
X3365875Y605486D01*
X3366028Y605563D01*
X3366412Y605831D01*
X3366912Y606177D01*
X3367488Y606561D01*
X3368064Y606983D01*
X3368601Y607367D01*
X3369100Y607751D01*
X3369139Y607790D01*
X3369292Y607905D01*
X3369523Y608097D01*
X3369792Y608289D01*
X3370329Y608865D01*
X3370598Y609134D01*
X3370790Y609441D01*
X3370828Y609479D01*
X3370867Y609556D01*
X3370944Y609710D01*
X3371059Y609902D01*
X3371289Y610363D01*
X3371481Y610939D01*
Y610977D01*
X3371520Y611054D01*
Y611207D01*
X3371558Y611399D01*
X3371596Y611668D01*
Y611975D01*
X3371635Y612359D01*
Y616660D01*
X3360422D01*
Y620001D01*
X3385651D01*
Y608289D01*
D02*
G37*
G36*
X3361113Y596270D02*
X3361420Y596231D01*
X3361766Y596193D01*
X3362150Y596078D01*
X3362534Y595963D01*
X3362572D01*
X3362611Y595924D01*
X3362841Y595847D01*
X3363148Y595694D01*
X3363609Y595463D01*
X3364108Y595195D01*
X3364684Y594811D01*
X3365260Y594427D01*
X3365875Y593927D01*
X3365913D01*
X3365952Y593851D01*
X3366182Y593659D01*
X3366528Y593351D01*
X3366988Y592891D01*
X3367526Y592315D01*
X3368179Y591623D01*
X3368908Y590779D01*
X3369715Y589857D01*
X3369753Y589819D01*
X3369868Y589665D01*
X3370022Y589473D01*
X3370291Y589204D01*
X3370560Y588859D01*
X3370905Y588475D01*
X3371635Y587630D01*
X3372518Y586708D01*
X3373401Y585787D01*
X3373824Y585326D01*
X3374246Y584942D01*
X3374668Y584596D01*
X3375052Y584289D01*
X3375091D01*
X3375129Y584212D01*
X3375244Y584135D01*
X3375398Y584059D01*
X3375782Y583828D01*
X3376281Y583559D01*
X3376857Y583291D01*
X3377472Y583060D01*
X3378163Y582907D01*
X3378816Y582830D01*
X3378854D01*
X3378892D01*
X3379123Y582868D01*
X3379468Y582907D01*
X3379891Y582983D01*
X3380390Y583175D01*
X3380889Y583406D01*
X3381427Y583713D01*
X3381926Y584174D01*
X3381964Y584251D01*
X3382118Y584404D01*
X3382310Y584711D01*
X3382579Y585095D01*
X3382809Y585595D01*
X3383001Y586171D01*
X3383155Y586862D01*
X3383193Y587630D01*
Y587860D01*
X3383155Y588014D01*
X3383116Y588398D01*
X3383040Y588897D01*
X3382848Y589473D01*
X3382617Y590087D01*
X3382272Y590663D01*
X3381811Y591201D01*
X3381734Y591239D01*
X3381580Y591393D01*
X3381273Y591623D01*
X3380851Y591854D01*
X3380313Y592123D01*
X3379699Y592315D01*
X3378969Y592468D01*
X3378124Y592545D01*
X3378470Y595732D01*
X3378508D01*
X3378624D01*
X3378816Y595694D01*
X3379046Y595655D01*
X3379353Y595579D01*
X3379699Y595540D01*
X3380467Y595310D01*
X3381350Y595003D01*
X3382233Y594580D01*
X3383116Y594004D01*
X3383500Y593697D01*
X3383884Y593313D01*
X3383923Y593275D01*
X3383961Y593198D01*
X3384076Y593083D01*
X3384192Y592929D01*
X3384307Y592699D01*
X3384499Y592430D01*
X3384652Y592123D01*
X3384844Y591777D01*
X3384998Y591393D01*
X3385190Y590971D01*
X3385344Y590471D01*
X3385459Y589972D01*
X3385689Y588820D01*
X3385728Y588206D01*
X3385766Y587553D01*
Y587207D01*
X3385728Y586939D01*
X3385689Y586631D01*
X3385651Y586286D01*
X3385612Y585902D01*
X3385497Y585479D01*
X3385267Y584558D01*
X3384921Y583598D01*
X3384691Y583099D01*
X3384422Y582638D01*
X3384076Y582215D01*
X3383731Y581793D01*
X3383692Y581755D01*
X3383654Y581716D01*
X3383539Y581601D01*
X3383385Y581447D01*
X3383155Y581294D01*
X3382924Y581102D01*
X3382348Y580718D01*
X3381619Y580334D01*
X3380774Y579988D01*
X3379814Y579719D01*
X3379276Y579681D01*
X3378739Y579643D01*
X3378662D01*
X3378470D01*
X3378163Y579681D01*
X3377779Y579719D01*
X3377318Y579796D01*
X3376819Y579911D01*
X3376281Y580065D01*
X3375744Y580295D01*
X3375667Y580334D01*
X3375475Y580411D01*
X3375206Y580564D01*
X3374822Y580795D01*
X3374361Y581063D01*
X3373824Y581409D01*
X3373286Y581870D01*
X3372672Y582369D01*
X3372595Y582446D01*
X3372364Y582638D01*
X3372019Y582983D01*
X3371788Y583214D01*
X3371520Y583483D01*
X3371212Y583790D01*
X3370867Y584174D01*
X3370521Y584558D01*
X3370099Y584980D01*
X3369676Y585441D01*
X3369216Y585979D01*
X3368755Y586516D01*
X3368217Y587131D01*
X3368179Y587169D01*
X3368102Y587246D01*
X3367987Y587399D01*
X3367833Y587591D01*
X3367449Y588052D01*
X3366950Y588628D01*
X3366412Y589204D01*
X3365875Y589819D01*
X3365414Y590318D01*
X3365222Y590510D01*
X3365030Y590702D01*
X3364992Y590740D01*
X3364876Y590817D01*
X3364723Y590971D01*
X3364492Y591163D01*
X3363993Y591585D01*
X3363379Y592007D01*
Y579604D01*
X3360422D01*
Y596308D01*
X3360460D01*
X3360614D01*
X3360844D01*
X3361113Y596270D01*
D02*
G37*
G36*
X3373977Y576263D02*
X3374400D01*
X3374899Y576225D01*
X3375436Y576187D01*
X3376588Y576071D01*
X3377779Y575918D01*
X3378969Y575726D01*
X3379507Y575572D01*
X3380044Y575419D01*
X3380083D01*
X3380160Y575380D01*
X3380313Y575303D01*
X3380505Y575227D01*
X3380736Y575150D01*
X3381004Y575035D01*
X3381619Y574727D01*
X3382310Y574343D01*
X3383001Y573883D01*
X3383654Y573345D01*
X3384268Y572692D01*
Y572654D01*
X3384345Y572615D01*
X3384422Y572500D01*
X3384499Y572347D01*
X3384729Y571963D01*
X3385036Y571425D01*
X3385305Y570772D01*
X3385536Y569966D01*
X3385689Y569083D01*
X3385766Y568084D01*
Y567739D01*
X3385728Y567355D01*
X3385651Y566894D01*
X3385574Y566356D01*
X3385420Y565742D01*
X3385190Y565127D01*
X3384921Y564551D01*
X3384883Y564475D01*
X3384768Y564283D01*
X3384576Y564014D01*
X3384345Y563630D01*
X3384000Y563246D01*
X3383577Y562823D01*
X3383116Y562401D01*
X3382579Y562017D01*
X3382502Y561979D01*
X3382310Y561863D01*
X3381964Y561671D01*
X3381542Y561441D01*
X3381004Y561211D01*
X3380352Y560942D01*
X3379622Y560673D01*
X3378816Y560443D01*
X3378777D01*
X3378700Y560404D01*
X3378585D01*
X3378393Y560366D01*
X3378201Y560289D01*
X3377932Y560251D01*
X3377587Y560212D01*
X3377241Y560135D01*
X3376819Y560097D01*
X3376396Y560059D01*
X3375897Y559982D01*
X3375360Y559943D01*
X3374784Y559905D01*
X3374208D01*
X3372864Y559867D01*
X3372825D01*
X3372672D01*
X3372441D01*
X3372134D01*
X3371750Y559905D01*
X3371328D01*
X3370828Y559943D01*
X3370291Y559982D01*
X3369139Y560097D01*
X3367948Y560251D01*
X3366758Y560481D01*
X3366220Y560635D01*
X3365683Y560788D01*
X3365644D01*
X3365568Y560827D01*
X3365414Y560865D01*
X3365222Y560942D01*
X3364992Y561057D01*
X3364761Y561172D01*
X3364147Y561479D01*
X3363456Y561863D01*
X3362764Y562324D01*
X3362073Y562862D01*
X3361459Y563515D01*
Y563553D01*
X3361382Y563591D01*
X3361344Y563707D01*
X3361228Y563822D01*
X3360998Y564244D01*
X3360729Y564743D01*
X3360460Y565435D01*
X3360230Y566203D01*
X3360076Y567086D01*
X3360000Y568084D01*
Y568430D01*
X3360038Y568699D01*
X3360076Y569006D01*
X3360153Y569351D01*
X3360230Y569735D01*
X3360307Y570158D01*
X3360614Y571079D01*
X3360844Y571579D01*
X3361075Y572039D01*
X3361382Y572539D01*
X3361728Y572999D01*
X3362112Y573422D01*
X3362572Y573844D01*
X3362611Y573883D01*
X3362726Y573959D01*
X3362918Y574075D01*
X3363187Y574228D01*
X3363532Y574420D01*
X3363955Y574612D01*
X3364454Y574843D01*
X3365068Y575073D01*
X3365721Y575303D01*
X3366489Y575534D01*
X3367334Y575726D01*
X3368256Y575918D01*
X3369292Y576071D01*
X3370368Y576187D01*
X3371596Y576263D01*
X3372864Y576302D01*
X3372902D01*
X3373056D01*
X3373286D01*
X3373593D01*
X3373977Y576263D01*
D02*
G37*
G36*
X3662122Y609962D02*
Y609847D01*
Y609693D01*
X3662083Y609463D01*
Y609194D01*
X3662045Y608848D01*
X3662006Y608426D01*
X3661968Y608004D01*
X3661891Y607504D01*
X3661814Y606928D01*
X3661738Y606352D01*
X3661622Y605738D01*
X3661507Y605047D01*
X3661354Y604356D01*
X3660970Y602819D01*
Y602781D01*
X3660931Y602628D01*
X3660854Y602397D01*
X3660778Y602090D01*
X3660662Y601706D01*
X3660509Y601284D01*
X3660355Y600784D01*
X3660163Y600208D01*
X3659933Y599632D01*
X3659702Y598980D01*
X3659165Y597597D01*
X3658512Y596138D01*
X3657782Y594679D01*
X3657744Y594640D01*
X3657667Y594487D01*
X3657552Y594295D01*
X3657398Y594026D01*
X3657206Y593680D01*
X3656976Y593296D01*
X3656707Y592874D01*
X3656439Y592375D01*
X3655747Y591338D01*
X3654979Y590224D01*
X3654173Y589111D01*
X3653290Y588035D01*
X3665655D01*
Y585079D01*
X3649334D01*
Y587498D01*
X3649373Y587536D01*
X3649450Y587613D01*
X3649565Y587767D01*
X3649757Y587959D01*
X3649949Y588227D01*
X3650218Y588535D01*
X3650525Y588919D01*
X3650832Y589303D01*
X3651178Y589764D01*
X3651562Y590301D01*
X3651984Y590839D01*
X3652368Y591453D01*
X3652791Y592106D01*
X3653251Y592797D01*
X3653674Y593565D01*
X3654135Y594333D01*
X3654173Y594371D01*
X3654250Y594525D01*
X3654365Y594755D01*
X3654519Y595063D01*
X3654711Y595447D01*
X3654941Y595908D01*
X3655210Y596445D01*
X3655479Y597021D01*
X3655747Y597635D01*
X3656055Y598327D01*
X3656362Y599056D01*
X3656669Y599824D01*
X3657245Y601399D01*
X3657782Y603088D01*
Y603127D01*
X3657821Y603242D01*
X3657859Y603395D01*
X3657936Y603626D01*
X3658013Y603933D01*
X3658090Y604279D01*
X3658166Y604701D01*
X3658282Y605124D01*
X3658358Y605623D01*
X3658474Y606160D01*
X3658666Y607312D01*
X3658819Y608618D01*
X3658934Y610000D01*
X3662122D01*
Y609962D01*
D02*
G37*
G36*
X3690000Y584771D02*
X3680323D01*
X3679671Y584810D01*
X3678979Y584848D01*
X3678211Y584925D01*
X3677482Y585040D01*
X3676867Y585155D01*
X3676829D01*
X3676752Y585194D01*
X3676675D01*
X3676522Y585271D01*
X3676099Y585386D01*
X3675600Y585578D01*
X3675024Y585808D01*
X3674410Y586115D01*
X3673795Y586500D01*
X3673181Y586960D01*
X3673142D01*
X3673104Y587037D01*
X3672835Y587268D01*
X3672490Y587652D01*
X3672067Y588151D01*
X3671568Y588765D01*
X3671069Y589495D01*
X3670608Y590340D01*
X3670186Y591299D01*
Y591338D01*
X3670147Y591415D01*
X3670109Y591568D01*
X3670032Y591760D01*
X3669955Y591991D01*
X3669878Y592298D01*
X3669763Y592644D01*
X3669686Y593028D01*
X3669610Y593450D01*
X3669494Y593911D01*
X3669341Y594909D01*
X3669226Y596023D01*
X3669187Y597251D01*
Y597290D01*
Y597367D01*
Y597520D01*
Y597751D01*
X3669226Y597981D01*
Y598288D01*
X3669264Y598980D01*
X3669341Y599747D01*
X3669494Y600631D01*
X3669648Y601514D01*
X3669878Y602359D01*
Y602397D01*
X3669917Y602474D01*
X3669955Y602589D01*
X3669994Y602743D01*
X3670147Y603127D01*
X3670339Y603664D01*
X3670570Y604240D01*
X3670877Y604855D01*
X3671222Y605469D01*
X3671606Y606045D01*
X3671645Y606122D01*
X3671798Y606275D01*
X3671990Y606544D01*
X3672298Y606890D01*
X3672605Y607236D01*
X3673027Y607620D01*
X3673450Y608004D01*
X3673910Y608349D01*
X3673949Y608388D01*
X3674141Y608464D01*
X3674410Y608618D01*
X3674755Y608810D01*
X3675178Y609002D01*
X3675677Y609194D01*
X3676253Y609386D01*
X3676906Y609578D01*
X3676983D01*
X3677213Y609655D01*
X3677559Y609693D01*
X3678058Y609770D01*
X3678634Y609847D01*
X3679325Y609923D01*
X3680093Y609962D01*
X3680938Y610000D01*
X3690000D01*
Y584771D01*
D02*
G37*
G36*
X3739076Y378473D02*
X3739037Y377820D01*
X3738999Y377129D01*
X3738922Y376361D01*
X3738807Y375631D01*
X3738692Y375017D01*
Y374978D01*
X3738653Y374902D01*
Y374825D01*
X3738577Y374671D01*
X3738461Y374249D01*
X3738269Y373750D01*
X3738039Y373174D01*
X3737732Y372559D01*
X3737348Y371945D01*
X3736887Y371330D01*
Y371292D01*
X3736810Y371254D01*
X3736580Y370985D01*
X3736196Y370639D01*
X3735697Y370217D01*
X3735082Y369718D01*
X3734353Y369219D01*
X3733508Y368758D01*
X3732548Y368335D01*
X3732510D01*
X3732433Y368297D01*
X3732279Y368259D01*
X3732087Y368182D01*
X3731857Y368105D01*
X3731550Y368028D01*
X3731204Y367913D01*
X3730820Y367836D01*
X3730398Y367759D01*
X3729937Y367644D01*
X3728938Y367490D01*
X3727825Y367375D01*
X3726596Y367337D01*
X3726557D01*
X3726481D01*
X3726327D01*
X3726097D01*
X3725866Y367375D01*
X3725559D01*
X3724868Y367414D01*
X3724100Y367490D01*
X3723217Y367644D01*
X3722334Y367798D01*
X3721489Y368028D01*
X3721450D01*
X3721374Y368067D01*
X3721258Y368105D01*
X3721105Y368143D01*
X3720721Y368297D01*
X3720183Y368489D01*
X3719607Y368719D01*
X3718993Y369026D01*
X3718378Y369372D01*
X3717802Y369756D01*
X3717726Y369795D01*
X3717572Y369948D01*
X3717303Y370140D01*
X3716957Y370447D01*
X3716612Y370755D01*
X3716228Y371177D01*
X3715844Y371599D01*
X3715498Y372060D01*
X3715460Y372099D01*
X3715383Y372291D01*
X3715229Y372559D01*
X3715037Y372905D01*
X3714845Y373327D01*
X3714653Y373827D01*
X3714461Y374402D01*
X3714269Y375055D01*
Y375132D01*
X3714193Y375363D01*
X3714154Y375708D01*
X3714077Y376207D01*
X3714001Y376783D01*
X3713924Y377474D01*
X3713885Y378243D01*
X3713847Y379087D01*
Y388150D01*
X3739076D01*
Y378473D01*
D02*
G37*
G36*
X3721566Y363996D02*
X3721758D01*
X3722026Y363958D01*
X3722564Y363881D01*
X3723217Y363727D01*
X3723908Y363497D01*
X3724599Y363228D01*
X3725252Y362806D01*
X3725290D01*
X3725329Y362729D01*
X3725521Y362575D01*
X3725828Y362268D01*
X3726173Y361884D01*
X3726557Y361385D01*
X3726941Y360771D01*
X3727287Y360041D01*
X3727556Y359235D01*
Y359273D01*
X3727594Y359311D01*
X3727671Y359542D01*
X3727863Y359887D01*
X3728055Y360310D01*
X3728362Y360809D01*
X3728708Y361270D01*
X3729092Y361731D01*
X3729553Y362115D01*
X3729630Y362153D01*
X3729783Y362268D01*
X3730052Y362422D01*
X3730436Y362575D01*
X3730897Y362729D01*
X3731434Y362882D01*
X3732010Y362998D01*
X3732663Y363036D01*
X3732702D01*
X3732778D01*
X3732932D01*
X3733124Y362998D01*
X3733354Y362959D01*
X3733623Y362921D01*
X3734276Y362806D01*
X3735006Y362575D01*
X3735773Y362191D01*
X3736196Y361999D01*
X3736580Y361731D01*
X3736964Y361423D01*
X3737309Y361078D01*
X3737348Y361039D01*
X3737386Y361001D01*
X3737501Y360886D01*
X3737617Y360732D01*
X3737732Y360502D01*
X3737924Y360271D01*
X3738077Y360002D01*
X3738269Y359657D01*
X3738615Y358927D01*
X3738884Y358006D01*
X3739114Y356969D01*
X3739153Y356431D01*
X3739191Y355817D01*
Y355510D01*
X3739153Y355279D01*
Y354972D01*
X3739076Y354665D01*
X3738961Y353897D01*
X3738730Y353052D01*
X3738385Y352169D01*
X3738154Y351708D01*
X3737924Y351286D01*
X3737617Y350863D01*
X3737271Y350479D01*
X3737233Y350441D01*
X3737194Y350402D01*
X3737079Y350287D01*
X3736925Y350172D01*
X3736733Y350019D01*
X3736503Y349827D01*
X3735965Y349442D01*
X3735274Y349097D01*
X3734468Y348751D01*
X3733585Y348521D01*
X3733086Y348483D01*
X3732586Y348444D01*
X3732510D01*
X3732279D01*
X3731972Y348483D01*
X3731550Y348559D01*
X3731050Y348675D01*
X3730551Y348828D01*
X3730014Y349058D01*
X3729514Y349366D01*
X3729476Y349404D01*
X3729322Y349519D01*
X3729092Y349750D01*
X3728785Y350057D01*
X3728477Y350441D01*
X3728170Y350940D01*
X3727825Y351516D01*
X3727556Y352169D01*
Y352130D01*
X3727517Y352054D01*
X3727479Y351938D01*
X3727402Y351785D01*
X3727210Y351363D01*
X3726980Y350863D01*
X3726634Y350287D01*
X3726212Y349711D01*
X3725674Y349135D01*
X3725098Y348636D01*
X3725021Y348598D01*
X3724791Y348444D01*
X3724445Y348252D01*
X3723946Y348022D01*
X3723370Y347791D01*
X3722679Y347599D01*
X3721911Y347446D01*
X3721066Y347407D01*
X3721028D01*
X3720913D01*
X3720759D01*
X3720529Y347446D01*
X3720260Y347484D01*
X3719914Y347522D01*
X3719146Y347676D01*
X3718302Y347983D01*
X3717841Y348137D01*
X3717380Y348367D01*
X3716919Y348636D01*
X3716458Y348943D01*
X3716036Y349289D01*
X3715613Y349711D01*
X3715575Y349750D01*
X3715537Y349827D01*
X3715421Y349942D01*
X3715268Y350134D01*
X3715114Y350364D01*
X3714922Y350633D01*
X3714730Y350940D01*
X3714538Y351324D01*
X3714308Y351747D01*
X3714116Y352207D01*
X3713924Y352707D01*
X3713770Y353244D01*
X3713617Y353782D01*
X3713501Y354396D01*
X3713463Y355049D01*
X3713425Y355740D01*
Y356086D01*
X3713463Y356354D01*
X3713501Y356662D01*
X3713540Y357046D01*
X3713617Y357430D01*
X3713693Y357890D01*
X3713962Y358851D01*
X3714154Y359350D01*
X3714346Y359849D01*
X3714615Y360348D01*
X3714884Y360847D01*
X3715229Y361308D01*
X3715613Y361769D01*
X3715652Y361807D01*
X3715729Y361884D01*
X3715844Y361961D01*
X3715997Y362115D01*
X3716228Y362307D01*
X3716497Y362498D01*
X3716804Y362690D01*
X3717149Y362882D01*
X3717534Y363113D01*
X3717956Y363305D01*
X3718878Y363689D01*
X3719415Y363842D01*
X3719953Y363919D01*
X3720529Y363996D01*
X3721143Y364034D01*
X3721182D01*
X3721258D01*
X3721374D01*
X3721566Y363996D01*
D02*
G37*
G36*
X2718924Y699860D02*
X2719231Y699821D01*
X2719538Y699783D01*
X2719922Y699744D01*
X2720306Y699668D01*
X2721189Y699437D01*
X2722111Y699053D01*
X2722572Y698861D01*
X2722994Y698592D01*
X2723455Y698285D01*
X2723877Y697939D01*
X2723916Y697901D01*
X2723954Y697863D01*
X2724069Y697747D01*
X2724223Y697594D01*
X2724377Y697364D01*
X2724569Y697133D01*
X2724799Y696864D01*
X2724991Y696557D01*
X2725452Y695789D01*
X2725836Y694906D01*
X2726181Y693908D01*
X2726297Y693370D01*
X2726373Y692794D01*
X2723263Y692371D01*
Y692410D01*
X2723225Y692487D01*
Y692640D01*
X2723148Y692794D01*
X2723033Y693255D01*
X2722841Y693831D01*
X2722610Y694445D01*
X2722303Y695098D01*
X2721919Y695674D01*
X2721497Y696173D01*
X2721420Y696212D01*
X2721266Y696365D01*
X2720997Y696519D01*
X2720613Y696749D01*
X2720191Y696941D01*
X2719653Y697133D01*
X2719039Y697287D01*
X2718386Y697325D01*
X2718156D01*
X2718002Y697287D01*
X2717618Y697248D01*
X2717119Y697133D01*
X2716505Y696941D01*
X2715890Y696711D01*
X2715276Y696327D01*
X2714700Y695827D01*
X2714623Y695751D01*
X2714469Y695559D01*
X2714239Y695251D01*
X2713932Y694791D01*
X2713663Y694253D01*
X2713433Y693600D01*
X2713279Y692871D01*
X2713202Y692064D01*
Y692026D01*
Y691987D01*
Y691872D01*
X2713241Y691719D01*
X2713279Y691335D01*
X2713394Y690836D01*
X2713548Y690298D01*
X2713817Y689683D01*
X2714162Y689107D01*
X2714623Y688570D01*
X2714700Y688493D01*
X2714853Y688340D01*
X2715161Y688148D01*
X2715583Y687879D01*
X2716082Y687610D01*
X2716697Y687418D01*
X2717349Y687264D01*
X2718117Y687188D01*
X2718463D01*
X2718732Y687226D01*
X2719039Y687264D01*
X2719423Y687303D01*
X2719845Y687380D01*
X2720306Y687495D01*
X2719961Y684768D01*
X2719769D01*
X2719615Y684807D01*
X2719116D01*
X2718770Y684768D01*
X2718271Y684692D01*
X2717733Y684576D01*
X2717157Y684384D01*
X2716543Y684154D01*
X2715929Y683808D01*
X2715852Y683770D01*
X2715660Y683616D01*
X2715429Y683347D01*
X2715122Y683002D01*
X2714815Y682580D01*
X2714585Y682042D01*
X2714393Y681389D01*
X2714316Y680621D01*
Y680583D01*
Y680544D01*
Y680352D01*
X2714393Y680045D01*
X2714469Y679623D01*
X2714585Y679200D01*
X2714815Y678740D01*
X2715084Y678240D01*
X2715468Y677818D01*
X2715506Y677779D01*
X2715660Y677626D01*
X2715929Y677434D01*
X2716274Y677242D01*
X2716697Y677011D01*
X2717196Y676858D01*
X2717772Y676704D01*
X2718425Y676666D01*
X2718732D01*
X2719077Y676743D01*
X2719461Y676819D01*
X2719961Y676935D01*
X2720460Y677165D01*
X2720959Y677434D01*
X2721458Y677818D01*
X2721497Y677856D01*
X2721650Y678010D01*
X2721842Y678279D01*
X2722073Y678663D01*
X2722341Y679124D01*
X2722572Y679699D01*
X2722802Y680391D01*
X2722956Y681197D01*
X2726066Y680659D01*
Y680621D01*
X2726028Y680506D01*
X2725989Y680352D01*
X2725951Y680160D01*
X2725874Y679891D01*
X2725797Y679584D01*
X2725529Y678893D01*
X2725221Y678125D01*
X2724761Y677319D01*
X2724223Y676551D01*
X2723532Y675860D01*
X2723493Y675821D01*
X2723455Y675783D01*
X2723340Y675706D01*
X2723148Y675591D01*
X2722956Y675476D01*
X2722725Y675322D01*
X2722149Y674976D01*
X2721420Y674669D01*
X2720537Y674400D01*
X2719577Y674208D01*
X2719039Y674131D01*
X2718156D01*
X2717772Y674170D01*
X2717273Y674247D01*
X2716697Y674362D01*
X2716044Y674515D01*
X2715391Y674746D01*
X2714738Y675053D01*
X2714700D01*
X2714661Y675091D01*
X2714431Y675207D01*
X2714124Y675399D01*
X2713740Y675668D01*
X2713317Y676013D01*
X2712857Y676436D01*
X2712434Y676935D01*
X2712050Y677472D01*
X2712012Y677549D01*
X2711897Y677741D01*
X2711743Y678048D01*
X2711589Y678432D01*
X2711436Y678932D01*
X2711282Y679469D01*
X2711167Y680045D01*
X2711129Y680698D01*
Y680775D01*
Y680967D01*
X2711167Y681274D01*
X2711244Y681658D01*
X2711359Y682119D01*
X2711513Y682618D01*
X2711705Y683155D01*
X2712012Y683655D01*
X2712050Y683731D01*
X2712165Y683885D01*
X2712396Y684115D01*
X2712665Y684423D01*
X2713049Y684768D01*
X2713471Y685114D01*
X2714009Y685498D01*
X2714623Y685805D01*
X2714585D01*
X2714508Y685843D01*
X2714393D01*
X2714239Y685920D01*
X2713855Y686035D01*
X2713356Y686266D01*
X2712818Y686535D01*
X2712242Y686919D01*
X2711666Y687380D01*
X2711167Y687956D01*
X2711129Y688032D01*
X2710975Y688263D01*
X2710783Y688608D01*
X2710514Y689069D01*
X2710284Y689645D01*
X2710092Y690336D01*
X2709938Y691143D01*
X2709900Y692026D01*
Y692064D01*
Y692179D01*
Y692333D01*
X2709938Y692563D01*
X2709977Y692871D01*
X2710015Y693178D01*
X2710092Y693562D01*
X2710207Y693946D01*
X2710476Y694829D01*
X2710668Y695328D01*
X2710937Y695789D01*
X2711205Y696250D01*
X2711513Y696711D01*
X2711897Y697172D01*
X2712319Y697632D01*
X2712357Y697671D01*
X2712434Y697747D01*
X2712549Y697824D01*
X2712741Y697978D01*
X2712972Y698170D01*
X2713279Y698362D01*
X2713625Y698554D01*
X2713970Y698746D01*
X2714393Y698976D01*
X2714853Y699168D01*
X2715353Y699360D01*
X2715890Y699552D01*
X2716466Y699706D01*
X2717081Y699783D01*
X2717733Y699860D01*
X2718386Y699898D01*
X2718693D01*
X2718924Y699860D01*
D02*
G37*
G36*
X2744882Y674247D02*
X2741541D01*
Y696519D01*
X2729138D01*
Y699476D01*
X2744882D01*
Y674247D01*
D02*
G37*
G36*
X1505001Y134772D02*
X1501660D01*
Y147252D01*
X1489141Y134772D01*
X1484610D01*
X1495209Y145024D01*
X1484149Y160000D01*
X1488565D01*
X1497551Y147290D01*
X1501660Y151245D01*
Y160000D01*
X1505001D01*
Y134772D01*
D02*
G37*
G36*
X1474050Y140263D02*
X1474089Y140301D01*
X1474242Y140455D01*
X1474511Y140647D01*
X1474857Y140916D01*
X1475279Y141261D01*
X1475778Y141607D01*
X1476354Y142029D01*
X1477007Y142413D01*
X1477045D01*
X1477084Y142452D01*
X1477314Y142605D01*
X1477660Y142797D01*
X1478082Y143028D01*
X1478581Y143296D01*
X1479119Y143527D01*
X1479695Y143796D01*
X1480233Y144026D01*
Y140992D01*
X1480194D01*
X1480117Y140954D01*
X1479964Y140877D01*
X1479810Y140762D01*
X1479580Y140647D01*
X1479311Y140532D01*
X1478697Y140186D01*
X1478005Y139764D01*
X1477237Y139264D01*
X1476469Y138688D01*
X1475740Y138074D01*
X1475701Y138036D01*
X1475663Y137997D01*
X1475433Y137767D01*
X1475087Y137421D01*
X1474665Y136999D01*
X1474204Y136461D01*
X1473743Y135885D01*
X1473321Y135271D01*
X1472975Y134656D01*
X1470940D01*
Y160000D01*
X1474050D01*
Y140263D01*
D02*
G37*
G36*
X249578Y651179D02*
X249540D01*
X249386D01*
X249155D01*
X248887Y651217D01*
X248579Y651255D01*
X248234Y651294D01*
X247850Y651409D01*
X247466Y651524D01*
X247428D01*
X247389Y651563D01*
X247159Y651639D01*
X246851Y651793D01*
X246391Y652024D01*
X245892Y652292D01*
X245315Y652676D01*
X244739Y653060D01*
X244125Y653559D01*
X244087D01*
X244048Y653636D01*
X243818Y653828D01*
X243472Y654135D01*
X243012Y654596D01*
X242474Y655172D01*
X241821Y655864D01*
X241091Y656708D01*
X240285Y657630D01*
X240247Y657668D01*
X240131Y657822D01*
X239978Y658014D01*
X239709Y658283D01*
X239440Y658628D01*
X239095Y659012D01*
X238365Y659857D01*
X237482Y660779D01*
X236599Y661700D01*
X236176Y662161D01*
X235754Y662545D01*
X235332Y662891D01*
X234947Y663198D01*
X234909D01*
X234871Y663275D01*
X234756Y663351D01*
X234602Y663428D01*
X234218Y663659D01*
X233719Y663928D01*
X233143Y664196D01*
X232528Y664427D01*
X231837Y664580D01*
X231184Y664657D01*
X231146D01*
X231107D01*
X230877Y664619D01*
X230531Y664580D01*
X230109Y664504D01*
X229610Y664312D01*
X229111Y664081D01*
X228573Y663774D01*
X228074Y663313D01*
X228036Y663236D01*
X227882Y663083D01*
X227690Y662775D01*
X227421Y662391D01*
X227191Y661892D01*
X226999Y661316D01*
X226845Y660625D01*
X226807Y659857D01*
Y659627D01*
X226845Y659473D01*
X226883Y659089D01*
X226960Y658590D01*
X227152Y658014D01*
X227383Y657399D01*
X227728Y656823D01*
X228189Y656286D01*
X228266Y656247D01*
X228419Y656094D01*
X228727Y655864D01*
X229149Y655633D01*
X229687Y655364D01*
X230301Y655172D01*
X231031Y655019D01*
X231875Y654942D01*
X231530Y651755D01*
X231492D01*
X231376D01*
X231184Y651793D01*
X230954Y651832D01*
X230647Y651908D01*
X230301Y651947D01*
X229533Y652177D01*
X228650Y652484D01*
X227767Y652907D01*
X226883Y653483D01*
X226500Y653790D01*
X226115Y654174D01*
X226077Y654212D01*
X226039Y654289D01*
X225923Y654404D01*
X225808Y654558D01*
X225693Y654788D01*
X225501Y655057D01*
X225347Y655364D01*
X225155Y655710D01*
X225002Y656094D01*
X224810Y656516D01*
X224656Y657015D01*
X224541Y657515D01*
X224311Y658667D01*
X224272Y659281D01*
X224234Y659934D01*
Y660279D01*
X224272Y660548D01*
X224311Y660856D01*
X224349Y661201D01*
X224387Y661585D01*
X224503Y662008D01*
X224733Y662929D01*
X225079Y663889D01*
X225309Y664388D01*
X225578Y664849D01*
X225923Y665271D01*
X226269Y665694D01*
X226308Y665732D01*
X226346Y665771D01*
X226461Y665886D01*
X226615Y666039D01*
X226845Y666193D01*
X227076Y666385D01*
X227651Y666769D01*
X228381Y667153D01*
X229226Y667499D01*
X230186Y667768D01*
X230724Y667806D01*
X231261Y667844D01*
X231338D01*
X231530D01*
X231837Y667806D01*
X232221Y667768D01*
X232682Y667691D01*
X233181Y667576D01*
X233719Y667422D01*
X234256Y667192D01*
X234333Y667153D01*
X234525Y667076D01*
X234794Y666923D01*
X235178Y666692D01*
X235639Y666423D01*
X236176Y666078D01*
X236714Y665617D01*
X237328Y665118D01*
X237405Y665041D01*
X237636Y664849D01*
X237981Y664504D01*
X238212Y664273D01*
X238480Y664004D01*
X238787Y663697D01*
X239133Y663313D01*
X239479Y662929D01*
X239901Y662507D01*
X240323Y662046D01*
X240784Y661508D01*
X241245Y660971D01*
X241783Y660356D01*
X241821Y660318D01*
X241898Y660241D01*
X242013Y660087D01*
X242167Y659895D01*
X242551Y659435D01*
X243050Y658859D01*
X243588Y658283D01*
X244125Y657668D01*
X244586Y657169D01*
X244778Y656977D01*
X244970Y656785D01*
X245008Y656747D01*
X245124Y656670D01*
X245277Y656516D01*
X245507Y656324D01*
X246007Y655902D01*
X246621Y655480D01*
Y667883D01*
X249578D01*
Y651179D01*
D02*
G37*
G36*
Y642846D02*
Y639582D01*
X230378Y634283D01*
X230339D01*
X230263Y634244D01*
X230148Y634206D01*
X229994Y634168D01*
X229571Y634052D01*
X229111Y633937D01*
X228573Y633784D01*
X228112Y633668D01*
X227690Y633553D01*
X227536Y633515D01*
X227421Y633476D01*
X227498D01*
X227690Y633399D01*
X228036Y633323D01*
X228419Y633207D01*
X228919Y633092D01*
X229380Y632977D01*
X229879Y632823D01*
X230378Y632708D01*
X249578Y627409D01*
Y623915D01*
X224349Y617310D01*
Y620727D01*
X240938Y624529D01*
X240976D01*
X241053Y624567D01*
X241207Y624606D01*
X241360Y624644D01*
X241629Y624683D01*
X241898Y624760D01*
X242551Y624913D01*
X243319Y625067D01*
X244202Y625259D01*
X245124Y625412D01*
X246083Y625604D01*
X246045D01*
X245892Y625643D01*
X245700Y625681D01*
X245431Y625758D01*
X245124Y625835D01*
X244778Y625912D01*
X243971Y626142D01*
X243165Y626334D01*
X242397Y626526D01*
X242090Y626603D01*
X241783Y626679D01*
X241552Y626718D01*
X241399Y626756D01*
X224349Y631556D01*
Y635588D01*
X237136Y639198D01*
X237175D01*
X237367Y639275D01*
X237597Y639313D01*
X237943Y639428D01*
X238365Y639505D01*
X238864Y639659D01*
X239440Y639774D01*
X240055Y639928D01*
X240708Y640081D01*
X241399Y640235D01*
X242935Y640580D01*
X244509Y640888D01*
X246083Y641156D01*
X246045D01*
X245968Y641195D01*
X245853D01*
X245661Y641233D01*
X245431Y641310D01*
X245162Y641348D01*
X244855Y641425D01*
X244509Y641502D01*
X243703Y641694D01*
X242743Y641886D01*
X241706Y642155D01*
X240592Y642423D01*
X224349Y646340D01*
Y649720D01*
X249578Y642846D01*
D02*
G37*
G36*
X243203Y614967D02*
X243703Y614891D01*
X244279Y614775D01*
X244931Y614545D01*
X245623Y614276D01*
X246275Y613892D01*
X246352Y613854D01*
X246583Y613662D01*
X246890Y613432D01*
X247274Y613048D01*
X247735Y612587D01*
X248196Y612011D01*
X248618Y611319D01*
X249040Y610552D01*
Y610513D01*
X249079Y610436D01*
X249117Y610321D01*
X249194Y610168D01*
X249271Y609976D01*
X249347Y609745D01*
X249501Y609131D01*
X249693Y608439D01*
X249847Y607595D01*
X249962Y606712D01*
X250000Y605713D01*
Y605137D01*
X249962Y604868D01*
Y604523D01*
X249923Y604139D01*
X249885Y603716D01*
X249770Y602833D01*
X249578Y601873D01*
X249347Y600913D01*
X249040Y599991D01*
Y599953D01*
X249002Y599876D01*
X248925Y599761D01*
X248848Y599607D01*
X248618Y599185D01*
X248272Y598686D01*
X247850Y598072D01*
X247351Y597495D01*
X246736Y596881D01*
X246045Y596343D01*
X246007D01*
X245968Y596305D01*
X245853Y596228D01*
X245700Y596152D01*
X245507Y596036D01*
X245277Y595921D01*
X244701Y595691D01*
X244048Y595460D01*
X243242Y595230D01*
X242397Y595076D01*
X241476Y595000D01*
X241207Y598148D01*
X241245D01*
X241284D01*
X241514Y598187D01*
X241859Y598264D01*
X242320Y598340D01*
X242820Y598494D01*
X243357Y598648D01*
X243856Y598878D01*
X244356Y599147D01*
X244394Y599185D01*
X244548Y599300D01*
X244778Y599492D01*
X245047Y599799D01*
X245354Y600145D01*
X245700Y600567D01*
X246007Y601105D01*
X246314Y601681D01*
Y601720D01*
X246352Y601758D01*
X246429Y601988D01*
X246544Y602334D01*
X246660Y602833D01*
X246813Y603371D01*
X246928Y604062D01*
X247005Y604792D01*
X247043Y605559D01*
Y605867D01*
X247005Y606251D01*
X246967Y606673D01*
X246928Y607211D01*
X246813Y607748D01*
X246698Y608324D01*
X246506Y608900D01*
X246468Y608977D01*
X246391Y609131D01*
X246275Y609399D01*
X246083Y609707D01*
X245853Y610091D01*
X245584Y610436D01*
X245277Y610782D01*
X244931Y611089D01*
X244893Y611128D01*
X244739Y611204D01*
X244548Y611319D01*
X244279Y611473D01*
X243971Y611588D01*
X243588Y611703D01*
X243203Y611780D01*
X242781Y611819D01*
X242743D01*
X242589D01*
X242359Y611780D01*
X242090Y611742D01*
X241744Y611665D01*
X241399Y611511D01*
X241053Y611358D01*
X240708Y611128D01*
X240669Y611089D01*
X240554Y611012D01*
X240400Y610820D01*
X240170Y610590D01*
X239940Y610283D01*
X239709Y609899D01*
X239440Y609399D01*
X239210Y608862D01*
X239172Y608823D01*
X239133Y608670D01*
X239056Y608363D01*
X238980Y608171D01*
X238903Y607940D01*
X238826Y607633D01*
X238749Y607326D01*
X238634Y606942D01*
X238519Y606558D01*
X238404Y606097D01*
X238288Y605559D01*
X238135Y604984D01*
X237981Y604369D01*
Y604331D01*
X237943Y604216D01*
X237904Y604024D01*
X237827Y603793D01*
X237751Y603524D01*
X237674Y603217D01*
X237482Y602487D01*
X237213Y601681D01*
X236944Y600875D01*
X236675Y600145D01*
X236560Y599799D01*
X236407Y599531D01*
Y599492D01*
X236368Y599454D01*
X236215Y599223D01*
X236023Y598916D01*
X235754Y598532D01*
X235408Y598072D01*
X235024Y597649D01*
X234564Y597227D01*
X234064Y596843D01*
X233988Y596804D01*
X233796Y596689D01*
X233527Y596574D01*
X233143Y596420D01*
X232682Y596228D01*
X232144Y596113D01*
X231530Y595998D01*
X230916Y595960D01*
X230877D01*
X230839D01*
X230724D01*
X230570D01*
X230224Y596036D01*
X229763Y596113D01*
X229188Y596228D01*
X228612Y596420D01*
X227959Y596689D01*
X227344Y597035D01*
X227306D01*
X227268Y597073D01*
X227076Y597227D01*
X226768Y597495D01*
X226384Y597841D01*
X226000Y598264D01*
X225578Y598801D01*
X225155Y599454D01*
X224810Y600183D01*
Y600222D01*
X224772Y600260D01*
X224733Y600375D01*
X224656Y600567D01*
X224618Y600760D01*
X224541Y600990D01*
X224349Y601528D01*
X224196Y602219D01*
X224080Y602987D01*
X223965Y603870D01*
X223927Y604792D01*
Y605252D01*
X223965Y605521D01*
Y605790D01*
X224042Y606443D01*
X224157Y607211D01*
X224311Y608056D01*
X224541Y608900D01*
X224848Y609707D01*
Y609745D01*
X224887Y609784D01*
X224925Y609899D01*
X225002Y610052D01*
X225232Y610436D01*
X225501Y610936D01*
X225885Y611473D01*
X226346Y612011D01*
X226883Y612548D01*
X227498Y613009D01*
X227575Y613048D01*
X227805Y613201D01*
X228189Y613393D01*
X228650Y613585D01*
X229226Y613816D01*
X229917Y614046D01*
X230647Y614199D01*
X231453Y614276D01*
X231684Y611089D01*
X231645D01*
X231568D01*
X231453Y611051D01*
X231299Y611012D01*
X230877Y610936D01*
X230339Y610782D01*
X229763Y610552D01*
X229188Y610244D01*
X228612Y609822D01*
X228112Y609323D01*
X228074Y609246D01*
X227920Y609054D01*
X227728Y608708D01*
X227498Y608247D01*
X227268Y607633D01*
X227076Y606865D01*
X226922Y605982D01*
X226883Y604945D01*
Y604446D01*
X226922Y604216D01*
Y603908D01*
X227037Y603255D01*
X227152Y602526D01*
X227344Y601796D01*
X227613Y601105D01*
X227805Y600798D01*
X227997Y600529D01*
X228036Y600491D01*
X228189Y600337D01*
X228419Y600107D01*
X228765Y599876D01*
X229149Y599607D01*
X229610Y599415D01*
X230109Y599262D01*
X230685Y599185D01*
X230762D01*
X230916D01*
X231184Y599223D01*
X231492Y599300D01*
X231837Y599415D01*
X232221Y599607D01*
X232567Y599838D01*
X232912Y600145D01*
X232951Y600183D01*
X233066Y600375D01*
X233143Y600491D01*
X233258Y600644D01*
X233335Y600875D01*
X233450Y601144D01*
X233603Y601451D01*
X233757Y601796D01*
X233872Y602180D01*
X234026Y602641D01*
X234218Y603179D01*
X234371Y603755D01*
X234525Y604408D01*
X234717Y605137D01*
Y605176D01*
X234756Y605329D01*
X234794Y605521D01*
X234871Y605790D01*
X234947Y606135D01*
X235063Y606519D01*
X235255Y607364D01*
X235524Y608286D01*
X235792Y609207D01*
X235907Y609668D01*
X236061Y610052D01*
X236215Y610436D01*
X236330Y610744D01*
Y610782D01*
X236368Y610859D01*
X236445Y610936D01*
X236522Y611089D01*
X236752Y611473D01*
X237021Y611972D01*
X237405Y612510D01*
X237866Y613048D01*
X238365Y613547D01*
X238903Y613969D01*
X238980Y614008D01*
X239172Y614123D01*
X239479Y614315D01*
X239940Y614507D01*
X240439Y614699D01*
X241053Y614891D01*
X241744Y615006D01*
X242474Y615044D01*
X242512D01*
X242551D01*
X242666D01*
X242820D01*
X243203Y614967D01*
D02*
G37*
G36*
X249578Y270164D02*
X229840D01*
X229879Y270126D01*
X230032Y269972D01*
X230224Y269704D01*
X230493Y269358D01*
X230839Y268935D01*
X231184Y268436D01*
X231607Y267860D01*
X231991Y267207D01*
Y267169D01*
X232029Y267131D01*
X232183Y266900D01*
X232375Y266555D01*
X232605Y266132D01*
X232874Y265633D01*
X233104Y265096D01*
X233373Y264519D01*
X233603Y263982D01*
X230570D01*
Y264020D01*
X230531Y264097D01*
X230455Y264251D01*
X230339Y264404D01*
X230224Y264635D01*
X230109Y264904D01*
X229763Y265518D01*
X229341Y266209D01*
X228842Y266977D01*
X228266Y267745D01*
X227651Y268475D01*
X227613Y268513D01*
X227575Y268551D01*
X227344Y268782D01*
X226999Y269127D01*
X226576Y269550D01*
X226039Y270011D01*
X225463Y270471D01*
X224848Y270894D01*
X224234Y271240D01*
Y273275D01*
X249578D01*
Y270164D01*
D02*
G37*
G36*
Y252846D02*
Y249582D01*
X230378Y244283D01*
X230339D01*
X230263Y244244D01*
X230148Y244206D01*
X229994Y244167D01*
X229571Y244052D01*
X229111Y243937D01*
X228573Y243784D01*
X228112Y243668D01*
X227690Y243553D01*
X227536Y243515D01*
X227421Y243476D01*
X227498D01*
X227690Y243399D01*
X228036Y243323D01*
X228419Y243208D01*
X228919Y243092D01*
X229380Y242977D01*
X229879Y242823D01*
X230378Y242708D01*
X249578Y237409D01*
Y233915D01*
X224349Y227310D01*
Y230727D01*
X240938Y234529D01*
X240976D01*
X241053Y234567D01*
X241207Y234606D01*
X241360Y234644D01*
X241629Y234683D01*
X241898Y234760D01*
X242551Y234913D01*
X243319Y235067D01*
X244202Y235259D01*
X245124Y235412D01*
X246083Y235604D01*
X246045D01*
X245892Y235643D01*
X245700Y235681D01*
X245431Y235758D01*
X245124Y235835D01*
X244778Y235911D01*
X243971Y236142D01*
X243165Y236334D01*
X242397Y236526D01*
X242090Y236603D01*
X241783Y236679D01*
X241552Y236718D01*
X241399Y236756D01*
X224349Y241556D01*
Y245588D01*
X237136Y249198D01*
X237175D01*
X237367Y249275D01*
X237597Y249313D01*
X237943Y249428D01*
X238365Y249505D01*
X238864Y249659D01*
X239440Y249774D01*
X240055Y249928D01*
X240708Y250081D01*
X241399Y250235D01*
X242935Y250580D01*
X244509Y250887D01*
X246083Y251156D01*
X246045D01*
X245968Y251195D01*
X245853D01*
X245661Y251233D01*
X245431Y251310D01*
X245162Y251348D01*
X244855Y251425D01*
X244509Y251502D01*
X243703Y251694D01*
X242743Y251886D01*
X241706Y252155D01*
X240592Y252423D01*
X224349Y256340D01*
Y259719D01*
X249578Y252846D01*
D02*
G37*
G36*
X243203Y224968D02*
X243703Y224891D01*
X244279Y224775D01*
X244931Y224545D01*
X245623Y224276D01*
X246275Y223892D01*
X246352Y223854D01*
X246583Y223662D01*
X246890Y223431D01*
X247274Y223048D01*
X247735Y222587D01*
X248196Y222011D01*
X248618Y221320D01*
X249040Y220552D01*
Y220513D01*
X249079Y220436D01*
X249117Y220321D01*
X249194Y220167D01*
X249271Y219976D01*
X249347Y219745D01*
X249501Y219131D01*
X249693Y218440D01*
X249847Y217595D01*
X249962Y216712D01*
X250000Y215713D01*
Y215137D01*
X249962Y214868D01*
Y214523D01*
X249923Y214139D01*
X249885Y213716D01*
X249770Y212833D01*
X249578Y211873D01*
X249347Y210913D01*
X249040Y209992D01*
Y209953D01*
X249002Y209876D01*
X248925Y209761D01*
X248848Y209607D01*
X248618Y209185D01*
X248272Y208686D01*
X247850Y208071D01*
X247351Y207495D01*
X246736Y206881D01*
X246045Y206344D01*
X246007D01*
X245968Y206305D01*
X245853Y206228D01*
X245700Y206151D01*
X245507Y206036D01*
X245277Y205921D01*
X244701Y205691D01*
X244048Y205460D01*
X243242Y205230D01*
X242397Y205076D01*
X241476Y205000D01*
X241207Y208148D01*
X241245D01*
X241284D01*
X241514Y208187D01*
X241859Y208263D01*
X242320Y208340D01*
X242820Y208494D01*
X243357Y208648D01*
X243856Y208878D01*
X244356Y209147D01*
X244394Y209185D01*
X244548Y209300D01*
X244778Y209492D01*
X245047Y209799D01*
X245354Y210145D01*
X245700Y210567D01*
X246007Y211105D01*
X246314Y211681D01*
Y211720D01*
X246352Y211758D01*
X246429Y211988D01*
X246544Y212334D01*
X246660Y212833D01*
X246813Y213371D01*
X246928Y214062D01*
X247005Y214792D01*
X247043Y215560D01*
Y215867D01*
X247005Y216251D01*
X246967Y216673D01*
X246928Y217211D01*
X246813Y217748D01*
X246698Y218324D01*
X246506Y218900D01*
X246468Y218977D01*
X246391Y219131D01*
X246275Y219399D01*
X246083Y219707D01*
X245853Y220091D01*
X245584Y220436D01*
X245277Y220782D01*
X244931Y221089D01*
X244893Y221127D01*
X244739Y221204D01*
X244548Y221320D01*
X244279Y221473D01*
X243971Y221588D01*
X243588Y221703D01*
X243203Y221780D01*
X242781Y221819D01*
X242743D01*
X242589D01*
X242359Y221780D01*
X242090Y221742D01*
X241744Y221665D01*
X241399Y221512D01*
X241053Y221358D01*
X240708Y221127D01*
X240669Y221089D01*
X240554Y221012D01*
X240400Y220820D01*
X240170Y220590D01*
X239940Y220283D01*
X239709Y219899D01*
X239440Y219399D01*
X239210Y218862D01*
X239172Y218823D01*
X239133Y218670D01*
X239056Y218363D01*
X238980Y218171D01*
X238903Y217940D01*
X238826Y217633D01*
X238749Y217326D01*
X238634Y216942D01*
X238519Y216558D01*
X238404Y216097D01*
X238288Y215560D01*
X238135Y214983D01*
X237981Y214369D01*
Y214331D01*
X237943Y214215D01*
X237904Y214024D01*
X237827Y213793D01*
X237751Y213524D01*
X237674Y213217D01*
X237482Y212488D01*
X237213Y211681D01*
X236944Y210875D01*
X236675Y210145D01*
X236560Y209799D01*
X236407Y209531D01*
Y209492D01*
X236368Y209454D01*
X236215Y209224D01*
X236023Y208916D01*
X235754Y208532D01*
X235408Y208071D01*
X235024Y207649D01*
X234564Y207227D01*
X234064Y206843D01*
X233988Y206804D01*
X233796Y206689D01*
X233527Y206574D01*
X233143Y206420D01*
X232682Y206228D01*
X232144Y206113D01*
X231530Y205998D01*
X230916Y205959D01*
X230877D01*
X230839D01*
X230724D01*
X230570D01*
X230224Y206036D01*
X229763Y206113D01*
X229188Y206228D01*
X228612Y206420D01*
X227959Y206689D01*
X227344Y207035D01*
X227306D01*
X227268Y207073D01*
X227076Y207227D01*
X226768Y207495D01*
X226384Y207841D01*
X226000Y208263D01*
X225578Y208801D01*
X225155Y209454D01*
X224810Y210184D01*
Y210222D01*
X224772Y210260D01*
X224733Y210375D01*
X224656Y210567D01*
X224618Y210760D01*
X224541Y210990D01*
X224349Y211528D01*
X224196Y212219D01*
X224080Y212987D01*
X223965Y213870D01*
X223927Y214792D01*
Y215252D01*
X223965Y215521D01*
Y215790D01*
X224042Y216443D01*
X224157Y217211D01*
X224311Y218055D01*
X224541Y218900D01*
X224848Y219707D01*
Y219745D01*
X224887Y219784D01*
X224925Y219899D01*
X225002Y220052D01*
X225232Y220436D01*
X225501Y220935D01*
X225885Y221473D01*
X226346Y222011D01*
X226883Y222548D01*
X227498Y223009D01*
X227575Y223048D01*
X227805Y223201D01*
X228189Y223393D01*
X228650Y223585D01*
X229226Y223815D01*
X229917Y224046D01*
X230647Y224200D01*
X231453Y224276D01*
X231684Y221089D01*
X231645D01*
X231568D01*
X231453Y221051D01*
X231299Y221012D01*
X230877Y220935D01*
X230339Y220782D01*
X229763Y220552D01*
X229188Y220244D01*
X228612Y219822D01*
X228112Y219323D01*
X228074Y219246D01*
X227920Y219054D01*
X227728Y218708D01*
X227498Y218248D01*
X227268Y217633D01*
X227076Y216865D01*
X226922Y215982D01*
X226883Y214945D01*
Y214446D01*
X226922Y214215D01*
Y213908D01*
X227037Y213256D01*
X227152Y212526D01*
X227344Y211796D01*
X227613Y211105D01*
X227805Y210798D01*
X227997Y210529D01*
X228036Y210491D01*
X228189Y210337D01*
X228419Y210107D01*
X228765Y209876D01*
X229149Y209607D01*
X229610Y209416D01*
X230109Y209262D01*
X230685Y209185D01*
X230762D01*
X230916D01*
X231184Y209224D01*
X231492Y209300D01*
X231837Y209416D01*
X232221Y209607D01*
X232567Y209838D01*
X232912Y210145D01*
X232951Y210184D01*
X233066Y210375D01*
X233143Y210491D01*
X233258Y210644D01*
X233335Y210875D01*
X233450Y211143D01*
X233603Y211451D01*
X233757Y211796D01*
X233872Y212180D01*
X234026Y212641D01*
X234218Y213179D01*
X234371Y213755D01*
X234525Y214407D01*
X234717Y215137D01*
Y215175D01*
X234756Y215329D01*
X234794Y215521D01*
X234871Y215790D01*
X234947Y216136D01*
X235063Y216519D01*
X235255Y217364D01*
X235524Y218286D01*
X235792Y219208D01*
X235907Y219668D01*
X236061Y220052D01*
X236215Y220436D01*
X236330Y220744D01*
Y220782D01*
X236368Y220859D01*
X236445Y220935D01*
X236522Y221089D01*
X236752Y221473D01*
X237021Y221972D01*
X237405Y222510D01*
X237866Y223048D01*
X238365Y223547D01*
X238903Y223969D01*
X238980Y224007D01*
X239172Y224123D01*
X239479Y224315D01*
X239940Y224507D01*
X240439Y224699D01*
X241053Y224891D01*
X241744Y225006D01*
X242474Y225044D01*
X242512D01*
X242551D01*
X242666D01*
X242820D01*
X243203Y224968D01*
D02*
G37*
%LPC*%
G36*
X3531660Y389031D02*
X3525900D01*
X3525477Y388993D01*
X3524901Y388955D01*
X3524287Y388916D01*
X3523634Y388839D01*
X3523020Y388724D01*
X3522444Y388571D01*
X3522367Y388532D01*
X3522213Y388494D01*
X3521945Y388379D01*
X3521637Y388225D01*
X3521253Y388033D01*
X3520869Y387841D01*
X3520524Y387572D01*
X3520178Y387265D01*
X3520140Y387227D01*
X3519986Y387035D01*
X3519756Y386766D01*
X3519487Y386420D01*
X3519218Y385959D01*
X3518911Y385422D01*
X3518604Y384769D01*
X3518335Y384078D01*
Y384039D01*
X3518297Y384001D01*
X3518258Y383886D01*
X3518220Y383732D01*
X3518182Y383540D01*
X3518105Y383310D01*
X3517990Y382734D01*
X3517874Y382004D01*
X3517759Y381159D01*
X3517682Y380238D01*
X3517644Y379201D01*
Y379163D01*
Y379009D01*
Y378817D01*
Y378548D01*
X3517682Y378203D01*
X3517721Y377819D01*
X3517759Y377396D01*
X3517798Y376974D01*
X3517951Y375975D01*
X3518182Y374977D01*
X3518527Y374017D01*
X3518719Y373556D01*
X3518950Y373134D01*
Y373095D01*
X3519026Y373057D01*
X3519065Y372942D01*
X3519180Y372788D01*
X3519449Y372404D01*
X3519833Y371982D01*
X3520294Y371483D01*
X3520831Y371022D01*
X3521445Y370599D01*
X3522098Y370254D01*
X3522175Y370215D01*
X3522367Y370177D01*
X3522674Y370100D01*
X3523135Y369985D01*
X3523749Y369870D01*
X3524479Y369793D01*
X3525362Y369755D01*
X3526399Y369716D01*
X3531660D01*
Y389031D01*
D02*
G37*
G36*
X3382848Y616660D02*
X3374515D01*
Y609134D01*
X3374553Y608711D01*
X3374592Y608212D01*
X3374630Y607636D01*
X3374707Y607022D01*
X3374822Y606446D01*
X3374976Y605947D01*
X3375014Y605870D01*
X3375052Y605716D01*
X3375168Y605486D01*
X3375321Y605217D01*
X3375552Y604910D01*
X3375820Y604564D01*
X3376128Y604257D01*
X3376473Y603988D01*
X3376512Y603950D01*
X3376665Y603873D01*
X3376857Y603758D01*
X3377164Y603643D01*
X3377472Y603527D01*
X3377856Y603412D01*
X3378278Y603335D01*
X3378739Y603297D01*
X3378777D01*
X3378816D01*
X3379046D01*
X3379353Y603374D01*
X3379776Y603451D01*
X3380236Y603604D01*
X3380736Y603835D01*
X3381235Y604180D01*
X3381696Y604603D01*
X3381734Y604679D01*
X3381888Y604833D01*
X3382080Y605179D01*
X3382272Y605601D01*
X3382502Y606177D01*
X3382656Y606868D01*
X3382809Y607713D01*
X3382848Y608711D01*
Y616660D01*
D02*
G37*
G36*
X3373977Y573115D02*
X3372864D01*
X3372787D01*
X3372595D01*
X3372288D01*
X3371865Y573076D01*
X3371366D01*
X3370790Y573038D01*
X3370137Y572999D01*
X3369484Y572923D01*
X3368102Y572769D01*
X3366720Y572500D01*
X3366105Y572347D01*
X3365529Y572155D01*
X3364992Y571924D01*
X3364569Y571694D01*
X3364531D01*
X3364492Y571617D01*
X3364262Y571425D01*
X3363916Y571118D01*
X3363571Y570695D01*
X3363187Y570158D01*
X3362841Y569543D01*
X3362611Y568852D01*
X3362572Y568468D01*
X3362534Y568084D01*
Y567892D01*
X3362572Y567739D01*
X3362649Y567355D01*
X3362803Y566855D01*
X3363033Y566279D01*
X3363379Y565703D01*
X3363609Y565396D01*
X3363916Y565089D01*
X3364224Y564782D01*
X3364569Y564513D01*
X3364608D01*
X3364684Y564436D01*
X3364800Y564359D01*
X3364992Y564283D01*
X3365222Y564167D01*
X3365568Y564052D01*
X3365952Y563937D01*
X3366374Y563783D01*
X3366912Y563630D01*
X3367488Y563515D01*
X3368179Y563399D01*
X3368947Y563284D01*
X3369792Y563169D01*
X3370713Y563131D01*
X3371750Y563054D01*
X3372864D01*
X3372940D01*
X3373132D01*
X3373440D01*
X3373862Y563092D01*
X3374361D01*
X3374937Y563131D01*
X3375552Y563169D01*
X3376243Y563246D01*
X3377625Y563399D01*
X3378969Y563668D01*
X3379622Y563822D01*
X3380198Y564014D01*
X3380697Y564244D01*
X3381120Y564513D01*
X3381158D01*
X3381196Y564590D01*
X3381427Y564782D01*
X3381772Y565089D01*
X3382156Y565511D01*
X3382540Y566049D01*
X3382886Y566663D01*
X3383116Y567355D01*
X3383155Y567739D01*
X3383193Y568123D01*
Y568315D01*
X3383155Y568468D01*
X3383116Y568852D01*
X3382963Y569351D01*
X3382732Y569889D01*
X3382425Y570465D01*
X3381964Y571041D01*
X3381657Y571310D01*
X3381350Y571540D01*
X3381312D01*
X3381235Y571617D01*
X3381081Y571694D01*
X3380889Y571771D01*
X3380620Y571886D01*
X3380313Y572039D01*
X3379891Y572193D01*
X3379430Y572308D01*
X3378892Y572462D01*
X3378278Y572615D01*
X3377587Y572731D01*
X3376780Y572884D01*
X3375936Y572961D01*
X3375014Y573038D01*
X3373977Y573115D01*
D02*
G37*
G36*
X3686659Y607043D02*
X3680899D01*
X3680477Y607005D01*
X3679901Y606967D01*
X3679287Y606928D01*
X3678634Y606851D01*
X3678019Y606736D01*
X3677443Y606583D01*
X3677367Y606544D01*
X3677213Y606506D01*
X3676944Y606391D01*
X3676637Y606237D01*
X3676253Y606045D01*
X3675869Y605853D01*
X3675523Y605584D01*
X3675178Y605277D01*
X3675139Y605239D01*
X3674986Y605047D01*
X3674755Y604778D01*
X3674486Y604432D01*
X3674218Y603971D01*
X3673910Y603434D01*
X3673603Y602781D01*
X3673334Y602090D01*
Y602052D01*
X3673296Y602013D01*
X3673258Y601898D01*
X3673219Y601744D01*
X3673181Y601552D01*
X3673104Y601322D01*
X3672989Y600746D01*
X3672874Y600016D01*
X3672758Y599172D01*
X3672682Y598250D01*
X3672643Y597213D01*
Y597175D01*
Y597021D01*
Y596829D01*
Y596560D01*
X3672682Y596215D01*
X3672720Y595831D01*
X3672758Y595408D01*
X3672797Y594986D01*
X3672950Y593987D01*
X3673181Y592989D01*
X3673526Y592029D01*
X3673718Y591568D01*
X3673949Y591146D01*
Y591107D01*
X3674026Y591069D01*
X3674064Y590954D01*
X3674179Y590800D01*
X3674448Y590416D01*
X3674832Y589994D01*
X3675293Y589495D01*
X3675831Y589034D01*
X3676445Y588611D01*
X3677098Y588266D01*
X3677175Y588227D01*
X3677367Y588189D01*
X3677674Y588112D01*
X3678135Y587997D01*
X3678749Y587882D01*
X3679479Y587805D01*
X3680362Y587767D01*
X3681398Y587728D01*
X3686659D01*
Y607043D01*
D02*
G37*
G36*
X3736119Y384809D02*
X3716804D01*
Y379049D01*
X3716842Y378627D01*
X3716881Y378050D01*
X3716919Y377436D01*
X3716996Y376783D01*
X3717111Y376169D01*
X3717265Y375593D01*
X3717303Y375516D01*
X3717341Y375363D01*
X3717457Y375094D01*
X3717610Y374786D01*
X3717802Y374402D01*
X3717994Y374019D01*
X3718263Y373673D01*
X3718570Y373327D01*
X3718609Y373289D01*
X3718801Y373135D01*
X3719070Y372905D01*
X3719415Y372636D01*
X3719876Y372367D01*
X3720414Y372060D01*
X3721066Y371753D01*
X3721758Y371484D01*
X3721796D01*
X3721834Y371446D01*
X3721950Y371407D01*
X3722103Y371369D01*
X3722295Y371330D01*
X3722526Y371254D01*
X3723102Y371139D01*
X3723831Y371023D01*
X3724676Y370908D01*
X3725597Y370831D01*
X3726634Y370793D01*
X3726673D01*
X3726826D01*
X3727018D01*
X3727287D01*
X3727633Y370831D01*
X3728017Y370870D01*
X3728439Y370908D01*
X3728861Y370947D01*
X3729860Y371100D01*
X3730858Y371330D01*
X3731818Y371676D01*
X3732279Y371868D01*
X3732702Y372099D01*
X3732740D01*
X3732778Y372175D01*
X3732894Y372214D01*
X3733047Y372329D01*
X3733431Y372598D01*
X3733854Y372982D01*
X3734353Y373442D01*
X3734814Y373980D01*
X3735236Y374594D01*
X3735581Y375247D01*
X3735620Y375324D01*
X3735658Y375516D01*
X3735735Y375823D01*
X3735850Y376284D01*
X3735965Y376899D01*
X3736042Y377628D01*
X3736081Y378511D01*
X3736119Y379548D01*
Y384809D01*
D02*
G37*
G36*
X3732778Y359849D02*
X3732702D01*
X3732471D01*
X3732164Y359772D01*
X3731742Y359695D01*
X3731281Y359580D01*
X3730820Y359388D01*
X3730321Y359119D01*
X3729860Y358735D01*
X3729822Y358697D01*
X3729706Y358543D01*
X3729514Y358274D01*
X3729322Y357929D01*
X3729092Y357507D01*
X3728938Y356969D01*
X3728785Y356393D01*
X3728746Y355740D01*
Y355433D01*
X3728823Y355126D01*
X3728900Y354703D01*
X3729015Y354243D01*
X3729207Y353743D01*
X3729476Y353244D01*
X3729860Y352783D01*
X3729898Y352745D01*
X3730052Y352591D01*
X3730282Y352399D01*
X3730628Y352207D01*
X3731012Y351977D01*
X3731511Y351823D01*
X3732049Y351670D01*
X3732625Y351631D01*
X3732663D01*
X3732702D01*
X3732894D01*
X3733239Y351708D01*
X3733623Y351785D01*
X3734046Y351938D01*
X3734545Y352130D01*
X3735006Y352438D01*
X3735466Y352822D01*
X3735505Y352860D01*
X3735658Y353014D01*
X3735850Y353283D01*
X3736081Y353628D01*
X3736273Y354050D01*
X3736465Y354550D01*
X3736618Y355087D01*
X3736657Y355740D01*
Y356047D01*
X3736580Y356354D01*
X3736503Y356777D01*
X3736388Y357238D01*
X3736157Y357737D01*
X3735889Y358236D01*
X3735505Y358697D01*
X3735466Y358735D01*
X3735313Y358889D01*
X3735044Y359043D01*
X3734737Y359273D01*
X3734353Y359465D01*
X3733854Y359657D01*
X3733354Y359810D01*
X3732778Y359849D01*
D02*
G37*
G36*
X3721105Y360847D02*
X3721066D01*
X3720874D01*
X3720644Y360809D01*
X3720298Y360771D01*
X3719914Y360694D01*
X3719454Y360579D01*
X3718993Y360425D01*
X3718532Y360233D01*
X3718494Y360195D01*
X3718340Y360118D01*
X3718110Y359964D01*
X3717841Y359772D01*
X3717534Y359503D01*
X3717188Y359196D01*
X3716881Y358812D01*
X3716612Y358390D01*
X3716573Y358313D01*
X3716497Y358159D01*
X3716420Y357929D01*
X3716305Y357583D01*
X3716151Y357161D01*
X3716074Y356738D01*
X3715997Y356239D01*
X3715959Y355702D01*
Y355471D01*
X3715997Y355318D01*
X3716036Y354934D01*
X3716151Y354396D01*
X3716305Y353820D01*
X3716573Y353206D01*
X3716919Y352630D01*
X3717380Y352054D01*
X3717457Y351977D01*
X3717649Y351823D01*
X3717956Y351593D01*
X3718378Y351324D01*
X3718878Y351055D01*
X3719530Y350825D01*
X3720222Y350671D01*
X3721028Y350594D01*
X3721066D01*
X3721143D01*
X3721258D01*
X3721412Y350633D01*
X3721796Y350671D01*
X3722334Y350786D01*
X3722910Y350940D01*
X3723524Y351209D01*
X3724138Y351593D01*
X3724714Y352092D01*
X3724791Y352169D01*
X3724945Y352361D01*
X3725175Y352668D01*
X3725482Y353091D01*
X3725751Y353628D01*
X3725981Y354281D01*
X3726135Y355010D01*
X3726212Y355817D01*
Y356009D01*
X3726173Y356163D01*
X3726135Y356585D01*
X3726020Y357084D01*
X3725866Y357660D01*
X3725597Y358274D01*
X3725252Y358851D01*
X3724753Y359426D01*
X3724676Y359503D01*
X3724484Y359657D01*
X3724177Y359887D01*
X3723754Y360118D01*
X3723217Y360387D01*
X3722602Y360617D01*
X3721873Y360771D01*
X3721105Y360847D01*
D02*
G37*
%LPD*%
D129*
X3403110Y323582D02*
X3666890Y323582D01*
X3403110Y323582D02*
X3403111Y446418D01*
X3666890Y446418D01*
X3666890Y323582D01*
X3291103Y757918D02*
X3428898Y757917D01*
X3291103Y757918D02*
X3291103Y482082D01*
X3428897Y482082D01*
X3428898Y757917D01*
X3764409Y535591D02*
X3764409Y684410D01*
X3615590Y684410D02*
X3764409Y684410D01*
X3615590Y535590D02*
Y684410D01*
Y535590D02*
X3764409Y535591D01*
X3697213Y437362D02*
X3744457Y437362D01*
X3697213Y437362D02*
X3697214Y338937D01*
X3744457D01*
X3744457Y437362D01*
X2796063Y668402D02*
X2796063Y731394D01*
X2693700Y731394D02*
X2796063Y731394D01*
X2693700Y668401D02*
Y731394D01*
Y668401D02*
X2796063Y668402D01*
X1707362Y37953D02*
Y282048D01*
X1302638Y282047D02*
X1707362Y282048D01*
X1302638Y37953D02*
X1302638Y282047D01*
X1302638Y37953D02*
X1707362Y37953D01*
X124016Y432598D02*
X375984D01*
Y757402D01*
X124016D02*
X375984D01*
X124016Y432598D02*
Y757402D01*
Y42598D02*
X375984D01*
Y367402D01*
X124016D02*
X375984D01*
X124016Y42598D02*
Y367402D01*
%TF.MD5,d458bfe11ad629c4a666dc24b370fd2d*%
M02*
