%TF.GenerationSoftware,Altium Limited,Altium Designer,22.2.1 (43)*%
G04 Layer_Physical_Order=3*
G04 Layer_Color=128*
%FSLAX26Y26*%
%MOIN*%
%TF.SameCoordinates,49CA406D-FE3E-4379-A0B2-47437619DC98*%
%TF.FilePolarity,Negative*%
%TF.FileFunction,Copper,L3,Inr,Plane*%
%TF.Part,Single*%
G01*
G75*
%TA.AperFunction,ViaPad*%
%ADD64C,0.028000*%
%TA.AperFunction,NonConductor*%
%ADD67C,0.020000*%
%ADD68C,0.040000*%
%TA.AperFunction,ComponentPad*%
%ADD69C,0.047496*%
%ADD70C,0.061276*%
%ADD71C,0.091000*%
%ADD72C,0.043559*%
%ADD73C,0.051000*%
%ADD74C,0.045528*%
%ADD75C,0.055370*%
%TA.AperFunction,ViaPad*%
%ADD76C,0.134110*%
%ADD77C,0.031000*%
%ADD78C,0.044000*%
%ADD79C,0.023874*%
D64*
X3210000Y800000D02*
D03*
X3120000D02*
D03*
X2327493Y80000D02*
D03*
X2013786Y612929D02*
D03*
X394882Y854882D02*
D03*
X1751457Y236944D02*
D03*
X2276661Y233339D02*
D03*
X3690000Y610000D02*
D03*
Y665000D02*
D03*
X3415000Y570000D02*
D03*
X3385000D02*
D03*
X3350000D02*
D03*
X3845000Y1120000D02*
D03*
X3785000D02*
D03*
X3730000D02*
D03*
X2628330Y843268D02*
D03*
X1880000Y465000D02*
D03*
X2126924Y711924D02*
D03*
X2885000Y390000D02*
D03*
Y440000D02*
D03*
X3260000Y1035000D02*
D03*
X3260000Y970000D02*
D03*
X2615000Y390000D02*
D03*
X2520000Y440000D02*
D03*
X2580000Y410000D02*
D03*
D67*
X3210000Y875000D02*
Y1015000D01*
X2770000D02*
X3210000D01*
X2770000Y260000D02*
Y1015000D01*
X1605000Y10000D02*
Y175000D01*
X3210000Y875000D02*
X3905000D01*
X3210000Y535000D02*
Y875000D01*
Y535000D02*
X3355000D01*
Y260000D02*
Y535000D01*
X2445000Y260000D02*
X3355000D01*
X2445000D02*
Y385000D01*
X2210000D02*
X2445000D01*
X2210000Y180000D02*
Y385000D01*
X1910000Y180000D02*
X2210000D01*
X1910000D02*
Y395000D01*
X1790000D02*
X1910000D01*
X1790000Y175000D02*
Y395000D01*
X1605000Y175000D02*
X1790000D01*
D68*
X0Y0D02*
Y1230000D01*
X3920000D01*
Y0D02*
Y1230000D01*
X0Y0D02*
X3920000D01*
D69*
X3220000Y1050000D02*
D03*
X3141260Y1050000D02*
D03*
X2983779Y1050000D02*
D03*
X2905040D02*
D03*
X2826299Y1050000D02*
D03*
X2747559Y1050000D02*
D03*
X2668819Y1050000D02*
D03*
X2590078Y1050001D02*
D03*
X2511338Y1050000D02*
D03*
X2432599Y1050000D02*
D03*
X2353858Y1050000D02*
D03*
X2275118Y1050000D02*
D03*
X2196377D02*
D03*
X2117637D02*
D03*
X2038898Y1050001D02*
D03*
X1960157Y1050000D02*
D03*
X1881417Y1050001D02*
D03*
X1802677Y1050000D02*
D03*
X1723936Y1049999D02*
D03*
X1645196D02*
D03*
X1566456Y1050000D02*
D03*
X1487716Y1050000D02*
D03*
X1408976Y1050000D02*
D03*
X1330235Y1050000D02*
D03*
X1251495Y1050000D02*
D03*
X1094015Y1050001D02*
D03*
X1015275Y1050000D02*
D03*
X936534D02*
D03*
X857795Y1050000D02*
D03*
X779054Y1049999D02*
D03*
X621574Y1050000D02*
D03*
X542834Y1050001D02*
D03*
X1681851Y579999D02*
D03*
D70*
X1288150Y580000D02*
D03*
D71*
X460000Y100000D02*
D03*
D72*
X3763544Y291693D02*
D03*
X3763543Y128307D02*
D03*
D73*
X1690000Y915000D02*
D03*
X1790000D02*
D03*
X1890000Y914999D02*
D03*
X1990000Y915000D02*
D03*
X2090000Y915000D02*
D03*
D74*
X1355394Y97008D02*
D03*
X1442008Y97008D02*
D03*
X1528622Y97008D02*
D03*
X1355393Y222992D02*
D03*
X1442008D02*
D03*
X1528622Y222992D02*
D03*
X1654607D02*
D03*
D75*
X161417Y467047D02*
D03*
Y722953D02*
D03*
X338583Y467047D02*
D03*
Y722953D02*
D03*
X161417Y77047D02*
D03*
Y332953D02*
D03*
X338583Y77047D02*
D03*
Y332953D02*
D03*
D76*
X137795Y1102362D02*
D03*
X3602362Y110236D02*
D03*
D77*
X1144409Y700591D02*
D03*
X755000Y670000D02*
D03*
X777716Y732716D02*
D03*
X1125000Y475000D02*
D03*
X2000000Y745000D02*
D03*
X2165000Y595880D02*
D03*
X3375001Y385001D02*
D03*
X1736314Y348685D02*
D03*
X1725765Y114235D02*
D03*
X1873358Y103358D02*
D03*
X1871265Y241265D02*
D03*
X2405000Y205000D02*
D03*
X2341992Y113008D02*
D03*
X2250000Y345000D02*
D03*
X2885000Y320000D02*
D03*
X2845000Y645000D02*
D03*
X3314409Y460591D02*
D03*
X2160457Y329543D02*
D03*
X2282401Y187598D02*
D03*
X2260000Y205000D02*
D03*
X1890000Y60000D02*
D03*
X1752394Y191205D02*
D03*
X3415000Y160000D02*
D03*
X2645000Y1005000D02*
D03*
X2590000Y950000D02*
D03*
X2084756Y499756D02*
D03*
X2671753Y943247D02*
D03*
X3701181Y158819D02*
D03*
X1250000Y375000D02*
D03*
X1160000Y365000D02*
D03*
X717519Y107519D02*
D03*
X718741Y186259D02*
D03*
X720000Y265000D02*
D03*
X2450000Y595000D02*
D03*
X1075591Y904409D02*
D03*
X1279995Y979995D02*
D03*
X3315000Y905000D02*
D03*
X1880000Y500000D02*
D03*
X1935000Y492385D02*
D03*
X1960834Y489451D02*
D03*
X2250000Y430000D02*
D03*
X2045000Y390445D02*
D03*
X2073920Y391080D02*
D03*
X1775000Y780000D02*
D03*
X400000Y940000D02*
D03*
X1985000Y400023D02*
D03*
X1160000Y445000D02*
D03*
X2110000Y750902D02*
D03*
X2085000Y775000D02*
D03*
X901851Y768149D02*
D03*
X920000Y630000D02*
D03*
X3091732Y318268D02*
D03*
X2250000Y385000D02*
D03*
X1935000Y345000D02*
D03*
X2000000D02*
D03*
X950000Y650000D02*
D03*
X585000Y685000D02*
D03*
X863622Y598622D02*
D03*
X863358Y496642D02*
D03*
X3214995Y39995D02*
D03*
X2119183Y676568D02*
D03*
X3780000Y480000D02*
D03*
X3720000D02*
D03*
X3465000Y373055D02*
D03*
X2705709Y444291D02*
D03*
D78*
X2874803Y735197D02*
D03*
X3450000Y1070000D02*
D03*
X3525000Y975000D02*
D03*
D79*
X3755000Y873485D02*
D03*
X3794370Y873485D02*
D03*
X3833740Y873484D02*
D03*
X3676260Y873485D02*
D03*
X3715629Y873484D02*
D03*
X3755000Y991594D02*
D03*
X3833740Y991594D02*
D03*
X3715630Y991593D02*
D03*
X3676259Y991595D02*
D03*
X3794370Y991595D02*
D03*
X3715631Y912855D02*
D03*
X3676259Y912854D02*
D03*
X3833740Y912854D02*
D03*
X3794370D02*
D03*
X3755001Y912854D02*
D03*
X3794370Y952225D02*
D03*
X3676260Y952225D02*
D03*
X3715630Y952224D02*
D03*
X3833740Y952225D02*
D03*
X3755001Y952224D02*
D03*
%TF.MD5,e05e4149021a9292e11c6c2e7aff7b98*%
M02*
