M48
;Layer_Color=9474304
;FILE_FORMAT=2:5
INCH,LZ
;TYPE=PLATED
T1F00S00C0.00787
T2F00S00C0.01200
T3F00S00C0.01500
T4F00S00C0.02800
T5F00S00C0.02953
T6F00S00C0.03150
T7F00S00C0.03500
T8F00S00C0.03937
T9F00S00C0.04528
T10F00S00C0.07500
T11F00S00C0.11811
;TYPE=NON_PLATED
T12F00S00C0.02756
%
T01
X0367626Y0087349
X0371563Y0087348
X03755Y0087349
X03755Y0091285
X0379437Y0091285
X0383374
X0383374Y0095223
X0383374Y0099159
X0379437Y0099159
X03755Y0099159
X03755Y0095222
X0379437Y0095223
X0379437Y0087349
X0383374Y0087348
X0371563Y0091286
X0371563Y0095222
X0371563Y0099159
X0367626Y0099159
X0367626Y0095223
X0367626Y0091285
T02
X0358Y00275
X0358Y00315
X03645Y00315
X03645Y00275
X0369Y0061
X03415Y0057
X03385
X0335
X0327
X0323
X02805Y00585
Y00535
Y00495
X02885Y0044
Y0039
X02615Y0039
X0258Y0041
X0252Y0044
X0239492Y0034508
X0227666Y0023334
X0232749Y0008
X0201379Y0061293
X02695Y00595
X0272
X0188Y00465
X0184461Y0034869
X0175146Y0023694
X0039488Y0085488
X0212692Y0071192
X0262833Y0084327
X0312Y008
X0321
X0326Y0097
X0326Y01035
X0373Y0112
X03785
X03845
X0369Y00665
T03
X0370118Y0015882
X0372Y0048
X0378
X03465Y0037306
X03375Y00385
X0331441Y0046059
X0327Y0051
X0323625Y0050875
X0309173Y0031827
X02885Y0032
X02625Y00295
X0270571Y0044429
X02845Y00645
X0245Y00595
X02165Y0059588
X0208476Y0049976
X0207392Y0039108
X02045Y0039044
X01985Y0040002
X02Y00345
X0211124Y0032875
X0216046Y0032954
X0225Y00345
Y00385
Y0043
X0226Y00205
X022824Y001876
X0234199Y0011301
X02405Y00205
X0196083Y0048945
X03075Y0004
X0321499Y0003999
X03415Y0016
X0187336Y0010336
X0189Y0006
X0187127Y0024126
X01935Y00345
Y0049238
X0188Y005
X0173631Y0034868
X0175239Y001912
X0172576Y0011423
X0122441Y0022941
X0125Y00375
X0116Y00365
Y00445
X0115Y005
X01125Y00475
X0086336Y0049664
X0086362Y0059862
X0092Y0063
X0095Y0065
X00585Y0056501
X0072Y00265
X0071874Y0018626
X0071752Y0010752
X002385Y008835
X004Y0094
X00745Y00905
X0077772Y0073272
X00755Y0067
X00585Y00685
X0090185Y0076815
X0107559Y0090441
X0114441Y0070059
X01335Y007
X0127999Y0098
X01775Y0078
X02Y00745
X02085Y00775
X0211Y007509
X0211918Y0067657
X0223Y00735
X0259Y0095
X0267175Y0094325
X02645Y01005
X0293325Y0094325
X03315Y00905
X0331Y0085
T04
X028748Y007352
X0345Y0107
X03525Y00975
T05
X0135539Y0009701
X0144201Y0009701
X0152862Y0009701
Y0022299
X0144201Y0022299
X0135539
X0165461Y0022299
X0165461Y0009701
T06
X0168185Y0058
X016452Y0105
X0172394
X0180268Y0105
X0188142Y0105
X0156646Y0105
X0148772Y0105
X0140898Y0105
X0133024Y0105
X012515Y0105
X0117276Y0105
X0109402Y0105
X0101528Y0105
X0093653
X008578Y0105
X0077905Y0105
X0062157Y0105
X0054283Y0105
X0196016Y0105
X020389Y0105
X0211764Y0105
X0219638
X0227512
X0235386Y0105
X024326Y0105
X0251134Y0105
X0259008Y0105
X0266882Y0105
X0274756Y0105
X028263Y0105
X0290504Y0105
X0298378
X0314126Y0105
X0322Y0105
T07
X0169Y00915
X0179
X0189Y00915
X0199Y00915
X0209Y00915
X0219Y00915
T08
X0016142Y0007705
X0033858
Y0033295
Y0046705
X0016142
Y0033295
Y0072295
X0033858
T09
X0128815Y0058
T10
X0046Y001
T11
X0360236Y0011024
X001378Y0110236
T12
X0376354Y0012831
X0376354Y0029169
M30
