%TF.GenerationSoftware,Altium Limited,Altium Designer,22.2.1 (43)*%
G04 Layer_Color=32896*
%FSLAX26Y26*%
%MOIN*%
%TF.SameCoordinates,49CA406D-FE3E-4379-A0B2-47437619DC98*%
%TF.FilePolarity,Positive*%
%TF.FileFunction,Other,Bottom_Assembly*%
%TF.Part,Single*%
G01*
G75*
%TA.AperFunction,NonConductor*%
%ADD129C,0.007874*%
G36*
X660827Y939657D02*
X658792D01*
X658446Y940271D01*
X658024Y940885D01*
X657563Y941461D01*
X657102Y941999D01*
X656679Y942421D01*
X656334Y942767D01*
X656104Y942997D01*
X656065Y943036D01*
X656027Y943074D01*
X655297Y943689D01*
X654529Y944265D01*
X653761Y944764D01*
X653070Y945186D01*
X652456Y945532D01*
X652187Y945647D01*
X651956Y945762D01*
X651803Y945877D01*
X651649Y945954D01*
X651572Y945993D01*
X651534D01*
Y949026D01*
X652072Y948796D01*
X652648Y948527D01*
X653185Y948297D01*
X653684Y948028D01*
X654107Y947797D01*
X654452Y947605D01*
X654683Y947452D01*
X654721Y947413D01*
X654760D01*
X655412Y947029D01*
X655988Y946607D01*
X656487Y946261D01*
X656910Y945916D01*
X657255Y945647D01*
X657524Y945455D01*
X657678Y945301D01*
X657716Y945263D01*
Y965001D01*
X660827D01*
Y939657D01*
D02*
G37*
G36*
X634907Y964962D02*
X635675Y964924D01*
X636366Y964847D01*
X636942Y964770D01*
X637441Y964693D01*
X637787Y964655D01*
X638017Y964578D01*
X638094D01*
X638747Y964386D01*
X639323Y964194D01*
X639822Y964002D01*
X640244Y963810D01*
X640590Y963618D01*
X640859Y963465D01*
X641051Y963388D01*
X641089Y963349D01*
X641550Y963004D01*
X641972Y962620D01*
X642395Y962236D01*
X642702Y961890D01*
X643009Y961545D01*
X643201Y961276D01*
X643355Y961122D01*
X643393Y961045D01*
X643777Y960469D01*
X644123Y959855D01*
X644430Y959241D01*
X644660Y958665D01*
X644852Y958127D01*
X645006Y957743D01*
X645044Y957589D01*
X645083Y957474D01*
X645121Y957397D01*
Y957359D01*
X645351Y956514D01*
X645505Y955631D01*
X645659Y954748D01*
X645736Y953980D01*
X645774Y953289D01*
Y952981D01*
X645812Y952751D01*
Y952521D01*
Y952367D01*
Y952290D01*
Y952252D01*
X645774Y951023D01*
X645659Y949909D01*
X645505Y948911D01*
X645390Y948450D01*
X645313Y948028D01*
X645236Y947644D01*
X645121Y947298D01*
X645044Y946991D01*
X644967Y946761D01*
X644891Y946569D01*
X644852Y946415D01*
X644814Y946338D01*
Y946300D01*
X644391Y945340D01*
X643931Y944495D01*
X643432Y943765D01*
X642932Y943151D01*
X642510Y942652D01*
X642164Y942268D01*
X641895Y942037D01*
X641857Y941961D01*
X641819D01*
X641204Y941500D01*
X640590Y941116D01*
X639976Y940809D01*
X639399Y940578D01*
X638900Y940386D01*
X638478Y940271D01*
X638324Y940194D01*
X638247D01*
X638171Y940156D01*
X638132D01*
X637518Y940041D01*
X636788Y939925D01*
X636020Y939849D01*
X635329Y939810D01*
X634676Y939772D01*
X625000D01*
Y965001D01*
X634062D01*
X634907Y964962D01*
D02*
G37*
%LPC*%
G36*
X634100Y962044D02*
X628340D01*
Y942729D01*
X633601D01*
X634638Y942767D01*
X635521Y942805D01*
X636251Y942882D01*
X636865Y942997D01*
X637326Y943113D01*
X637633Y943189D01*
X637825Y943228D01*
X637902Y943266D01*
X638555Y943612D01*
X639169Y944034D01*
X639707Y944495D01*
X640168Y944994D01*
X640552Y945417D01*
X640820Y945801D01*
X640936Y945954D01*
X640974Y946069D01*
X641051Y946108D01*
Y946146D01*
X641281Y946569D01*
X641473Y947029D01*
X641819Y947989D01*
X642049Y948988D01*
X642203Y949986D01*
X642241Y950409D01*
X642279Y950831D01*
X642318Y951215D01*
X642356Y951561D01*
Y951829D01*
Y952021D01*
Y952175D01*
Y952213D01*
X642318Y953250D01*
X642241Y954172D01*
X642126Y955017D01*
X642011Y955746D01*
X641895Y956322D01*
X641819Y956553D01*
X641780Y956745D01*
X641742Y956898D01*
X641703Y957013D01*
X641665Y957052D01*
Y957090D01*
X641396Y957781D01*
X641089Y958434D01*
X640782Y958972D01*
X640513Y959433D01*
X640244Y959778D01*
X640014Y960047D01*
X639860Y960239D01*
X639822Y960277D01*
X639476Y960585D01*
X639131Y960853D01*
X638747Y961045D01*
X638363Y961237D01*
X638056Y961391D01*
X637787Y961506D01*
X637633Y961545D01*
X637556Y961583D01*
X636980Y961737D01*
X636366Y961852D01*
X635713Y961929D01*
X635099Y961967D01*
X634523Y962005D01*
X634100Y962044D01*
D02*
G37*
%LPD*%
D129*
X561886Y936457D02*
X688114Y936456D01*
X688114Y993544D02*
X688114Y936456D01*
X561886Y993543D02*
X688114Y993544D01*
X561886Y993543D02*
X561886Y936457D01*
%TF.MD5,565d42b0cd54cc7900f05c905029925a*%
M02*
